<svg width="340" height="301" viewBox="0 0 340 301" fill="none" xmlns="http://www.w3.org/2000/svg">
<path d="M81.3222 26.8642C119.698 -0.728769 164.192 27.0226 180.852 48.742C187.68 30.5689 213.254 12.8482 242.709 20.3157C272.163 27.7832 276.761 58.801 273.106 67.3639C288.737 71.6378 323.317 71.4001 329.737 104.11C337.398 143.147 314.237 166.719 286.145 172.654C300.564 183.99 309.053 216.187 289.311 233.821C261.83 258.367 221.83 251.049 204.197 230.524C199.306 248.011 177.219 288.234 129.669 283.958C82.1186 279.682 68.7311 234.992 73.1976 220.622C46.7784 214.374 11.7393 201.356 10.9582 159.983C10.1771 118.61 40.6758 102.537 65.0201 104.582C56.7451 95.5203 46.8461 51.6531 81.3222 26.8642Z" fill="black"/>
</svg>
