<svg width="43" height="38" viewBox="0 0 43 38" fill="none" xmlns="http://www.w3.org/2000/svg">
<path d="M40.9451 12.7272C40.9451 23.4661 32.2396 32.1716 21.5007 32.1716C10.7619 32.1716 2.05639 23.4661 2.05639 12.7272C2.05639 9.90221 2.65564 9.0227 3.03248 8.73682C3.44338 8.42511 4.28585 8.26093 6.18348 8.63532C7.30676 8.85693 8.49656 9.19265 9.85459 9.57583C10.7592 9.83108 11.7385 10.1074 12.8224 10.3851C15.4145 11.0491 18.3634 11.6435 21.5007 11.6435C24.6381 11.6435 27.587 11.0491 30.179 10.3851C31.263 10.1074 32.2423 9.83108 33.1469 9.57583C34.5049 9.19265 35.6947 8.85693 36.818 8.63532C38.7156 8.26093 39.5581 8.42511 39.969 8.73682C40.3458 9.0227 40.9451 9.90221 40.9451 12.7272Z" fill="#DE8383" stroke="black" stroke-width="3.48191"/>
<mask id="path-2-inside-1_1_8238" fill="white">
<path fill-rule="evenodd" clip-rule="evenodd" d="M41.7343 19.0248H1.26718C0.648633 17.0354 0.31543 14.9202 0.31543 12.7272C0.31543 5.0823 4.36481 6.22178 10.4357 7.9301C13.6561 8.8363 17.4454 9.90257 21.5007 9.90257C25.5561 9.90257 29.3454 8.8363 32.5658 7.9301C38.6367 6.22178 42.686 5.0823 42.686 12.7272C42.686 14.9202 42.3528 17.0354 41.7343 19.0248Z"/>
</mask>
<path fill-rule="evenodd" clip-rule="evenodd" d="M41.7343 19.0248H1.26718C0.648633 17.0354 0.31543 14.9202 0.31543 12.7272C0.31543 5.0823 4.36481 6.22178 10.4357 7.9301C13.6561 8.8363 17.4454 9.90257 21.5007 9.90257C25.5561 9.90257 29.3454 8.8363 32.5658 7.9301C38.6367 6.22178 42.686 5.0823 42.686 12.7272C42.686 14.9202 42.3528 17.0354 41.7343 19.0248Z" fill="#F9F9F9"/>
<path d="M41.7343 19.0248V22.5068H44.2981L45.0592 20.0586L41.7343 19.0248ZM1.26718 19.0248L-2.05774 20.0586L-1.29659 22.5068H1.26718V19.0248ZM10.4357 7.9301L9.49254 11.2818L10.4357 7.9301ZM32.5658 7.9301L31.6226 4.57836L32.5658 7.9301ZM41.7343 15.5429H1.26718V22.5068H41.7343V15.5429ZM4.59209 17.9911C4.07643 16.3325 3.79734 14.5657 3.79734 12.7272H-3.16648C-3.16648 15.2747 -2.77916 17.7382 -2.05774 20.0586L4.59209 17.9911ZM3.79734 12.7272C3.79734 11.0419 4.03431 10.3135 4.1524 10.0792C4.19288 9.99889 4.18627 10.0425 4.09824 10.1133C4.01004 10.1841 3.94349 10.1993 3.96926 10.1926C4.11002 10.1563 4.58032 10.1085 5.66136 10.308C6.70513 10.5006 7.92964 10.842 9.49254 11.2818L11.3789 4.57836C9.90632 4.16399 8.34808 3.72238 6.92515 3.45979C5.5395 3.20408 3.85916 3.02893 2.22871 3.4498C0.377826 3.92758 -1.13749 5.10203 -2.06639 6.94529C-2.89728 8.59406 -3.16648 10.5901 -3.16648 12.7272H3.79734ZM9.49254 11.2818C12.6602 12.1732 16.8947 13.3845 21.5007 13.3845V6.42066C17.996 6.42066 14.652 5.49939 11.3789 4.57836L9.49254 11.2818ZM21.5007 13.3845C26.1068 13.3845 30.3412 12.1732 33.5089 11.2818L31.6226 4.57836C28.3495 5.49939 25.0055 6.42066 21.5007 6.42066V13.3845ZM33.5089 11.2818C35.0718 10.842 36.2963 10.5006 37.3401 10.308C38.4212 10.1085 38.8915 10.1563 39.0322 10.1926C39.058 10.1993 38.9914 10.1841 38.9032 10.1133C38.8152 10.0425 38.8086 9.99889 38.8491 10.0792C38.9672 10.3135 39.2041 11.0419 39.2041 12.7272H46.168C46.168 10.5901 45.8987 8.59406 45.0679 6.94529C44.139 5.10202 42.6236 3.92758 40.7728 3.4498C39.1423 3.02893 37.462 3.20408 36.0763 3.45979C34.6534 3.72238 33.0951 4.16399 31.6226 4.57836L33.5089 11.2818ZM39.2041 12.7272C39.2041 14.5657 38.925 16.3325 38.4094 17.9911L45.0592 20.0586C45.7806 17.7382 46.168 15.2747 46.168 12.7272H39.2041Z" fill="black" mask="url(#path-2-inside-1_1_8238)"/>
</svg>
