<svg width="135" height="330" viewBox="0 0 135 330" fill="none" xmlns="http://www.w3.org/2000/svg">
<path d="M58.125 237.5V315.25H41.125V237.5H58.125Z" fill="#F6DDD6"/>
<path d="M91.375 248V311H74.375V248H91.375Z" fill="#F6DDD6"/>
<path d="M63.2417 290.105C62.0994 288.25 59.5297 288.695 58.3877 289.15L58.6732 290.24C59.1489 290.332 60.3577 290.515 60.8147 291.06C61.3857 291.742 60.9574 293.105 61.3857 293.377C61.8139 293.652 62.9562 293.377 63.5272 293.377C64.0982 293.377 64.6692 292.425 63.2417 290.105Z" fill="black"/>
<path fill-rule="evenodd" clip-rule="evenodd" d="M60.3244 289.46C60.3467 289.394 60.4187 289.36 60.4827 289.382L60.5037 289.391L60.7387 289.521L60.7916 289.473L60.8542 289.412C60.8917 289.374 60.9481 289.365 60.995 289.387L61.0144 289.398L62.2644 290.273C62.3209 290.312 62.3347 290.39 62.2951 290.447C62.2599 290.497 62.1944 290.513 62.1406 290.489L62.121 290.477L61.6847 290.172L61.6744 290.213C61.6185 290.424 61.5458 290.629 61.4694 290.755L61.4589 290.77C61.4949 290.8 61.5475 290.836 61.6145 290.877L61.7017 290.929L61.8124 290.99L61.9429 291.058L61.9429 290.75C61.9429 290.656 62.042 290.598 62.1224 290.637L62.1406 290.648L63.0156 291.273C63.1084 291.34 63.0702 291.481 62.9649 291.498L62.9429 291.5L62.4565 291.5C62.5389 291.509 62.5966 291.602 62.5545 291.682L62.5429 291.7L62.3524 291.954L62.4894 292.009C62.5463 292.032 62.5773 292.092 62.5655 292.15L62.559 292.171C62.5362 292.228 62.4762 292.259 62.4181 292.248L62.3965 292.241L62.1969 292.161L62.1679 292.2C62.1004 292.29 61.9617 292.251 61.9447 292.147L61.9429 292.125L61.9429 292.06L61.7715 291.991C61.6742 291.952 61.6673 291.822 61.7507 291.77L61.7715 291.759L61.9429 291.69V291.337L61.856 291.294C61.7892 291.26 61.7247 291.227 61.6646 291.194L61.578 291.146C61.4565 291.077 61.3624 291.015 61.2989 290.962C61.1825 290.864 61.1268 290.764 61.2296 290.662C61.2772 290.614 61.3496 290.432 61.407 290.239L61.4219 290.187L60.7719 289.826L60.7386 289.853C60.6345 289.933 60.5415 289.987 60.4691 289.998L60.4429 290C60.2887 290 60.2508 289.879 60.2653 289.723C60.2728 289.643 60.2961 289.545 60.3244 289.46ZM62.193 291.456V291.59L62.3966 291.509C62.4035 291.506 62.4103 291.504 62.4171 291.503L62.4337 291.5H62.318L62.267 291.489L62.193 291.456ZM62.193 291.18V290.993L62.5532 291.25H62.345L62.2821 291.222L62.193 291.18Z" fill="#EACE56" fill-opacity="0.78"/>
<path d="M12.6395 323.75C12.3354 323 12.3878 321.375 14.2627 320.625C16.1376 319.875 38.2625 323.75 38.2625 323.75C43.9583 323.285 59.2555 315.82 64.8878 319.25C66.6695 320.335 66.0655 323.773 65.4078 326.99C64.3553 328.063 53.7078 329 50.2555 328.195C50.2555 326.32 49.9868 325.113 49.9868 325.113C49.9868 325.113 47.8953 326.463 45.6378 326.99C41.033 328.063 40.0253 329.25 25.7628 329.25C14.3236 328.178 13.5009 325.875 12.6395 323.75Z" fill="#383129"/>
<path fill-rule="evenodd" clip-rule="evenodd" d="M64.3891 321.607C64.0069 321.88 63.5641 322.095 63.0078 322.281L62.9286 322.044C63.4626 321.866 63.8834 321.661 64.244 321.404L64.3891 321.607ZM14.6729 323.358C14.1941 322.997 13.8076 322.644 13.5422 322.331L13.7331 322.169C13.9854 322.467 14.3586 322.808 14.8236 323.159L14.6729 323.358ZM17.2591 324.918C16.7918 324.689 16.3469 324.448 15.9307 324.2L16.0589 323.985C16.4692 324.23 16.9079 324.468 17.369 324.694L17.2591 324.918ZM18.6382 325.529C19.1006 325.714 19.575 325.884 20.0587 326.038L20.1345 325.8C19.6565 325.648 19.1879 325.48 18.731 325.297L18.6382 325.529ZM22.9967 326.743C22.4993 326.662 22.0056 326.562 21.5171 326.445L21.5754 326.202C22.058 326.317 22.5456 326.416 23.037 326.496L22.9967 326.743ZM24.4993 326.93C25.001 326.973 25.5039 326.996 26.0074 327L26.0091 326.75C25.5123 326.746 25.0158 326.723 24.5206 326.681L24.4993 326.93ZM29.0074 326.955C28.5108 326.971 28.0102 326.983 27.5058 326.99L27.5021 326.74C28.0051 326.733 28.5043 326.721 28.9996 326.705L29.0074 326.955ZM30.51 326.895C31.0145 326.871 31.5143 326.842 32.0092 326.809L31.9926 326.559C31.4992 326.592 31.0009 326.621 30.4978 326.646L30.51 326.895ZM35.0028 326.553C34.5104 326.605 34.0118 326.652 33.5071 326.695L33.4858 326.446C33.9889 326.403 34.486 326.356 34.9768 326.305L35.0028 326.553ZM36.4972 326.382C37.0016 326.318 37.4981 326.251 37.986 326.179L37.9495 325.931C37.4634 326.003 36.9687 326.071 36.4661 326.134L36.4972 326.382ZM40.9473 325.67C40.4666 325.765 39.9737 325.856 39.4693 325.942L39.427 325.696C39.9293 325.61 40.4202 325.519 40.8988 325.424L40.9473 325.67ZM42.4195 325.357C42.9255 325.241 43.4131 325.122 43.8804 324.999L43.8167 324.757C43.3521 324.879 42.8673 324.998 42.3639 325.113L42.4195 325.357ZM46.7686 324.169L45.3287 324.591L45.2588 324.351L46.698 323.929L46.7686 324.169ZM48.1355 323.503L48.207 323.742L49.644 323.31L49.5714 323.071L48.4776 323.4L48.1355 323.503ZM51.0497 323.034L51.0686 322.784C51.4103 322.81 51.7822 322.835 52.1701 322.857L52.5628 322.879L52.5498 323.129C52.1513 323.108 51.7641 323.084 51.4024 323.059L51.0497 323.034ZM54.0508 323.192C54.5632 323.207 55.0665 323.217 55.5535 323.22L55.555 322.97C55.0702 322.967 54.5689 322.957 54.0585 322.942L54.0508 323.192ZM58.5632 323.126C58.1064 323.164 57.6029 323.19 57.0583 323.206L57.0514 322.956C57.5916 322.941 58.0906 322.915 58.5425 322.877L58.5632 323.126ZM60.0205 322.686L60.0614 322.933L60.3431 322.885C60.7994 322.808 61.1916 322.735 61.5417 322.662L61.4908 322.417L61.1664 322.482C60.8294 322.548 60.4528 322.615 60.0205 322.686Z" fill="#67513B"/>
<path d="M45.8878 288.625C47.1065 288.625 54.2173 292.358 57.9068 289.463C58.3123 289.145 59.1375 289.405 59.1383 289.92C59.145 294.895 59.2185 303.545 59.9635 306.975C60.7528 310.61 61.4193 310.09 62.2083 313.465C62.7548 315.803 64.5245 321.255 62.2083 321.255H51.6448C49.1455 321.255 45.77 324.158 37.4473 324.973C23.6316 326.328 20.2555 324.473 17.497 323.598C11.2204 321.608 14.4057 317.053 17.497 315.598C22.0255 313.465 28.5158 311.865 31.817 310.098C34.3878 308.723 35.2705 308.295 36.5903 306.848C38.7663 304.463 40.6778 291.915 40.9733 288.638C40.9938 288.41 41.314 288.293 41.5088 288.413C42.796 289.205 44.6795 288.625 45.8878 288.625Z" fill="#2D2B30"/>
<path d="M18.2576 319.552C18.3974 319.089 18.8858 318.828 19.3484 318.967L19.7087 319.075C21.2341 319.526 22.3105 319.767 23.6783 319.914C25.6813 320.13 27.8047 320.03 30.1604 319.536C30.6334 319.437 31.0972 319.74 31.1964 320.213C31.2955 320.686 30.9925 321.15 30.5195 321.249C27.9826 321.781 25.6749 321.889 23.4912 321.654C21.8871 321.482 20.6593 321.192 18.842 320.643C18.3795 320.503 18.1178 320.014 18.2576 319.552Z" fill="#59555F"/>
<path d="M35.1377 314.75C37.5854 312.5 46.5127 307.472 45.8877 288.625C46.9484 288.625 49.5127 290 53.3877 290.25C57.4569 290.128 57.3902 289.76 58.4679 289.15C58.4972 289.132 58.5309 289.108 58.5587 289.09C60.2489 287.952 59.4887 306.128 60.7017 309.347C61.6809 311.948 63.5167 315.847 63.5167 320.597C62.6599 322.097 54.2149 321.347 51.5222 321.347C50.2627 314.625 40.3877 319.75 38.2627 319.125C36.3974 318.577 35.1377 317.5 35.1377 314.75Z" fill="#1D1D20"/>
<path d="M38.1377 306.65C40.9377 304.45 42.0127 293.75 42.1377 288.625C41.6377 288.5 41.5127 288.15 41.1377 288.275C40.7627 288.4 40.7627 289.9 40.6377 291.15C40.5009 292.52 39.5127 296.775 39.0127 299.65C38.5127 302.525 38.0127 304.275 36.1377 306.65C34.6377 308.55 28.7627 310.5 26.8877 312.125C27.0959 312.082 27.6377 311.8 28.1377 311.9C28.7627 312.025 28.6377 312.15 29.3877 312.15C30.1377 312.15 34.6377 309.4 38.1377 306.65Z" fill="#1D1D20"/>
<path d="M40.9198 289.427C41.0246 289.113 41.355 288.937 41.671 289.02L41.7104 289.032L46.9604 290.782C47.5291 290.972 47.5258 291.767 46.9766 291.962L46.9344 291.976L43.2037 293.042L46.1736 294.569C46.6907 294.835 46.5929 295.593 46.0431 295.731L46.002 295.74L42.7617 296.342L46.1175 297.669C46.6498 297.879 46.6384 298.627 46.1197 298.831L46.0777 298.845L41.708 300.24L45.5314 302.061C46.084 302.324 45.9648 303.133 45.3788 303.239L45.3372 303.246L40.6342 303.81L43.8877 306.25C44.3573 306.602 44.1246 307.341 43.5531 307.374L43.5127 307.375H38.5522L41.9484 310.677C42.3898 311.106 42.01 311.839 41.4173 311.743L41.3792 311.736L34.9702 310.334L37.5204 313.886C37.8918 314.403 37.3439 315.07 36.7726 314.827L36.7376 314.811L30.3626 311.686C30.0527 311.534 29.9246 311.16 30.0765 310.85C30.2221 310.553 30.5721 310.423 30.8738 310.546L30.9128 310.564L35.0542 312.594L33.005 309.74C32.6785 309.285 33.0682 308.671 33.6084 308.757L33.6463 308.764L39.5065 310.046L36.577 307.198C36.1843 306.816 36.4388 306.157 36.9731 306.126L37.0127 306.125H41.6377L38.6377 303.875C38.1981 303.545 38.3695 302.857 38.897 302.761L38.9382 302.754L43.0455 302.262L39.744 300.689C39.2463 300.452 39.2807 299.742 39.78 299.545L39.8227 299.53L44.029 298.187L40.2829 296.706C39.7131 296.481 39.7782 295.665 40.3562 295.52L40.3984 295.511L43.9762 294.845L41.2269 293.431C40.7363 293.179 40.7928 292.468 41.299 292.288L41.341 292.274L44.6487 291.329L41.3151 290.218C41.0007 290.113 40.825 289.783 40.9081 289.467L40.9198 289.427Z" fill="black"/>
<path d="M69.337 290.118C70.4855 288.25 73.0695 288.7 74.218 289.158L73.931 290.253C73.4525 290.345 72.237 290.528 71.7775 291.078C71.2033 291.763 71.634 293.135 71.2033 293.41C70.7725 293.683 69.624 293.41 69.0498 293.41C68.4755 293.41 67.9013 292.448 69.337 290.118Z" fill="black"/>
<path fill-rule="evenodd" clip-rule="evenodd" d="M72.0904 289.398C72.159 289.36 72.2454 289.394 72.2699 289.468C72.2985 289.555 72.3217 289.653 72.3292 289.732C72.3438 289.889 72.3057 290.01 72.1512 290.01C72.0752 290.01 71.9688 289.951 71.8501 289.859L71.8199 289.835L71.1657 290.199L71.1672 290.204C71.2224 290.4 71.2954 290.593 71.3472 290.662L71.3596 290.676C71.4629 290.779 71.4071 290.879 71.2903 290.978C71.2265 291.031 71.1317 291.093 71.0098 291.163C70.9257 291.211 70.829 291.263 70.7276 291.314L70.6422 291.356V291.712L70.815 291.782C70.9123 291.821 70.919 291.951 70.8355 292.003L70.8147 292.014L70.6422 292.082L70.6422 292.148C70.6422 292.26 70.5079 292.312 70.4316 292.239L70.4172 292.223L70.3877 292.183L70.1862 292.264C70.1291 292.286 70.0654 292.264 70.034 292.214L70.0238 292.194C70.0011 292.137 70.0233 292.073 70.0736 292.042L70.0938 292.031L70.2322 291.976L70.04 291.72C69.9774 291.637 70.0377 291.529 70.1265 291.52L69.6372 291.52C69.5233 291.52 69.4722 291.383 69.5476 291.308L69.5644 291.293L70.4444 290.663C70.5212 290.608 70.6259 290.655 70.6405 290.744L70.6422 290.765L70.6422 291.077L70.7098 291.042C70.7412 291.026 70.7717 291.009 70.8011 290.993L70.8857 290.946L70.9733 290.894C71.0272 290.861 71.0718 290.831 71.1058 290.805L71.1299 290.785L71.12 290.77C71.0433 290.644 70.9705 290.44 70.9138 290.226L70.9024 290.182L70.4631 290.49C70.4129 290.525 70.3457 290.518 70.3036 290.476L70.2891 290.459C70.2539 290.409 70.2608 290.342 70.3025 290.3L70.3198 290.285L71.5768 289.405C71.6267 289.37 71.6946 289.376 71.7374 289.42C71.7669 289.45 71.7987 289.48 71.8312 289.51L71.8532 289.53L72.0904 289.398ZM70.3922 291.475L70.3164 291.509L70.2657 291.52L70.1474 291.52L70.166 291.523L70.1865 291.529L70.3922 291.612V291.475ZM70.0267 291.27L70.3922 291.008V291.2L70.3131 291.237L70.2392 291.27H70.0267Z" fill="#EACE56" fill-opacity="0.78"/>
<path d="M120.222 323.95C120.528 323.195 120.475 321.563 118.59 320.808C116.704 320.053 94.4557 323.95 94.4557 323.95C88.7282 323.483 73.3452 315.975 67.6817 319.425C65.89 320.515 66.4972 323.973 67.1587 327.208C68.217 328.285 78.924 329.23 82.3957 328.42C82.3957 326.533 82.666 325.32 82.666 325.32C82.666 325.32 84.769 326.678 87.0392 327.208C91.6697 328.285 92.6832 329.48 107.025 329.48C118.528 328.403 119.356 326.088 120.222 323.95Z" fill="#383129"/>
<path fill-rule="evenodd" clip-rule="evenodd" d="M68.5704 321.751C68.9394 321.974 69.3741 322.157 69.9233 322.321L69.8519 322.561C69.2836 322.391 68.8295 322.2 68.4408 321.964L68.5704 321.751ZM118.032 323.352C118.497 323 118.87 322.66 119.123 322.362L119.313 322.524C119.048 322.837 118.662 323.189 118.183 323.551L118.032 323.352ZM115.488 324.889C115.949 324.663 116.387 324.424 116.797 324.179L116.926 324.393C116.51 324.642 116.065 324.884 115.598 325.113L115.488 324.889ZM114.127 325.495C113.67 325.678 113.202 325.847 112.724 326L112.8 326.238C113.284 326.083 113.758 325.912 114.22 325.727L114.127 325.495ZM109.823 326.703C110.314 326.621 110.802 326.521 111.284 326.405L111.343 326.648C110.855 326.766 110.361 326.867 109.864 326.949L109.823 326.703ZM108.34 326.892C107.845 326.936 107.349 326.961 106.852 326.967L106.854 327.217C107.358 327.211 107.861 327.186 108.362 327.141L108.34 326.892ZM103.866 326.926C104.361 326.941 104.86 326.952 105.363 326.959L105.36 327.209C104.855 327.202 104.355 327.191 103.858 327.176L103.866 326.926ZM102.368 326.868C101.864 326.844 101.366 326.816 100.872 326.783L100.856 327.033C101.351 327.065 101.851 327.093 102.356 327.117L102.368 326.868ZM97.8884 326.533C98.3794 326.584 98.8765 326.63 99.3796 326.672L99.3588 326.921C98.8541 326.879 98.3554 326.832 97.8628 326.782L97.8884 326.533ZM96.3988 326.364C95.8961 326.302 95.4012 326.236 94.9146 326.165L94.8787 326.412C95.3671 326.483 95.8637 326.55 96.3682 326.613L96.3988 326.364ZM91.964 325.666C92.4433 325.759 92.9345 325.848 93.4368 325.933L93.3951 326.18C92.8908 326.094 92.3975 326.005 91.9161 325.911L91.964 325.666ZM90.4985 325.359C89.9954 325.246 89.5101 325.129 89.0442 325.009L88.9816 325.251C89.4502 325.372 89.9381 325.489 90.4438 325.603L90.4985 325.359ZM87.6007 324.608L87.5309 324.848L87.2365 324.762L86.0907 324.426L86.1612 324.186L86.4426 324.269L87.6007 324.608ZM84.7232 323.761L83.287 323.33L83.2146 323.569L84.6519 324.001L84.7232 323.761ZM81.7984 322.962L81.8184 323.212C81.4709 323.239 81.083 323.267 80.674 323.291L80.3187 323.312L80.3048 323.062C80.6631 323.042 81.0098 323.021 81.333 322.998L81.7984 322.962ZM78.809 323.13C78.3007 323.147 77.7994 323.159 77.3125 323.164L77.3152 323.414C77.8041 323.409 78.3074 323.397 78.8177 323.38L78.809 323.13ZM74.3231 323.093C74.7796 323.125 75.279 323.147 75.8156 323.158L75.8104 323.408C75.2699 323.397 74.7664 323.375 74.3055 323.343L74.3231 323.093ZM72.8043 323.172L72.8442 322.925L72.5639 322.879C72.1098 322.804 71.7197 322.734 71.3708 322.666L71.3226 322.911L71.6506 322.973C71.9909 323.036 72.3698 323.101 72.8043 323.172Z" fill="#67513B"/>
<path d="M86.788 288.628C85.5615 288.628 78.401 292.388 74.6933 289.463C74.2885 289.145 73.464 289.405 73.4633 289.92C73.4568 294.923 73.383 303.63 72.6333 307.083C71.8398 310.738 71.1698 310.215 70.376 313.608C69.8265 315.958 68.047 321.44 70.376 321.44H80.9988C83.512 321.44 86.9065 324.36 95.2758 325.18C109.169 326.54 112.564 324.678 115.338 323.798C121.649 321.795 118.446 317.215 115.338 315.753C110.784 313.608 104.257 311.998 100.937 310.223C98.3523 308.84 97.4645 308.41 96.1373 306.953C93.9485 304.553 92.0255 291.928 91.7295 288.638C91.7093 288.41 91.389 288.293 91.1945 288.413C89.9 289.213 88.0038 288.628 86.788 288.628Z" fill="#2D2B30"/>
<path d="M113.477 319.145C113.939 319.005 114.428 319.266 114.568 319.729C114.708 320.192 114.446 320.68 113.984 320.82L113.602 320.934C111.982 321.413 110.807 321.677 109.309 321.838C107.114 322.074 104.794 321.966 102.243 321.431C101.77 321.332 101.467 320.869 101.566 320.396C101.665 319.923 102.129 319.62 102.602 319.719C104.972 320.215 107.108 320.315 109.122 320.098C110.604 319.938 111.749 319.668 113.477 319.145Z" fill="#59555F"/>
<path d="M97.5981 314.9C95.1366 312.637 86.1596 307.582 86.7881 288.627C85.7213 288.627 83.1428 290.01 79.2461 290.262C75.1536 290.137 75.2211 289.77 74.1373 289.157C74.1081 289.14 74.0741 289.115 74.0463 289.095C72.3466 287.95 73.1111 306.227 71.8911 309.467C70.9066 312.082 69.0603 316.005 69.0603 320.78C69.9218 322.29 78.4143 321.535 81.1218 321.535C82.3886 314.775 92.3188 319.927 94.4556 319.3C96.3313 318.747 97.5981 317.665 97.5981 314.9Z" fill="#1D1D20"/>
<path d="M94.5812 306.755C91.7657 304.543 90.6845 293.783 90.559 288.628C91.0617 288.503 91.1875 288.153 91.5645 288.278C91.9415 288.403 91.9415 289.91 92.0672 291.168C92.2047 292.545 93.1985 296.825 93.7015 299.715C94.2042 302.608 94.707 304.368 96.5925 306.755C98.1007 308.665 104.009 310.625 105.894 312.26C105.685 312.218 105.14 311.933 104.637 312.035C104.009 312.16 104.134 312.285 103.38 312.285C102.626 312.285 98.1007 309.52 94.5812 306.755Z" fill="#1D1D20"/>
<path d="M90.9898 289.042C91.3173 288.933 91.6712 289.11 91.7804 289.437C91.8852 289.752 91.7263 290.09 91.4237 290.214L91.3851 290.228L88.0222 291.349L91.3591 292.301C91.8895 292.453 91.973 293.16 91.5119 293.437L91.4733 293.458L88.6995 294.885L92.3072 295.555C92.9096 295.667 93.0021 296.481 92.4624 296.734L92.4228 296.751L88.6465 298.244L92.8857 299.597C93.4108 299.765 93.4729 300.473 93.0048 300.736L92.9645 300.757L89.6335 302.343L93.7758 302.839C94.3214 302.905 94.5176 303.586 94.1092 303.934L94.0765 303.96L91.0505 306.23H95.7125C96.2602 306.23 96.5371 306.88 96.1758 307.275L96.1482 307.303L93.1932 310.176L99.0986 308.884C99.6455 308.765 100.055 309.366 99.7615 309.827L99.7399 309.859L97.6707 312.741L101.848 310.694C102.145 310.548 102.501 310.66 102.664 310.942L102.684 310.98C102.83 311.277 102.718 311.633 102.436 311.796L102.398 311.816L95.9876 314.959C95.4157 315.239 94.8489 314.588 95.1832 314.065L95.2048 314.033L97.7742 310.454L91.321 311.865C90.7196 311.997 90.318 311.276 90.7247 310.835L90.7518 310.807L94.173 307.48H89.1762C88.5893 307.48 88.3325 306.75 88.7695 306.38L88.8011 306.355L92.0797 303.895L87.3422 303.328C86.7345 303.255 86.5888 302.45 87.1102 302.162L87.1477 302.143L91.0007 300.307L86.598 298.903C86.0527 298.729 86.0135 297.982 86.5172 297.744L86.5581 297.726L89.9437 296.387L86.6737 295.779C86.1019 295.673 85.9781 294.919 86.4654 294.629L86.5021 294.609L89.496 293.069L85.7364 291.996C85.1599 291.831 85.1285 291.036 85.6687 290.817L85.7103 290.802L90.9898 289.042Z" fill="black"/>
<path d="M28.125 282.5L31.125 193.625L50.581 190.981L50.75 186.5H60.2465L60.125 184.25L84.75 190.125L84.7788 191.617L91.5 193.625L107.375 282.5L86.5843 285.5L86.625 287.625L69.6535 286.312L69.875 289.25H46.875L47.0193 285.423L28.125 282.5Z" fill="black"/>
<path d="M106.875 82.625C106.875 80.248 107.125 70.1667 106.875 65.75L101 66.5L86.6245 78.625C83.958 84.7917 71.575 106.85 72.375 110.25C73.375 114.5 89.5142 117.935 94.75 121.625C115.5 136.25 111.375 109.75 110.5 104.5C109.625 99.25 106.875 89.625 106.875 82.625Z" fill="#17100F"/>
<path fill-rule="evenodd" clip-rule="evenodd" d="M20.5 57.759C20.5 57.759 16.9051 98.3126 14.0003 107.281C11.0955 116.25 4.42316 134.928 5.82294 146.323C7.22272 157.719 7.5006 158.873 14.0003 155.249C20.5 151.625 96.749 98.8484 96.749 98.8484L20.5 57.759Z" fill="#17100F"/>
<rect x="53" y="88.25" width="20.25" height="29" rx="10.125" fill="#EBBAAA"/>
<path d="M46.75 197V182.25H80.75V197H46.75Z" fill="#E5CECB"/>
<path d="M46.75 184.958V116.25H80.75V184.958C80.75 184.958 68.8312 187 63.75 187C58.6687 187 46.75 184.958 46.75 184.958Z" fill="#E7D6D3"/>
<path d="M62.5 111.75C55.2 111.75 50.625 108.25 49.25 106.5L45.25 114.875C47.875 117.708 55 123.375 62.5 123.375C70 123.375 77.2917 119.625 80 117.75L77.25 106.5C75.375 108.25 69.8 111.75 62.5 111.75Z" fill="#E6CECB"/>
<rect x="16.6069" y="106.208" width="43.244" height="89.4248" rx="21.622" transform="rotate(8.5 16.6069 106.208)" fill="#67513B"/>
<rect x="0.25" y="179.124" width="26.5347" height="52.0257" rx="13.2674" transform="rotate(-45 0.25 179.124)" fill="#67513B"/>
<path d="M18.9707 240.286L29.7078 106.932L52.875 105.25L61 152.625C58.8525 180.971 55.906 244.796 55.906 248.232C55.906 251.668 29.7078 243.865 18.9707 240.286Z" fill="#67513B"/>
<path d="M61.125 152.375L52.75 104.625C46.75 103.75 39.125 104.083 35.5 104.625L56.875 151.625L59.625 172.375L61.125 152.375Z" fill="#82684B"/>
<path d="M108.303 238.783L97.625 106.875L73.25 105.875L66.375 153.25C68.5225 181.596 71.3672 243.292 71.3672 246.729C71.3672 250.164 97.5658 242.362 108.303 238.783Z" fill="#67513B"/>
<path d="M66.375 153.5L73.25 105.5C79.125 104.25 86.7083 104.25 89.625 104.25L72.25 155.625L68.75 194L66.375 153.5Z" fill="#82684B"/>
<rect x="74.4067" y="175.038" width="56.6915" height="39.727" rx="5" transform="rotate(-4.5 74.4067 175.038)" fill="#363030"/>
<rect width="22.6357" height="63.002" rx="11.3179" transform="matrix(-0.981627 0.190809 0.190809 0.981627 110.767 105.5)" fill="#67513B"/>
<path fill-rule="evenodd" clip-rule="evenodd" d="M96.8296 193.507L101.58 157.507L119.921 159.927L115.171 195.927H115.171C114.502 200.991 109.855 204.555 104.79 203.887C99.7253 203.219 96.1613 198.571 96.8296 193.507H96.8296Z" fill="#F6DDD6"/>
<rect width="22.6357" height="44.5975" rx="11.3179" transform="matrix(-0.998135 -0.0610485 -0.0610485 0.998135 121.991 150.382)" fill="#67513B"/>
<path d="M53.4368 160.188C54.8007 160.188 55.9063 159.082 55.9063 157.719C55.9063 156.355 54.8007 155.249 53.4368 155.249C52.0729 155.249 50.9673 156.355 50.9673 157.719C50.9673 159.082 52.0729 160.188 53.4368 160.188Z" fill="#C3996F"/>
<path d="M51.9335 193.688C53.2974 193.688 54.403 192.582 54.403 191.218C54.403 189.854 53.2974 188.749 51.9335 188.749C50.5696 188.749 49.464 189.854 49.464 191.218C49.464 192.582 50.5696 193.688 51.9335 193.688Z" fill="#C3996F"/>
<path d="M53.007 176.938C54.3709 176.938 55.4765 175.832 55.4765 174.468C55.4765 173.104 54.3709 171.999 53.007 171.999C51.6431 171.999 50.5375 173.104 50.5375 174.468C50.5375 175.832 51.6431 176.938 53.007 176.938Z" fill="#C3996F"/>
<path d="M50.0008 209.793C51.3646 209.793 52.4703 208.687 52.4703 207.324C52.4703 205.96 51.3646 204.854 50.0008 204.854C48.6369 204.854 47.5312 205.96 47.5312 207.324C47.5312 208.687 48.6369 209.793 50.0008 209.793Z" fill="#C3996F"/>
<path d="M48.4977 223.751C49.8616 223.751 50.9672 222.646 50.9672 221.282C50.9672 219.918 49.8616 218.812 48.4977 218.812C47.1338 218.812 46.0282 219.918 46.0282 221.282C46.0282 222.646 47.1338 223.751 48.4977 223.751Z" fill="#C3996F"/>
<path d="M96 74C101.523 74 106 69.0192 106 62.875C106 56.7308 101.523 51.75 96 51.75C90.4773 51.75 86 56.7308 86 62.875C86 69.0192 90.4773 74 96 74Z" fill="#E4C1C1"/>
<path d="M30.5 74C24.9771 74 20.5 69.0192 20.5 62.875C20.5 56.7308 24.9771 51.75 30.5 51.75C36.0227 51.75 40.5 56.7308 40.5 62.875C40.5 69.0192 36.0227 74 30.5 74Z" fill="#E4C1C1"/>
<path d="M28.9535 37.966C28.2168 18.4948 43.7523 2.25 63.2375 2.25C82.9195 2.25 98.4613 18.8069 97.717 38.475C97.4833 44.6522 97.3558 49.837 97.46 52.1893C97.644 56.3382 95.6323 68.5807 93.6218 79.5563C91.4103 91.6298 82.0325 101.046 70.0318 103.623C65.8038 104.531 61.4273 104.542 57.1945 103.657C44.8355 101.074 35.2288 91.2675 33.1383 78.8158C31.319 67.9788 29.4803 56.1318 29.42 52.1893C29.384 49.8335 29.1975 44.4095 28.9535 37.966Z" fill="#F6DDD6"/>
<path fill-rule="evenodd" clip-rule="evenodd" d="M49.833 72.505V77.455C49.833 85.075 55.9903 91.25 63.5828 91.25C71.1775 91.25 77.3323 85.075 77.3323 77.455V72.505H49.833Z" fill="#393939"/>
<mask id="mask0_0_3786" style="mask-type:alpha" maskUnits="userSpaceOnUse" x="49" y="72" width="29" height="20">
<path fill-rule="evenodd" clip-rule="evenodd" d="M49.8555 72.5C49.8405 72.7553 49.833 73.0128 49.833 73.2703V78.0918C49.833 85.36 55.9903 91.25 63.5828 91.25C71.1775 91.25 77.3323 85.36 77.3323 78.0918V73.2703C77.3323 73.0128 77.3248 72.7553 77.3098 72.5H49.8555Z" fill="white"/>
</mask>
<g mask="url(#mask0_0_3786)">
<path d="M63.5825 95.6732C68.1623 95.6732 71.8745 93.6457 71.8745 91.1449C71.8745 88.6439 68.1623 86.6167 63.5825 86.6167C59.003 86.6167 55.2905 88.6439 55.2905 91.1449C55.2905 93.6457 59.003 95.6732 63.5825 95.6732Z" fill="#FF6C6C"/>
</g>
<rect x="49.833" y="72.505" width="27.5" height="5.68665" fill="white"/>
<path d="M42.8783 36.7707C46.7099 36.132 50.9423 36.4846 55.1242 37.9605C55.9054 38.2362 56.3151 39.093 56.0394 39.8742C55.7637 40.6554 54.9069 41.0652 54.1257 40.7895C50.426 39.4837 46.7069 39.1739 43.3715 39.7299C42.3863 39.894 41.5733 40.1585 40.9144 40.4903C40.5409 40.6783 40.2476 40.8723 40.0268 41.057C39.9728 41.1021 39.9289 41.142 39.8946 41.1757L39.8647 41.2055C39.8649 41.2049 39.8697 41.1989 39.8791 41.1872C39.3615 41.8341 38.4175 41.9388 37.7707 41.4212C37.1239 40.9035 37.0192 39.9596 37.5368 39.3128C37.6528 39.1679 37.8388 38.976 38.1021 38.7558C38.4974 38.4251 38.9834 38.1037 39.5653 37.8107C40.495 37.3426 41.5967 36.9842 42.8783 36.7707Z" fill="#62360D"/>
<path d="M70.3979 37.8399C73.8881 36.3104 79.098 35.9243 82.8163 36.5656C84.0173 36.7726 85.1147 37.1656 86.1006 37.6908C86.6314 37.9735 87.0988 38.2782 87.5011 38.5863L87.6223 38.6807C87.8146 38.8332 87.9582 38.9606 88.0522 39.0527C88.6437 39.6327 88.6531 40.5824 88.0731 41.1739C87.508 41.7503 86.5918 41.774 85.9981 41.2383L85.938 41.1825L85.9094 41.1571C85.847 41.1025 85.7693 41.0388 85.677 40.9681C85.4006 40.7563 85.0703 40.541 84.6901 40.3386C83.975 39.9576 83.178 39.6722 82.3066 39.522C79.1281 38.9738 74.5025 39.3166 71.6021 40.5876C70.8433 40.9202 69.9587 40.5746 69.6262 39.8159C69.2936 39.0571 69.6392 38.1725 70.3979 37.8399Z" fill="#62360D"/>
<path d="M61.7324 55.0713L65.2686 57.4288C64.0667 59.2315 63.1255 61.9376 63.1255 63.9063C63.1255 65.8045 63.811 66.6025 65.9097 66.6246L66.0005 66.625V70.875C61.3647 70.875 58.8755 68.0747 58.8755 63.9063C58.8755 61.0825 60.0502 57.6547 61.645 55.204L61.7324 55.0713Z" fill="#EBBAAA"/>
<path d="M73.0062 49.6659C76.3499 48.0957 81.1267 48.1475 85.3212 49.5958C86.2348 49.9112 86.7197 50.9076 86.4042 51.8211C86.0888 52.7347 85.0924 53.2196 84.1789 52.9041C80.7841 51.7319 76.9297 51.6902 74.4939 52.834C73.6191 53.2448 72.5768 52.8687 72.166 51.9938C71.7552 51.119 72.1313 50.0767 73.0062 49.6659Z" fill="black"/>
<path d="M39.7562 49.6659C43.0999 48.0957 47.8767 48.1475 52.0712 49.5958C52.9848 49.9112 53.4697 50.9076 53.1542 51.8211C52.8388 52.7347 51.8424 53.2196 50.9289 52.9041C47.5341 51.7319 43.6797 51.6902 41.2439 52.834C40.3691 53.2448 39.3268 52.8687 38.916 51.9938C38.5052 51.119 38.8813 50.0767 39.7562 49.6659Z" fill="black"/>
<path d="M58.0601 49.3752C61.3878 47.7907 64.5949 47.6357 67.7169 49.3346L67.8385 49.4018L66.9834 50.9286C64.4057 49.4851 61.7857 49.5738 58.9399 50.8952L58.8124 50.9552L58.0601 49.3752Z" fill="black"/>
<path d="M67.8782 55.6914L67.4587 50.3037C67.4587 50.3037 70.0717 44.4322 80.5725 43.1932C91.0735 41.9539 95.716 48.4112 95.716 48.4112L94.879 56.1879C94.3495 61.1107 90.1275 64.8012 85.1782 64.6679L77.094 64.4504C72.2332 64.3197 68.2557 60.5394 67.8782 55.6914Z" fill="white" fill-opacity="0.4"/>
<path d="M80.2187 41.9647C83.5813 41.5298 86.7391 41.7715 89.6565 42.5461C91.8243 43.1217 93.6903 43.942 95.2268 44.8646C96.243 45.4748 96.7855 46.6105 96.7065 47.8085L96.7 47.8922L96.4417 50.7677L94.4498 50.5888L94.708 47.7132C94.7522 47.2215 94.5541 46.7936 94.1972 46.5793C92.8145 45.749 91.1196 45.0039 89.1433 44.4791C86.47 43.7693 83.5727 43.5476 80.4753 43.9482C74.9538 44.6623 71.1202 46.379 68.7115 48.4052C68.4789 48.6009 68.3632 48.9275 68.4032 49.3106L68.4113 49.375L68.87 52.484L66.8915 52.7759L66.4327 49.667C66.2754 48.6015 66.6188 47.5521 67.424 46.8747C70.1223 44.6049 74.3124 42.7286 80.2187 41.9647Z" fill="black"/>
<path d="M58.7008 55.4919L59.059 50.3594C59.059 50.3594 56.4485 44.6177 46.1333 43.4839C35.8178 42.3504 31.3123 48.7239 31.3123 48.7239L32.176 56.1879C32.745 61.1062 36.9963 64.7629 41.9445 64.5902L49.5553 64.3244C54.415 64.1547 58.362 60.3427 58.7008 55.4919Z" fill="white" fill-opacity="0.4"/>
<path d="M37.2295 42.8963C40.0833 42.1171 43.1757 41.8572 46.4732 42.257C52.2142 42.9527 56.3235 44.7331 59.0069 46.9209C59.8413 47.6012 60.197 48.6746 60.0286 49.7571L60.0142 49.8426L59.5057 52.6513L57.5377 52.2951L58.0462 49.4863C58.1236 49.0589 58.0051 48.6847 57.743 48.471C55.3493 46.5193 51.5937 44.8921 46.2326 44.2424C43.1998 43.8748 40.367 44.1128 37.7564 44.8257C35.8237 45.3534 34.1669 46.0953 32.8149 46.9196C32.4759 47.1262 32.2833 47.5271 32.3093 47.9918L32.3139 48.0527L32.5934 50.9675L30.6025 51.1584L30.323 48.2436C30.2055 47.0173 30.7401 45.8419 31.7739 45.2119C33.2788 44.2944 35.106 43.4762 37.2295 42.8963Z" fill="black"/>
<path d="M78.963 15.378C67.063 8.77802 61.963 8.25292 47.963 18.378C33.838 14.7531 46.463 5.50295 51.963 2.75295C57.463 0.00294685 69.838 -0.997053 80.213 4.25295C90.588 9.50295 93.838 23.628 78.963 15.378Z" fill="#311E1C"/>
<path d="M41.139 27.5178C47.8732 19.6281 60.6232 16.5031 63.8732 14.2531C65.1235 13.6477 65.1232 4.49173 62.1232 2.12809C57.9982 -1.12191 43.3732 5.25315 36.8732 11.3782C30.3732 17.5032 23.9282 30.25 20.9983 48.6283C19.6233 57.2533 18.6234 84.6283 18.6234 94.3783C18.6234 104.128 19.7484 116.753 18.6234 127.878C17.8558 135.469 16.7498 149.25 16.75 167.875C16.75 172.128 28.6905 173.415 29.3733 170C30.3733 165 29.4998 136.753 30.5 127.878C31.6025 118.097 33.3732 111.253 31.9983 102.128C30.6235 93.0033 26.4983 83.8783 28.1233 78.5033C29.7483 73.1283 29.1233 60.0033 29.3733 51.8783C29.6233 43.7533 34.3102 35.5182 41.139 27.5178Z" fill="#311E1C"/>
<path d="M31.875 131.875C30.275 124.275 27.1668 89.5 26.625 73.25C26.875 73.3333 29.15 73.9 29.75 74C30.35 74.1 30.8333 74.0418 31 74C31.7083 77.125 32.0185 81.787 34.375 86.5C36.25 90.25 39.625 93.9583 41.25 95.625C42.6667 101.167 45.7 114.15 46.5 121.75C47.5 131.25 46.5 161 44.25 161C39.0268 161 35.3515 161.75 34.375 158.625C32.5 152.625 33.875 141.375 31.875 131.875Z" fill="#311E1C"/>
<path d="M85.1253 24.5001C77.7381 17.4084 65.8748 15.8751 64.7498 14.1251C63.5831 10.1251 63.3533 3.40302 68.5001 1.62516C75.3753 -0.749745 93.5001 8.875 99.5001 24.5001C103.972 36.1472 107 63.5 106.875 66C106.75 68.5 102.5 108.75 101.875 115C101.25 121.25 101.5 125.875 101.875 139C102.25 152.125 102.25 163.244 99.5001 164C94.5001 165.375 78.8751 163.375 76.7501 163C74.6251 162.625 76.0001 153.95 76.0001 149.125C76.0001 142.5 80.5001 120.125 82.8751 111.5C84.7003 104.872 93.7501 83.75 94.3751 82C94.8751 80.6 95.6253 75.9167 95.8753 73.875L95.8816 73.877C96.1711 73.9597 96.4668 74.0443 98.7503 73.25C101.625 72.25 104.75 68.875 105.5 65.625C106.25 62.375 105.625 59.125 103.875 56.125C102.475 53.725 98.5001 52.1668 97.3751 51.875C97.3751 49.125 97.2498 45.75 96.8751 43.875C95.9291 39.1435 91.3753 30.5 85.1253 24.5001Z" fill="#311E1C"/>
</svg>
