<svg width="123" height="350" viewBox="0 0 123 350" fill="none" xmlns="http://www.w3.org/2000/svg">
<path d="M57.6455 328.475L58.8325 295.732L41.8495 297.905C43.5157 307.145 41.4502 331.545 39.7112 336.762C37.9722 341.98 23.4079 338.12 43.6515 344.507L53.8412 335.947L57.6455 328.475Z" fill="#F6DDD6"/>
<path d="M61.9572 330.2C61.1415 328.84 60.3267 327.697 59.5365 327.482C59.2635 327.407 58.654 327.312 58.4247 327.482C49.1932 335.565 55.5715 339.165 36.0212 339.455C35.9637 339.4 35.8492 339.4 35.7345 339.455C32.5235 340.635 26.503 342.205 24.0375 343.89C23.5788 344.282 23.1201 346.857 24.0375 347.307C27.4777 349.16 42.2865 350.74 46.7587 348.605C49.9697 347.09 53.4012 337.15 56.1535 334.4C57.587 332.995 59.3642 331.422 59.5365 334.455L59.078 348.157C59.078 348.382 59.3075 348.605 59.5367 348.605H61.3715C61.6582 348.605 61.8302 348.382 61.8302 348.157L62.2885 336.207C62.5005 335.362 62.7727 331.557 61.9572 330.2Z" fill="black"/>
<mask id="mask0_0_3151" style="mask-type:alpha" maskUnits="userSpaceOnUse" x="23" y="323" width="42" height="27">
<path fill-rule="evenodd" clip-rule="evenodd" d="M62.633 329.737C61.773 327.827 60.5688 325.92 59.078 324.067C58.906 323.842 58.6193 323.785 58.39 323.955C49.1585 332.037 46.6065 334.455 36.0213 339.36C35.964 339.305 35.8493 339.305 35.7345 339.36C32.5238 340.54 26.5033 342.112 24.0376 343.795C23.5789 344.187 23.1202 346.762 24.0376 347.212C27.478 349.065 42.2865 350.645 46.759 348.512C49.9698 346.995 52.943 344.74 55.695 341.987C57.1285 340.585 58.906 339.012 59.078 342.045V348.062C59.078 348.287 59.3075 348.512 59.5368 348.512H61.3715C61.6583 348.512 61.8302 348.287 61.8302 348.062V343.795C63.4072 342.582 65.5573 336.472 62.633 329.737Z" fill="white"/>
</mask>
<g mask="url(#mask0_0_3151)">
<path d="M33.9601 338.16L35.0794 338.93C33.883 340.669 34.3705 342.74 36.3754 344.88C38.7611 347.426 42.3761 349.744 44.4722 349.702L44.5501 349.699L44.6174 351.056C42.0476 351.183 38.1446 348.714 35.4787 345.91L35.384 345.809C33.0148 343.281 32.3576 340.572 33.9064 338.239L33.9601 338.16Z" fill="white"/>
<path d="M29.3355 338.16L30.4549 338.93C29.2587 340.669 29.7463 342.741 31.7511 344.88C34.1369 347.426 37.7518 349.744 39.8479 349.702L39.9258 349.699L39.9932 351.056C37.4233 351.183 33.5203 348.714 30.8544 345.91L30.7598 345.809C28.3906 343.281 27.7333 340.572 29.2819 338.239L29.3355 338.16Z" fill="white"/>
</g>
<path d="M73.389 329.09L71.8615 293.845L89.446 299.985C87.9348 309.747 89.7665 332.057 91.5253 337.1C93.284 342.142 108.012 338.412 87.5408 344.585L77.236 336.312L73.389 329.09Z" fill="#F6DDD6"/>
<path d="M69.4043 330.887C70.229 329.575 71.053 328.47 71.8523 328.26C72.1283 328.187 72.7445 328.097 72.9765 328.26C82.312 336.075 75.8618 339.555 95.6323 339.835C95.6903 339.78 95.8063 339.78 95.9223 339.835C99.1693 340.975 105.258 342.492 107.751 344.122C108.215 344.502 108.679 346.99 107.751 347.425C104.272 349.215 89.2965 350.742 84.7738 348.68C81.5268 347.215 78.0565 337.605 75.2733 334.947C73.8238 333.59 72.0263 332.07 71.8523 335L72.3158 348.245C72.3158 348.462 72.084 348.68 71.852 348.68H69.9965C69.7065 348.68 69.5325 348.462 69.5325 348.245L69.069 336.695C68.8548 335.877 68.5795 332.2 69.4043 330.887Z" fill="black"/>
<mask id="mask1_0_3151" style="mask-type:alpha" maskUnits="userSpaceOnUse" x="67" y="324" width="42" height="26">
<path fill-rule="evenodd" clip-rule="evenodd" d="M68.721 330.44C69.5907 328.595 70.8085 326.75 72.316 324.96C72.49 324.743 72.78 324.688 73.0117 324.85C82.3472 332.665 84.928 335.003 95.6325 339.743C95.6905 339.69 95.8065 339.69 95.9225 339.743C99.1695 340.883 105.258 342.403 107.751 344.03C108.215 344.41 108.679 346.898 107.751 347.333C104.272 349.123 89.2967 350.65 84.774 348.588C81.527 347.123 78.5202 344.943 75.737 342.283C74.2875 340.928 72.49 339.408 72.316 342.338V348.155C72.316 348.373 72.0842 348.588 71.8522 348.588H69.9967C69.7067 348.588 69.5327 348.373 69.5327 348.155V344.03C67.9382 342.858 65.764 336.953 68.721 330.44Z" fill="white"/>
</mask>
<g mask="url(#mask1_0_3151)">
<path d="M97.7022 338.558C99.3507 340.849 98.692 343.525 96.2604 346.003C93.596 348.719 89.6542 351.136 87.0364 351.074L86.9412 351.071L87.0053 349.714C89.1244 349.814 92.843 347.546 95.2906 345.052C97.2815 343.023 97.7827 341.068 96.647 339.419L96.5994 339.352L97.7022 338.558Z" fill="white"/>
<path d="M102.379 338.558C104.027 340.849 103.368 343.525 100.937 346.003C98.2727 348.719 94.3305 351.136 91.7128 351.075L91.6177 351.071L91.6818 349.714C93.8007 349.814 97.5197 347.546 99.9671 345.052C101.958 343.023 102.459 341.069 101.323 339.419L101.276 339.352L102.379 338.558Z" fill="white"/>
</g>
<path d="M31.1163 125.087C36.6689 125.087 41.1702 129.588 41.1702 135.14C41.1702 140.638 36.7584 145.104 31.2825 145.193L31.1163 145.194C30.0851 145.194 29.5661 145.372 29.0845 145.759C28.3666 146.336 27.5554 147.487 26.729 149.333L26.6713 149.463C24.8702 153.555 23.7044 158.818 21.9627 169.851L21.1062 175.333L20.8194 177.136C20.662 178.116 20.5137 179.021 20.3654 179.903L20.2289 180.709C20.1382 181.24 20.048 181.76 19.9578 182.27C18.991 187.737 13.7746 191.386 8.30684 190.419C2.83906 189.452 -0.809663 184.236 0.157203 178.768C0.264313 178.163 0.371833 177.54 0.480881 176.896L0.64105 175.94C0.758783 175.23 0.878678 174.494 1.00579 173.7L2.15247 166.386C2.98626 161.1 3.56261 157.811 4.27661 154.476L4.33816 154.19C5.4242 149.169 6.66409 145.005 8.26735 141.363C10.3178 136.704 12.9637 132.919 16.4849 130.088C20.5881 126.789 25.5634 125.087 31.1163 125.087Z" fill="#F6DDD6"/>
<path d="M86.3787 129.881C89.1336 125.06 95.275 123.385 100.096 126.14C110.405 132.031 119.617 149.739 122.165 166.36C123.604 175.748 122.852 184.317 119.277 191.202C114.732 199.957 106.18 204.839 95.108 204.839C89.5554 204.839 85.0541 200.337 85.0541 194.785C85.0541 189.288 89.4658 184.821 94.9417 184.732L95.108 184.731C97.2501 184.731 98.7323 184.377 99.7199 183.813C100.429 183.408 100.966 182.834 101.431 181.936C102.748 179.401 103.138 174.948 102.289 169.407C101.422 163.748 99.3503 157.557 96.6204 152.309C95.3443 149.856 93.9843 147.73 92.6675 146.098C92.0758 145.365 91.5142 144.759 91.007 144.294C90.6432 143.96 90.3487 143.736 90.155 143.619L90.1199 143.598C85.2989 140.843 83.6239 134.702 86.3787 129.881Z" fill="#F6DDD6"/>
<path d="M27.3123 157.966V125.087L45.6538 122.913L50.273 118.022L53.9413 116.391L74.4568 115.712L76.6305 116.799L83.4238 122.913L98.097 125.087L99.999 162.177L96.195 191.116V199.132C96.195 199.132 99.999 205.246 99.999 210.137V309.997H32.2033C32.2033 309.997 29.35 215.979 30.7088 210.137C32.0673 204.295 32.2033 199.132 32.2033 199.132V192.339L27.3123 157.966Z" fill="#EED1C9"/>
<path d="M27.3123 157.966V125.087L45.6538 122.913L50.273 118.022L53.9413 116.391L74.4568 115.712L76.6305 116.799L83.4238 122.913L98.097 125.087L99.999 162.177L96.195 191.116V199.132C96.195 199.132 99.999 205.246 99.999 210.137V309.997H32.2033C32.2033 309.997 29.35 215.979 30.7088 210.137C32.0673 204.295 32.2033 199.132 32.2033 199.132V192.339L27.3123 157.966Z" fill="black" fill-opacity="0.62"/>
<rect x="53.126" y="103.213" width="21.4664" height="27.9877" rx="10.7332" fill="#EED1C9"/>
<path d="M56.1152 124.679L53.1262 119.244V116.799L50.409 118.022L51.9035 125.902L58.8325 134.189L73.6415 132.152L78.9402 123.456L76.6305 116.799L74.5927 115.712V117.342L73.6415 119.652L70.6525 123.456L67.3917 127.532L56.1152 124.679Z" fill="black"/>
<path d="M98.6133 123.271L97.94 125.245L98.6133 161.282L100.97 164.079L103.103 125.245L100.97 122.777L100.185 123.764L98.6133 123.271Z" fill="black" fill-opacity="0.62"/>
<path d="M26.0892 123.864L27.312 125.087V154.569V158.509L27.9915 162.042L27.7197 162.449L20.9265 126.174V123.864H23.372L24.7307 125.087L26.0892 123.864Z" fill="black" fill-opacity="0.62"/>
<path d="M25.546 126.581L27.8555 162.177L25.9535 149.27L24.7307 125.087L25.546 126.581Z" fill="black" fill-opacity="0.62"/>
<path d="M16.7144 125.157L21.0624 125.766L29.1685 161.493L27.9695 162.872L20.6587 156.613L19.7279 149.971L14.0874 145.992L16.9129 136.567L13.8723 133.631L16.7144 125.157Z" fill="black" fill-opacity="0.62"/>
<path d="M107.424 124.176L102.966 126.67L100.25 162.708L101.337 164.349L104.054 161.067V154.366L106.046 151.373L105.603 145.368L107.516 141.023L107.325 133.239L109.422 127.599L107.424 124.176Z" fill="black" fill-opacity="0.62"/>
<path d="M94.4287 124.407L85.7335 123.32C85.7335 123.32 84.7825 133.374 79.8912 139.081C75.0002 144.787 63.8595 151.716 63.8595 151.716C63.8595 151.716 52.1752 145.738 46.8765 139.081C41.5777 132.423 41.7137 123.32 41.7137 123.32L31.2522 124.407C31.2522 124.407 33.5617 131.336 33.5617 137.043C33.5617 142.749 33.8335 151.444 32.339 154.433C30.8445 157.422 27.5837 162.313 27.5837 162.313C27.5837 162.313 32.8825 188.263 35.1922 193.834C37.502 199.404 35.0562 201.985 33.5617 204.159C32.0672 206.333 32.339 210.816 32.339 217.202C32.339 223.588 36.8225 308.775 36.8225 308.775L74.5925 304.427V301.845H78.5327L76.9022 306.735L82.3367 308.775L97.2817 306.735C97.2817 306.735 99.184 219.557 99.184 215.979C99.184 208.235 97.2817 202.801 97.2817 202.801C97.2817 202.801 92.9342 198.181 94.4287 193.834C95.9232 189.486 99.184 157.422 99.184 157.422C99.184 157.422 97.146 153.21 95.9232 149.95C94.7005 146.689 94.4287 141.798 94.4287 137.043V124.407Z" fill="black"/>
<path d="M35.0563 193.29V202.801H34.2411V193.29H35.0563Z" fill="#353333"/>
<path d="M33.4261 193.29V202.801H32.6109V193.29H33.4261Z" fill="#353333"/>
<path d="M36.6868 193.29V202.801H35.8716V193.29H36.6868Z" fill="#353333"/>
<path d="M38.3171 193.426V202.936H37.5019V193.426H38.3171Z" fill="#353333"/>
<path d="M39.9476 193.426V202.936H39.1324V193.426H39.9476Z" fill="#353333"/>
<path d="M41.5778 193.426V202.936H40.7627V193.426H41.5778Z" fill="#353333"/>
<path d="M43.2083 193.426V202.936H42.3932V193.426H43.2083Z" fill="#353333"/>
<path d="M44.8386 193.426V202.936H44.0234V193.426H44.8386Z" fill="#353333"/>
<path d="M46.4688 193.426V202.936H45.6537V193.426H46.4688Z" fill="#353333"/>
<path d="M48.0993 193.29V202.801H47.2841V193.29H48.0993Z" fill="#353333"/>
<path d="M49.7296 193.29V202.801H48.9144V193.29H49.7296Z" fill="#353333"/>
<path d="M51.3601 193.426V202.936H50.5449V193.426H51.3601Z" fill="#353333"/>
<path d="M52.9904 193.426V202.936H52.1752V193.426H52.9904Z" fill="#353333"/>
<path d="M54.6208 193.426V202.936H53.8057V193.426H54.6208Z" fill="#353333"/>
<path d="M56.2511 193.426V202.936H55.4359V193.426H56.2511Z" fill="#353333"/>
<path d="M57.8816 193.426V202.936H57.0664V193.426H57.8816Z" fill="#353333"/>
<path d="M59.5118 193.426V202.936H58.6967V193.426H59.5118Z" fill="#353333"/>
<path d="M61.1421 193.29V202.801H60.3269V193.29H61.1421Z" fill="#353333"/>
<path d="M62.7726 193.29V202.801H61.9574V193.29H62.7726Z" fill="#353333"/>
<path d="M64.4028 193.426V202.936H63.5876V193.426H64.4028Z" fill="#353333"/>
<path d="M66.0331 193.426V202.936H65.2179V193.426H66.0331Z" fill="#353333"/>
<path d="M67.6636 193.426V202.936H66.8484V193.426H67.6636Z" fill="#353333"/>
<path d="M69.2938 193.426V202.936H68.4787V193.426H69.2938Z" fill="#353333"/>
<path d="M70.9243 193.426V202.936H70.1092V193.426H70.9243Z" fill="#353333"/>
<path d="M72.5546 193.426V202.936H71.7394V193.426H72.5546Z" fill="#353333"/>
<path d="M74.1851 193.29V202.801H73.3699V193.29H74.1851Z" fill="#353333"/>
<path d="M75.8153 193.29V202.801H75.0002V193.29H75.8153Z" fill="#353333"/>
<path d="M77.4458 193.426V202.936H76.6306V193.426H77.4458Z" fill="#353333"/>
<path d="M79.0761 193.426V202.936H78.2609V193.426H79.0761Z" fill="#353333"/>
<path d="M80.7066 193.426V202.936H79.8914V193.426H80.7066Z" fill="#353333"/>
<path d="M82.3368 193.426V202.936H81.5217V193.426H82.3368Z" fill="#353333"/>
<path d="M83.9673 193.426V202.936H83.1522V193.426H83.9673Z" fill="#353333"/>
<path d="M85.5976 193.426V202.936H84.7824V193.426H85.5976Z" fill="#353333"/>
<path d="M87.2278 193.29V202.801H86.4127V193.29H87.2278Z" fill="#353333"/>
<path d="M88.8583 193.29V202.801H88.0432V193.29H88.8583Z" fill="#353333"/>
<path d="M90.4886 193.426V202.936H89.6734V193.426H90.4886Z" fill="#353333"/>
<path d="M92.1191 193.426V202.936H91.3039V193.426H92.1191Z" fill="#353333"/>
<path d="M93.7493 193.426V202.936H92.9341V193.426H93.7493Z" fill="#353333"/>
<path d="M95.3798 193.426V202.936H94.5646V193.426H95.3798Z" fill="#353333"/>
<path d="M71.332 312.985L64.267 204.567L44.1592 208.099L32.6107 310.132L71.332 312.985Z" fill="black" fill-opacity="0.33"/>
<path d="M67.256 311.762L72.147 221.414L92.5265 219.784L95.5155 311.762H67.256Z" fill="black" fill-opacity="0.36"/>
<path d="M36.279 198.861C36.7137 197.882 35.464 194.286 34.7845 192.611L94.4287 192.203C94.2927 192.928 94.021 194.73 94.021 196.143C94.021 197.556 96.0137 201.261 97.01 202.936C75.6342 203.48 33.0727 204.404 33.8335 203.752C34.7845 202.936 35.7357 200.083 36.279 198.861Z" fill="black" fill-opacity="0.21"/>
<path d="M65.6255 211.632C66.5259 211.632 67.2558 210.963 67.2558 210.137C67.2558 209.312 66.5259 208.643 65.6255 208.643C64.7251 208.643 63.9951 209.312 63.9951 210.137C63.9951 210.963 64.7251 211.632 65.6255 211.632Z" fill="white" fill-opacity="0.6"/>
<path d="M65.6255 224.403C66.5259 224.403 67.2558 223.734 67.2558 222.908C67.2558 222.083 66.5259 221.414 65.6255 221.414C64.7251 221.414 63.9951 222.083 63.9951 222.908C63.9951 223.734 64.7251 224.403 65.6255 224.403Z" fill="white" fill-opacity="0.6"/>
<path d="M65.6255 224.131C66.5259 224.131 67.2558 223.462 67.2558 222.637C67.2558 221.811 66.5259 221.142 65.6255 221.142C64.7251 221.142 63.9951 221.811 63.9951 222.637C63.9951 223.462 64.7251 224.131 65.6255 224.131Z" fill="white" fill-opacity="0.6"/>
<path d="M65.6255 237.174C66.5259 237.174 67.2558 236.505 67.2558 235.68C67.2558 234.854 66.5259 234.185 65.6255 234.185C64.7251 234.185 63.9951 234.854 63.9951 235.68C63.9951 236.505 64.7251 237.174 65.6255 237.174Z" fill="white" fill-opacity="0.6"/>
<path d="M65.6255 249.945C66.5259 249.945 67.2558 249.276 67.2558 248.451C67.2558 247.625 66.5259 246.956 65.6255 246.956C64.7251 246.956 63.9951 247.625 63.9951 248.451C63.9951 249.276 64.7251 249.945 65.6255 249.945Z" fill="white" fill-opacity="0.6"/>
<path d="M65.6255 262.717C66.5259 262.717 67.2558 262.048 67.2558 261.222C67.2558 260.397 66.5259 259.728 65.6255 259.728C64.7251 259.728 63.9951 260.397 63.9951 261.222C63.9951 262.048 64.7251 262.717 65.6255 262.717Z" fill="white" fill-opacity="0.6"/>
<path d="M103.26 78.2137V97.3705H102.988V78.2137H103.26Z" fill="#DFC5B2"/>
<path d="M102.581 79.1591L102.852 79.1705L101.901 101.724L101.63 101.713L102.581 79.1591Z" fill="#DFC5B2"/>
<path d="M22.2852 78.2137V97.3705H22.0135V78.2137H22.2852Z" fill="#DFC5B2"/>
<path d="M21.6061 79.1591L21.8776 79.1705L20.9265 101.724L20.655 101.713L21.6061 79.1591Z" fill="#DFC5B2"/>
<path d="M27.3355 82.0594C36.2025 82.0594 43.3907 75.2374 43.3907 66.8219C43.3907 58.4065 36.2025 51.5845 27.3355 51.5845C18.4685 51.5845 11.2803 58.4065 11.2803 66.8219C11.2803 75.2374 18.4685 82.0594 27.3355 82.0594Z" fill="#EBBAAA"/>
<path d="M21.8777 79.8441C22.7781 79.8441 23.508 79.1142 23.508 78.2137C23.508 77.3133 22.7781 76.5834 21.8777 76.5834C20.9773 76.5834 20.2473 77.3133 20.2473 78.2137C20.2473 79.1142 20.9773 79.8441 21.8777 79.8441Z" fill="#FDF2EC"/>
<path d="M97.9845 82.0594C106.852 82.0594 114.04 75.2374 114.04 66.8219C114.04 58.4065 106.852 51.5845 97.9845 51.5845C89.1175 51.5845 81.9293 58.4065 81.9293 66.8219C81.9293 75.2374 89.1175 82.0594 97.9845 82.0594Z" fill="#EBBAAA"/>
<path d="M21.8776 43.1375C21.8776 22.4408 39.8218 5.66272 61.9573 5.66272C84.0928 5.66272 102.037 22.4408 102.037 43.1375L99.3198 80.411C96.0875 104.588 75.5438 117.342 61.9573 117.342C48.371 117.342 26.9653 101.768 24.5948 80.411L21.8776 43.1375Z" fill="#F6DDD6"/>
<path d="M35.0009 72.4055C35.9577 71.2494 37.6706 71.0878 38.8267 72.0446C39.9629 72.985 40.1386 74.6555 39.2361 75.8102L39.1876 75.8705L35.9269 79.8105C34.97 80.9666 33.2572 81.1282 32.101 80.1714C30.9648 79.231 30.7892 77.5605 31.6916 76.4058L31.7401 76.3455L35.0009 72.4055Z" fill="#F9D5C5"/>
<path d="M43.6961 72.949C44.653 71.7929 46.3658 71.6313 47.522 72.5881C48.6582 73.5284 48.8338 75.199 47.9314 76.3536L47.8829 76.4139L44.6221 80.3539C43.6653 81.5101 41.9524 81.6716 40.7963 80.7148C39.6601 79.7745 39.4844 78.104 40.3869 76.9493L40.4354 76.889L43.6961 72.949Z" fill="#F9D5C5"/>
<path d="M80.2244 71.8294C81.4779 71.0514 83.118 71.417 83.9252 72.6409L83.9662 72.705L86.4119 76.645C87.2034 77.92 86.8114 79.5952 85.5364 80.3867C84.2829 81.1648 82.6428 80.7991 81.8356 79.5752L81.7946 79.5111L79.3489 75.5711C78.5574 74.2961 78.9494 72.6209 80.2244 71.8294Z" fill="#F9D5C5"/>
<path d="M88.1044 71.8294C89.3578 71.0514 90.998 71.417 91.8051 72.6409L91.8461 72.705L94.2919 76.645C95.0834 77.92 94.6914 79.5952 93.4163 80.3867C92.1629 81.1648 90.5228 80.7991 89.7156 79.5752L89.6746 79.5111L87.2289 75.5711C86.4374 74.2961 86.8294 72.6209 88.1044 71.8294Z" fill="#F9D5C5"/>
<path fill-rule="evenodd" clip-rule="evenodd" d="M50.6302 86.5802V90.9402C50.6302 97.6377 56.0595 103.067 62.757 103.067C69.4542 103.067 74.8835 97.6377 74.8835 90.9402V86.5802H50.6302Z" fill="#393939"/>
<mask id="mask2_0_3151" style="mask-type:alpha" maskUnits="userSpaceOnUse" x="50" y="85" width="25" height="19">
<path fill-rule="evenodd" clip-rule="evenodd" d="M50.6502 85.7772C50.637 86.01 50.6302 86.2445 50.6302 86.4805V90.9402C50.6302 97.6377 56.0595 103.067 62.757 103.067C69.4542 103.067 74.8835 97.6377 74.8835 90.9402V86.4805C74.8835 86.2445 74.8767 86.01 74.8635 85.7772H50.6502Z" fill="white"/>
</mask>
<g mask="url(#mask2_0_3151)">
<path d="M62.757 106.957C66.7959 106.957 70.07 105.173 70.07 102.974C70.07 100.774 66.7959 98.991 62.757 98.991C58.7181 98.991 55.444 100.774 55.444 102.974C55.444 105.173 58.7181 106.957 62.757 106.957Z" fill="#FF6C6C"/>
<rect x="50.6302" y="86.5798" width="24.2533" height="5.00163" fill="white"/>
</g>
<path d="M35.4672 47.5087L51.2404 47.6629C52.1408 47.6717 52.8636 48.4088 52.8548 49.3091C52.8462 50.19 52.1406 50.9008 51.267 50.923L51.2086 50.9235L35.4353 50.7692C34.5349 50.7604 33.8122 50.0234 33.821 49.123C33.8296 48.2422 34.5351 47.5314 35.4087 47.5091L35.4672 47.5087Z" fill="#62360D"/>
<path d="M38.8867 58.6587C39.0282 57.9404 39.7116 57.4668 40.4285 57.5788L40.4824 57.5883L47.5714 58.9848C48.3076 59.1298 48.7868 59.8442 48.6418 60.5804C48.5003 61.2986 47.8169 61.7723 47.1 61.6603L47.0462 61.6508L39.9572 60.2543C39.221 60.1093 38.7417 59.3949 38.8867 58.6587Z" fill="black"/>
<path d="M82.2228 56.9065C82.9604 56.7684 83.6702 57.2544 83.8082 57.992C83.9429 58.7115 83.4836 59.4047 82.7762 59.5663L82.7227 59.5774L75.4189 60.9444C74.6814 61.0824 73.9716 60.5964 73.8336 59.8589C73.6989 59.1393 74.1582 58.4462 74.8655 58.2846L74.9191 58.2735L82.2228 56.9065Z" fill="black"/>
<path d="M45.9228 56.833C47.6979 56.833 49.1417 58.2515 49.1826 60.0168L49.1835 60.0937V65.4425C49.1835 67.2433 47.7236 68.7032 45.9228 68.7032C44.1477 68.7032 42.7038 67.2847 42.6629 65.5195L42.662 65.4425V60.0937C42.662 58.2929 44.1219 56.833 45.9228 56.833Z" fill="black"/>
<path d="M76.8525 56.3483C78.6276 56.3483 80.0715 57.7667 80.1124 59.532L80.1132 59.609V64.9577C80.1132 66.7586 78.6534 68.2185 76.8525 68.2185C75.0774 68.2185 73.6336 66.8 73.5927 65.0347L73.5918 64.9577V59.609C73.5918 57.8081 75.0517 56.3483 76.8525 56.3483Z" fill="black"/>
<path d="M87.363 47.0951C88.2633 47.0804 89.005 47.7984 89.0196 48.6987C89.034 49.5794 88.3472 50.3084 87.4745 50.3534L87.416 50.3554L71.9025 50.6079C71.0022 50.6225 70.2605 49.9046 70.2459 49.0042C70.2315 48.1235 70.9183 47.3945 71.791 47.3495L71.8495 47.3476L87.363 47.0951Z" fill="#62360D"/>
<path d="M59.684 66.2156L64.2605 66.8435L64.2202 67.1244C64.1178 67.8027 63.9924 68.3527 63.6039 69.9189L63.3926 70.7707C63.3542 70.9273 63.3199 71.0687 63.2877 71.2037L63.2317 71.4419C62.8015 73.2897 62.6763 74.4788 62.8393 75.1582C62.8651 75.2661 62.8936 75.3376 62.9194 75.3797C62.9281 75.3938 62.9307 75.3967 62.9387 75.4025C62.9709 75.4259 63.0319 75.4543 63.1385 75.483C63.2976 75.526 63.5077 75.5534 63.7712 75.5585L63.861 75.5594V80.1787C60.9333 80.1787 58.9473 78.7373 58.3473 76.2356C57.9727 74.6735 58.138 72.9905 58.6949 70.5578L58.7933 70.1369C58.8209 70.0208 58.8498 69.9011 58.881 69.7732L59.3324 67.9431C59.5371 67.0961 59.6115 66.7272 59.674 66.2876L59.684 66.2156Z" fill="#EBBAAA"/>
<path d="M20.6068 34.927C23.1887 20.7705 36.2313 5.39122 48.8665 2.29305C61.502 -0.805118 59.7355 1.36868 62.0452 1.3687C64.355 1.36871 61.0793 -1.10346 77.1263 2.29304C93.1732 5.68955 103.737 25.2448 104.89 36.232C105.937 46.209 104.701 49.6665 103.124 52.264C101.086 51.5025 101.729 54.8655 101.765 55.9323C102.309 72.0732 95.7873 46.9652 92.7505 33.134C89.7138 19.3027 78.8923 16.0421 62.0452 16.9931C56.6107 17.2999 52.1273 16.9931 40.9863 24.7373C25.6393 35.4053 25.2483 60.211 22.7808 57.8612C22.0497 57.1647 23.1884 51.6115 20.8787 52.6982C19.3686 50.0493 18.6864 45.456 20.6068 34.927Z" fill="#2D1B14"/>
<path d="M35.5998 34.348C46.5128 20.2761 60.2285 17.8544 62.2938 16.8217C63.457 16.2401 62.7013 8.29435 62.2938 7.99068C60.0117 6.29043 54.2687 7.7572 47.148 11.7532C34.7755 18.6961 20.988 38.6345 22.2271 67.5525C23.2185 90.687 25.9448 96.1992 32.9663 105.16C27.9945 97.2853 28.9738 98.3715 27.046 92.5338C23.7525 82.5608 26.6503 45.8883 35.5998 34.348Z" fill="#2D1B14"/>
<path d="M35.5998 37.8805C46.5128 23.8086 60.2285 21.3868 62.2938 20.3542C63.457 19.7725 62.7013 11.8268 62.2938 11.5231C60.0117 9.8229 54.2687 11.2897 47.148 15.2856C34.7755 22.2285 20.988 42.167 22.2271 71.085C23.2185 94.2195 25.9448 99.7317 32.9663 108.692C27.9945 100.818 28.9738 101.904 27.046 96.0662C23.7525 86.0932 26.6503 49.4207 35.5998 37.8805Z" fill="#2D1B14"/>
<path d="M33.1163 32.0685C44.6728 18.4253 59.059 16.1921 61.2313 15.2032C62.4548 14.6462 61.7353 6.8754 61.3113 6.57475C58.9368 4.89138 52.9088 6.2688 45.415 10.104C32.3945 16.7677 19.0727 36.101 18.8107 64.3817C18.6748 79.0462 18.0094 80.6332 25.726 92.52C23.2299 85.4607 20.9965 78.9194 21.0383 74.406C21.0797 69.9324 23.639 43.2572 33.1163 32.0685Z" fill="#2D1B14"/>
<path d="M90.668 36.7377C83.799 24.3704 65.4468 21.8982 63.4565 20.1574C62.3998 19.2332 63.0598 10.9511 63.8528 10.7532C69.401 9.36802 85.4218 15.2852 92.5548 26.0217C99.688 36.7582 102.697 61.5027 101.917 74.9532C101.619 80.0835 98.406 89.7622 96.1958 92.3437C97.756 88.4037 99.3135 83.589 99.5183 79.5477C100.487 60.4157 97.5368 49.105 90.668 36.7377Z" fill="#2D1B14"/>
<path d="M103.124 80.3876C104.024 80.3876 104.754 79.6576 104.754 78.7572C104.754 77.8568 104.024 77.1268 103.124 77.1268C102.224 77.1268 101.494 77.8568 101.494 78.7572C101.494 79.6576 102.224 80.3876 103.124 80.3876Z" fill="#FDF2EC"/>
<path d="M39.7567 120.429L55.4355 121.31L50.6055 164.322L40.7725 163.77L39.7567 120.429Z" fill="#968F8B"/>
<path d="M43.4802 135.548V140.711V162.042H46.3335L49.0507 136.092L43.4802 135.548Z" fill="#EEC981"/>
<path d="M39.9472 128.619V125.766H54.757V129.163C54.757 129.163 52.719 132.32 47.0127 132.152C43.3172 132.043 40.7172 129.57 39.9472 128.619Z" fill="#EEC981"/>
<path d="M42.8248 163.861L48.6513 164.291L48.321 168.763L46.5598 168.633L46.2495 172.833L43.9463 172.663L44.2563 168.462L42.4948 168.332L42.8248 163.861Z" fill="#292929"/>
<path d="M56.177 122.005C55.9135 126.7 51.8128 130.287 47.018 130.018C42.2235 129.749 38.5503 125.725 38.8138 121.03C38.9843 117.997 39.7478 118.585 40.1553 118.819C40.563 119.054 40.699 112.027 41.2425 110.532C41.786 109.037 44.2313 108.222 48.5788 108.63C52.9265 109.037 55.6438 110.532 55.6438 112.298C55.6438 114.064 55.1005 120.418 55.3722 120.314C55.6437 120.211 56.3498 118.927 56.177 122.005Z" fill="#292929"/>
<mask id="mask3_0_3151" style="mask-type:alpha" maskUnits="userSpaceOnUse" x="38" y="108" width="19" height="23">
<path fill-rule="evenodd" clip-rule="evenodd" d="M56.177 122.005C55.9135 126.7 51.8128 130.287 47.018 130.018C42.2235 129.749 38.5503 125.725 38.8138 121.03C38.9843 117.997 39.7478 118.585 40.1553 118.819C40.563 119.054 40.699 112.027 41.2425 110.532C41.786 109.037 44.2313 108.222 48.5788 108.63C52.9265 109.037 55.6438 110.532 55.6438 112.298C55.6438 114.064 55.1005 120.418 55.3722 120.314C55.6437 120.211 56.3498 118.927 56.177 122.005Z" fill="white"/>
</mask>
<g mask="url(#mask3_0_3151)">
<path fill-rule="evenodd" clip-rule="evenodd" d="M43.8838 108.68L43.6202 108.615L38.3214 129.809L38.5851 129.875L43.8838 108.68ZM42.5249 108.68L42.2611 108.615L38.5926 123.424L38.8564 123.489L42.5249 108.68Z" fill="black"/>
<path fill-rule="evenodd" clip-rule="evenodd" d="M45.9201 107.867L45.6574 107.797L40.2234 128.449L40.4861 128.518L45.9201 107.867ZM47.2798 107.865L47.0162 107.799L41.7174 128.994L41.9811 129.06L47.2798 107.865Z" fill="black"/>
<path fill-rule="evenodd" clip-rule="evenodd" d="M49.1808 107.867L48.9182 107.797L42.8049 130.894L43.0676 130.964L49.1808 107.867ZM50.5406 107.865L50.2769 107.8L44.2989 131.984L44.5626 132.049L50.5406 107.865Z" fill="black"/>
<path fill-rule="evenodd" clip-rule="evenodd" d="M52.5776 107.867L52.3149 107.797L46.2017 130.894L46.4643 130.964L52.5776 107.867ZM53.9374 107.865L53.6736 107.8L47.6956 131.984L47.9594 132.049L53.9374 107.865Z" fill="black"/>
<path fill-rule="evenodd" clip-rule="evenodd" d="M55.5671 107.867L55.3044 107.797L49.1912 130.894L49.4538 130.964L55.5671 107.867ZM56.9269 107.864L56.6631 107.799L50.6851 131.983L50.9489 132.048L56.9269 107.864Z" fill="black"/>
<path fill-rule="evenodd" clip-rule="evenodd" d="M59.0996 107.867L58.8369 107.797L52.7234 130.894L52.9861 130.964L59.0996 107.867ZM60.4592 107.864L60.1954 107.799L54.2174 131.983L54.4812 132.048L60.4592 107.864Z" fill="black"/>
<path fill-rule="evenodd" clip-rule="evenodd" d="M63.4851 113.135L39.3011 107.157L39.2359 107.421L63.4199 113.399L63.4851 113.135ZM62.4003 114.63L39.3033 108.517L39.2337 108.779L62.3307 114.893L62.4003 114.63Z" fill="black"/>
<path fill-rule="evenodd" clip-rule="evenodd" d="M63.4851 116.124L39.3011 110.146L39.2359 110.41L63.4199 116.388L63.4851 116.124ZM62.4003 117.619L39.3033 111.506L39.2337 111.769L62.3307 117.882L62.4003 117.619Z" fill="black"/>
<path fill-rule="evenodd" clip-rule="evenodd" d="M63.4851 119.113L39.3011 113.135L39.2359 113.399L63.4199 119.377L63.4851 119.113ZM62.4003 120.608L39.3033 114.495L39.2337 114.757L62.3307 120.871L62.4003 120.608Z" fill="black"/>
<path fill-rule="evenodd" clip-rule="evenodd" d="M63.4851 122.374L39.3011 116.396L39.2359 116.659L63.4199 122.637L63.4851 122.374ZM62.4003 123.869L39.3033 117.755L39.2337 118.018L62.3307 124.131L62.4003 123.869Z" fill="black"/>
<path fill-rule="evenodd" clip-rule="evenodd" d="M61.3114 125.091L37.1274 119.113L37.0622 119.377L61.2462 125.355L61.3114 125.091ZM60.2265 126.586L37.1295 120.473L37.06 120.735L60.157 126.849L60.2265 126.586Z" fill="black"/>
<path fill-rule="evenodd" clip-rule="evenodd" d="M61.3114 128.08L37.1274 122.102L37.0622 122.366L61.2462 128.344L61.3114 128.08ZM60.2265 129.575L37.1295 123.462L37.06 123.724L60.157 129.838L60.2265 129.575Z" fill="black"/>
<path fill-rule="evenodd" clip-rule="evenodd" d="M61.3114 131.069L37.1274 125.091L37.0622 125.355L61.2462 131.333L61.3114 131.069ZM60.2265 132.564L37.1295 126.451L37.06 126.713L60.157 132.827L60.2265 132.564Z" fill="black"/>
</g>
<path d="M33.2438 143.187C36.7538 138.884 43.0871 138.242 47.3896 141.752C51.6921 145.262 52.3346 151.595 48.8246 155.898L48.7064 156.044C46.6716 158.567 39.5986 167.964 39.479 168.119L39.0582 168.664C35.3619 173.432 32.2091 177.118 28.8581 180.423C24.3502 184.87 19.7627 188.302 14.8062 190.674C9.79792 193.072 3.79427 190.956 1.39671 185.947C-0.976872 180.989 1.07371 175.055 5.97453 172.611L6.12391 172.538C11.2816 170.069 16.3646 165.107 23.1345 156.385L23.5757 155.813C24.056 155.173 31.1753 145.723 33.2438 143.187Z" fill="#F6DDD6"/>
</svg>
