<svg width="129" height="341" viewBox="0 0 129 341" fill="none" xmlns="http://www.w3.org/2000/svg">
<path d="M59.6199 250.285C74.5237 250.285 86.6058 244.563 86.6058 237.501C86.6058 230.443 74.5237 224.719 59.6199 224.719C44.7159 224.719 32.6338 230.443 32.6338 237.501C32.6338 244.563 44.7159 250.285 59.6199 250.285Z" fill="#1B1E21"/>
<path d="M79.5237 280.194C82.9732 280.194 85.7761 282.963 85.8318 286.399L85.8326 286.503V325.759C85.8326 329.243 83.008 332.068 79.5237 332.068C76.0742 332.068 73.2713 329.299 73.2156 325.863L73.2148 325.759V286.503C73.2148 283.019 76.0394 280.194 79.5237 280.194Z" fill="#EBBAAA"/>
<path d="M47.0471 280.232C50.4762 279.857 53.5632 282.305 53.9919 285.714L54.0041 285.818L57.9131 321.587C58.2916 325.051 55.7906 328.166 52.3268 328.544C48.8978 328.919 45.8107 326.472 45.382 323.062L45.3699 322.958L41.4609 287.189C41.0824 283.725 43.5834 280.61 47.0471 280.232Z" fill="#EBBAAA"/>
<path d="M57.7167 319.001C50.8003 320.403 46.1894 319.585 44.982 319.001L45.683 326.829L53.0435 330.334L58.6514 325.661C58.4177 323.675 57.9504 321.338 57.7167 319.001Z" fill="#3F4248"/>
<path d="M73.1386 319.235C80.0551 320.637 84.666 319.819 85.8733 319.235V327.063L78.5129 330.568L72.9049 325.894C73.1386 323.908 72.9049 321.572 73.1386 319.235Z" fill="#3F4248"/>
<path d="M30.6116 223.199H62.1563L60.988 311.173V316.83H39.4909L38.5296 309.657L30.6116 223.199Z" fill="#1B1E21"/>
<path d="M61.8559 224.606H93.5076L92.1264 310.589L90.7244 317.132L70.3956 318.534L69.6336 311.524L61.8559 224.606Z" fill="#1B1E21"/>
<path d="M38.0889 315.263H61.4554V320.871H38.7397L38.0889 315.263Z" fill="#0A0A0B"/>
<path d="M69.6336 315.73H91.5981L90.6635 320.871H70.5082L69.6336 315.73Z" fill="#0A0A0B"/>
<path d="M112.433 335.592C112.433 328.418 107.824 327.542 100.311 325.084C96.6316 323.88 92.8767 322.831 89.0665 322.2C86.6722 321.803 86.0289 323.908 81.8229 323.908C78.0721 323.908 73.3928 322.051 72.4238 321.649C72.3023 321.597 72.1581 321.553 72.0613 321.642C72.038 321.663 72.0184 321.691 72.0036 321.719C71.5557 322.64 69.205 327.659 69.205 331.675C69.205 334.748 68.9419 337.769 69.7892 339.33C70.1715 340.034 72.5584 340.419 73.3598 340.419H111.133C111.851 340.419 112.433 336.309 112.433 335.592Z" fill="#678EAB"/>
<mask id="mask0_0_6525" style="mask-type:alpha" maskUnits="userSpaceOnUse" x="69" y="320" width="44" height="21">
<path fill-rule="evenodd" clip-rule="evenodd" d="M112.433 335.591C112.433 331.907 111.217 329.883 109.015 328.453C98.5398 321.653 84.9571 321.333 72.4763 320.871C72.3742 320.871 72.0483 321.628 72.0036 321.719C71.5557 322.639 69.205 327.659 69.205 331.675C69.205 334.748 68.9419 337.769 69.7892 339.33C70.1715 340.033 72.5584 340.419 73.3598 340.419H111.133C111.851 340.419 112.433 336.309 112.433 335.591Z" fill="white"/>
</mask>
<g mask="url(#mask0_0_6525)">
<path d="M106.942 330.685C110.564 330.685 111.576 328.582 111.966 328.231C112.667 329.049 112.082 332.344 112.55 333.839C113.017 335.335 112.355 336.8 111.966 337.344L79.3694 338.863C79.1746 335.748 78.9021 329.516 79.3694 329.516C79.9536 329.516 83.6922 324.493 85.6784 324.376C87.2673 324.282 94.9859 326.285 98.6468 327.297C98.1794 327.764 97.4083 330.147 97.128 331.269C96.7775 332.671 96.6606 332.671 97.9458 333.021C99.2309 333.372 99.4646 330.685 100.867 330.685H106.942Z" fill="#35455F"/>
<path d="M82.1734 329.633C81.6126 328.699 72.5932 327.374 68.9714 326.946L67.3357 336.994L85.5616 338.045C84.6657 335.631 82.7342 330.568 82.1734 329.633Z" fill="#071427"/>
<path d="M91.7537 336.877C97.7121 336.643 102.853 338.045 109.395 336.643C121.079 335.358 115.076 336.122 118.041 341.805H72.2231C67.6862 340.732 66.181 334.122 69.5555 334.657C76.916 335.825 87.1947 337.057 91.7537 336.877Z" fill="#D1CEC8"/>
<path d="M67.8031 336.643C69.392 337.297 90.9359 337.344 91.6369 336.877C90.0012 336.526 77.963 335.162 75.2803 335.007C71.1912 334.774 69.6334 334.463 67.8031 334.54C67.1409 335.007 66.2141 335.989 67.8031 336.643Z" fill="#DEDEDE"/>
<path d="M89.1905 321.424C89.53 321.218 89.9727 321.326 90.1793 321.665C90.3858 322.005 90.278 322.447 89.9385 322.654L89.7293 322.776C89.4532 322.936 89.0053 323.192 88.8147 323.306L88.7015 323.375L88.5512 323.47L93.6553 322.296C94.2991 322.148 94.7782 322.869 94.412 323.402L94.388 323.435L92.9915 325.258L98.6836 323.639C99.3856 323.439 99.896 324.286 99.4155 324.813L99.3873 324.842L96.2807 327.924C95.9986 328.204 95.5429 328.202 95.263 327.92C94.9943 327.649 94.9852 327.219 95.2345 326.937L95.267 326.902L96.3907 325.787L91.297 327.236C90.6436 327.422 90.1281 326.686 90.5051 326.139L90.5288 326.107L92.0295 324.147L86.8913 325.329C86.4545 325.43 86.0371 325.112 86.0115 324.671L86.0102 324.628C86.0102 323.64 86.6916 322.926 87.9471 322.149L88.1021 322.055C88.4018 321.877 89.0813 321.491 89.1905 321.424Z" fill="#0980D0"/>
<path fill-rule="evenodd" clip-rule="evenodd" d="M87.6191 319.128C87.6561 317.04 89.0374 315.497 90.8567 315.497C91.7551 315.497 92.4867 315.871 92.9916 316.561C93.4763 317.222 93.7354 318.149 93.7354 319.214C93.7354 320.198 93.1505 321.083 92.1521 321.748C91.2674 322.337 90.131 322.691 89.1775 322.691C88.7203 322.691 88.3844 322.609 88.1473 322.442C87.9274 322.289 87.7852 322.064 87.7023 321.747C87.6302 321.472 87.6024 321.137 87.601 320.651L87.6012 320.494L87.6161 319.554L87.6191 319.128ZM91.8307 317.412C91.595 317.09 91.2939 316.936 90.8567 316.936C89.8516 316.936 89.0576 317.839 89.0576 319.214L89.056 319.507L89.042 320.366C89.0408 320.455 89.0403 320.521 89.0403 320.588L89.042 320.804C89.0453 320.976 89.0534 321.112 89.0657 321.217L89.0695 321.249L89.1039 321.25L89.1776 321.252C89.8429 321.252 90.7026 320.984 91.3544 320.55C91.9849 320.13 92.2961 319.659 92.2961 319.214C92.2961 318.437 92.12 317.806 91.8307 317.412Z" fill="#0980D0"/>
<path fill-rule="evenodd" clip-rule="evenodd" d="M84.1018 318.638C83.492 318.911 83.1074 319.384 82.9699 319.999C82.838 320.586 82.9388 321.285 83.2567 322.002C83.5507 322.66 84.2112 323.076 85.0876 323.219C85.863 323.347 86.7401 323.241 87.3874 322.954L87.4556 322.922C87.6765 322.816 87.8337 322.702 87.9405 322.576L87.971 322.538L87.9851 322.519L88.0027 322.493L88.0176 322.463L88.0453 322.416C88.0626 322.385 88.0679 322.37 88.0806 322.334L88.0806 322.334L88.0942 322.291L88.1053 322.247L88.1153 322.19C88.1287 322.095 88.1263 321.991 88.1079 321.876C88.0771 321.686 88.0061 321.474 87.8843 321.19L87.8141 321.031L87.4532 320.251C87.439 320.22 87.4249 320.188 87.409 320.153C86.7717 318.722 85.3512 318.083 84.1018 318.638ZM86.8066 321.971L86.697 321.949L86.7025 321.924L86.7201 321.864L86.7365 321.827L86.7741 321.747L86.8033 321.698L87.0763 321.466L87.0818 321.464C87.152 321.44 87.2499 321.416 87.4001 321.377L86.8066 321.971ZM86.0944 320.738L86.0638 320.672C85.7308 319.987 85.1601 319.742 84.6876 319.952C84.4957 320.038 84.4131 320.14 84.3744 320.313C84.3157 320.574 84.3721 320.966 84.5716 321.415C84.6433 321.576 84.8818 321.726 85.3211 321.798C85.7055 321.862 86.1423 321.835 86.4991 321.742L86.5491 321.728L86.4654 321.541L86.2225 321.019L86.0944 320.738Z" fill="#0980D0"/>
</g>
<path d="M18.6947 335.592C18.6947 328.418 23.3039 327.542 30.8163 325.084C34.4958 323.88 38.2511 322.831 42.0612 322.2C44.4556 321.803 45.0988 323.908 49.3048 323.908C53.0556 323.908 57.7349 322.051 58.704 321.649C58.8255 321.597 58.9694 321.553 59.0661 321.642C59.0895 321.663 59.1094 321.691 59.1238 321.719C59.5718 322.64 61.9227 327.659 61.9227 331.675C61.9227 334.748 62.1858 337.769 61.3385 339.33C60.9562 340.034 58.5694 340.419 57.7677 340.419H19.9945C19.2767 340.419 18.6947 336.309 18.6947 335.592Z" fill="#678EAB"/>
<mask id="mask1_0_6525" style="mask-type:alpha" maskUnits="userSpaceOnUse" x="18" y="320" width="44" height="21">
<path fill-rule="evenodd" clip-rule="evenodd" d="M18.6947 335.591C18.6947 331.907 19.9111 329.883 22.1127 328.453C32.588 321.653 46.1704 321.333 58.6514 320.871C58.7533 320.871 59.0792 321.628 59.1238 321.719C59.5718 322.639 61.9227 327.659 61.9227 331.675C61.9227 334.748 62.1858 337.769 61.3385 339.33C60.9562 340.033 58.5694 340.419 57.7677 340.419H19.9945C19.2767 340.419 18.6947 336.309 18.6947 335.591Z" fill="white"/>
</mask>
<g mask="url(#mask1_0_6525)">
<path d="M24.1859 330.685C20.564 330.685 19.5515 328.582 19.162 328.231C18.461 329.049 19.0452 332.344 18.5779 333.839C18.1106 335.335 18.7726 336.8 19.162 337.344L51.7583 338.863C51.9529 335.748 52.2256 329.516 51.7583 329.516C51.1741 329.516 47.4355 324.493 45.4493 324.376C43.8604 324.282 36.1418 326.285 32.4809 327.297C32.9483 327.764 33.7194 330.147 33.9998 331.269C34.3503 332.671 34.4671 332.671 33.1819 333.021C31.8968 333.372 31.6631 330.685 30.2611 330.685H24.1859Z" fill="#35455F"/>
<path d="M48.9543 329.633C49.5151 328.699 58.5346 327.374 62.1564 326.946L63.792 336.994L45.5662 338.045C46.4618 335.631 48.3935 330.568 48.9543 329.633Z" fill="#071427"/>
<path d="M39.3741 336.877C33.4156 336.643 28.275 338.045 21.7324 336.643C10.0492 335.358 16.0516 336.122 13.0868 341.805H58.9047C63.4415 340.732 64.9468 334.122 61.5722 334.657C54.2118 335.825 43.9329 337.057 39.3741 336.877Z" fill="#D1CEC8"/>
<path d="M63.3247 336.643C61.7357 337.297 40.1919 337.344 39.4909 336.877C41.1265 336.526 53.1647 335.162 55.8474 335.007C59.9365 334.774 61.4944 334.463 63.3247 334.54C63.9866 335.007 64.9136 335.989 63.3247 336.643Z" fill="#DEDEDE"/>
<path d="M40.9482 321.665C41.1547 321.326 41.5975 321.218 41.937 321.424L42.3019 321.636C42.5816 321.797 42.9388 322.002 43.092 322.095C44.4041 322.893 45.1175 323.617 45.1175 324.628C45.1175 325.076 44.7137 325.412 44.2786 325.338L44.2364 325.329L39.0982 324.147L40.599 326.107C41.012 326.646 40.5173 327.396 39.8698 327.246L39.8307 327.236L34.7367 325.787L35.8605 326.903C36.1313 327.171 36.1438 327.602 35.8967 327.886L35.8645 327.92C35.5957 328.191 35.1651 328.204 34.8814 327.956L34.8468 327.924L31.7404 324.842C31.2223 324.328 31.7101 323.468 32.4046 323.629L32.4442 323.639L38.1359 325.258L36.7397 323.435C36.338 322.91 36.7957 322.175 37.4324 322.288L37.4724 322.296L42.5762 323.47L42.4262 323.375L42.2767 323.284C41.9928 323.116 41.3202 322.734 41.189 322.654C40.8495 322.447 40.7416 322.005 40.9482 321.665Z" fill="#0980D0"/>
<path fill-rule="evenodd" clip-rule="evenodd" d="M38.1354 316.563C38.6407 315.872 39.3724 315.497 40.2709 315.497C42.1152 315.497 43.5095 317.082 43.5095 319.214L43.5109 319.488L43.5263 320.476L43.5261 320.747C43.5212 321.182 43.4925 321.49 43.4253 321.747C43.3425 322.063 43.2007 322.288 42.9812 322.442C42.7423 322.609 42.4071 322.691 41.9503 322.691C40.9969 322.691 39.8605 322.337 38.9755 321.748C37.9771 321.083 37.3924 320.198 37.3924 319.214C37.3924 318.149 37.6514 317.221 38.1354 316.563ZM42.0693 319.138C42.0406 317.806 41.2575 316.936 40.2709 316.936C39.8336 316.936 39.5327 317.09 39.2963 317.413C39.0077 317.806 38.8317 318.436 38.8317 319.214C38.8317 319.659 39.1428 320.13 39.7731 320.55C40.4251 320.984 41.2849 321.252 41.9502 321.252C41.9852 321.252 42.0172 321.251 42.0461 321.25L42.0577 321.249L42.0618 321.217C42.0761 321.096 42.0848 320.933 42.087 320.72L42.0875 320.647C42.0875 320.604 42.0875 320.562 42.0872 320.518L42.0734 319.648L42.0693 319.138Z" fill="#0980D0"/>
<path fill-rule="evenodd" clip-rule="evenodd" d="M43.5339 320.555L43.3329 320.988C43.3194 321.018 43.307 321.045 43.2952 321.072L43.2777 321.111C43.1352 321.434 43.0537 321.668 43.0201 321.874C43.0012 321.991 42.9988 322.095 43.0122 322.19L43.0236 322.254C43.0268 322.28 43.0299 322.298 43.0392 322.322L43.0532 322.351L43.0572 322.362C43.065 322.383 43.0719 322.398 43.0871 322.424L43.1307 322.497L43.1291 322.499C43.2424 322.669 43.4365 322.818 43.7393 322.953C44.3876 323.241 45.2648 323.347 46.0411 323.219C46.9166 323.075 47.5773 322.659 47.8702 322.003C48.1889 321.285 48.2898 320.585 48.1574 319.998C48.0201 319.384 47.6357 318.91 47.0269 318.639C45.7977 318.092 44.4039 318.701 43.7516 320.08L43.5339 320.555ZM43.7334 321.383L44.3006 321.686L44.3765 321.803C44.3844 321.816 44.3911 321.827 44.3968 321.837L44.4009 321.846L44.4054 321.857L44.4279 321.935C44.4289 321.94 44.4296 321.944 44.4305 321.949L44.3716 321.96L43.7334 321.383ZM44.6432 321.583L44.5783 321.728L44.6282 321.742C44.958 321.827 45.3557 321.857 45.7179 321.811L45.8076 321.798C46.2458 321.726 46.4842 321.576 46.5552 321.417C46.7556 320.966 46.812 320.574 46.753 320.312C46.7143 320.139 46.6319 320.038 46.4411 319.953C45.9528 319.736 45.3609 320.002 45.0331 320.738L44.6432 321.583Z" fill="#0980D0"/>
</g>
<path d="M16.3015 158.963C18.4734 154.711 23.6813 153.025 27.9335 155.197C32.1858 157.369 33.8722 162.576 31.7003 166.829C28.5272 173.041 26.5174 183.117 26.9008 192.36C27.3102 202.228 30.2707 209.725 35.1931 213.407L35.3428 213.518C39.2056 216.324 40.0617 221.731 37.2549 225.594C34.4482 229.457 29.0415 230.313 25.1787 227.506C15.2056 220.259 10.2363 207.825 9.62449 193.076C9.12193 180.961 11.7208 167.931 16.3015 158.963Z" fill="#EBBAAA"/>
<path d="M95.2303 150.053C99.3891 147.707 104.662 149.177 107.008 153.335C112.942 163.855 116.583 178.34 116.895 191.862C117.056 198.843 116.323 205.345 114.643 210.897C112.637 217.522 109.289 222.826 104.406 226.213C100.483 228.935 95.096 227.961 92.3744 224.038C89.68 220.154 90.6078 214.835 94.4333 212.089L94.5501 212.006C97.5976 209.892 99.8441 202.471 99.6084 192.261C99.359 181.462 96.4159 169.752 91.9479 161.831C89.6019 157.672 91.0715 152.399 95.2303 150.053Z" fill="#EBBAAA"/>
<path d="M32.3773 140.976C32.5724 132.934 39.0104 126.441 47.0496 126.179L65.8185 125.565C67.3478 125.516 68.8797 125.596 70.3945 125.806L88.7155 128.339C96.7982 129.457 102.55 136.764 101.736 144.883L98.2698 179.439L100.008 228.946C100.026 229.37 79.8722 228.968 79.4483 228.946H47.0496L28.6347 226.167C28.2277 226.146 27.9169 225.792 27.9508 225.385L31.549 175.135L32.3773 140.976Z" fill="#1D1E1F"/>
<path d="M62.8843 146.504C72.1954 146.504 79.7432 138.956 79.7432 129.645C79.7432 120.334 72.1954 112.786 62.8843 112.786C53.5733 112.786 46.0252 120.334 46.0252 129.645C46.0252 138.956 53.5733 146.504 62.8843 146.504Z" fill="#363535"/>
<rect x="53.7452" y="111.507" width="20.5625" height="27.8061" rx="8.85846" fill="#EBBAAA"/>
<rect x="23.8691" y="123.892" width="34.5151" height="84.0358" rx="17.2575" transform="rotate(16.5 23.8691 123.892)" fill="#1E4295"/>
<path d="M19.3661 223.029C15.8538 220.133 6.95554 204.573 4.90887 197.613L27.7914 185.628C29.971 194.695 35.6444 204.919 39.799 215.794L39.7693 215.814C35.6706 218.583 23.746 226.64 19.3661 223.029Z" fill="#1E4295"/>
<path d="M18.2366 221.938L24.9239 217.869C29.5151 215.076 35.7682 212.092 38.1638 210.634L39.6987 215.854C37.338 217.519 31.3894 221.348 26.4805 223.35C21.5718 225.352 18.9393 223.243 18.2366 221.938Z" fill="#172F72"/>
<path d="M10.2828 185.345L27.2236 190.486L8.76398 188.734L10.2828 185.345Z" fill="#172F72"/>
<path d="M14.4888 192.122L27.5741 191.421L16.2413 195.042L14.4888 192.122Z" fill="#172F72"/>
<rect width="36.9155" height="90.7339" rx="18.4578" transform="matrix(-0.96141 0.275121 0.275121 0.96141 103.29 122.704)" fill="#1E4295"/>
<path d="M65.6619 188.383C65.4764 172.691 60.2876 151.149 60.2876 143.636C58.652 143.636 57.0163 143.403 55.848 142.702C55.9111 136.663 56.3382 130.47 53.7719 124.826L33.7879 128.675C30.6751 132.959 25.1984 145.758 24.3196 170.273C23.621 189.756 24.3432 202.884 24.3196 215.488C24.3133 218.744 28.9766 221.138 28.9766 229.9C32.822 231.012 53.027 233.854 65.6619 229.9C67.9985 214.553 65.9367 211.613 65.6619 188.383Z" fill="#173988"/>
<path d="M47.6692 226.12C42.4351 226.494 33.182 224.835 27.8077 222.965V230.91C30.8454 233.247 38.6731 233.013 42.9959 233.013C48.3702 233.013 57.0158 234.649 66.3624 233.247L65.8951 226.12C62.6238 226.821 52.9033 225.746 47.6692 226.12Z" fill="#172F72"/>
<path d="M111.835 223.062C115.11 219.9 121.884 208.318 123.379 201.219L100.505 186.436C99.043 195.646 91.9697 202.281 88.6799 213.448C92.9537 215.871 107.742 227.014 111.835 223.062Z" fill="#1E4295"/>
<path d="M103.139 216.7C100.034 215.131 92.349 210.852 89.8471 209.587C89.0279 209.74 88.8512 212.592 90.1399 214.186C91.7506 216.179 100.976 221.236 106.191 223.35C110.364 225.041 112.288 223.203 112.728 222.073C110.697 220.653 107.622 218.967 103.139 216.7Z" fill="#172F72"/>
<path d="M116.484 183.242L99.543 188.383L118.003 186.631L116.484 183.242Z" fill="#172F72"/>
<path d="M113.329 190.72L100.244 190.019L111.577 193.64L113.329 190.72Z" fill="#172F72"/>
<path d="M63.7926 185.579C63.7926 163.099 66.2456 150.534 66.2456 143.264C67.5308 143.264 68.8042 143.615 70.5684 143.031C71.4056 136.815 73.6682 129.706 76.0324 124.359L89.595 126.546C92.9687 127.09 95.9297 129.052 96.6797 132.386C98.342 139.776 99.2963 153.577 100.814 171.588C102.347 189.785 101.586 205.101 102.347 217.591C102.585 221.487 97.2356 227.839 97.4403 230.378C90.7203 231.335 77.0839 234.204 65.1946 230.378C65.1946 215.074 63.7926 208.059 63.7926 185.579Z" fill="#173988"/>
<path d="M80.3823 227.405C85.6164 227.779 95.8042 227.288 100.244 223.666L100.711 231.845C96.0378 233.013 89.612 233.948 87.8596 233.948C80.2916 233.948 73.8397 235.116 64.4931 233.714V225.886C67.7644 226.587 75.1482 227.031 80.3823 227.405Z" fill="#172F72"/>
<path d="M61.3386 217.357C61.3386 211.002 60.3649 171.559 58.6515 152.866L56.198 143.052L61.2216 143.286C61.6214 146.526 62.5069 148.777 63.9089 155.553L66.2453 143.286L70.2176 143.052C70.2176 147.414 68.4654 157.165 68.4654 161.278V234.181L61.3386 233.714V217.357Z" fill="#143481"/>
<path d="M62.5078 155.25L65.3101 155.155L65.3666 156.848C66.2731 184.49 66.8428 224.829 66.2601 233.671L66.2417 233.934L63.4454 233.727C64.0538 225.514 63.4641 183.907 62.536 156.089L62.5078 155.25Z" fill="#122865"/>
<path d="M89.4226 127.864C92.0396 126.555 86.1513 123.891 83.581 122.489C81.478 121.866 76.8514 120.433 74.2344 124.359C72.4599 127.021 67.4139 135.575 66.2367 143.286C64.9605 149.595 64.9957 151.501 66.8298 149.244C80.4991 132.42 86.1513 129.499 89.4226 127.864Z" fill="#172F72"/>
<path d="M39.0241 128.331C36.4071 127.023 42.2954 124.359 44.8657 122.957C46.9687 122.334 51.5953 120.901 54.2123 124.826C56.0333 127.558 59.4452 135.845 61.4554 144.22C62.8574 150.062 62.545 150.763 61.4554 149.595C48.4871 135.691 42.2954 129.967 39.0241 128.331Z" fill="#172F72"/>
<path fill-rule="evenodd" clip-rule="evenodd" d="M65.1943 154.735H62.5072L62.2735 156.605L61.544 161.468C61.3746 162.598 62.2499 163.615 63.3927 163.615H64.3089C65.4518 163.615 66.3271 162.598 66.1575 161.468L65.428 156.605L65.1943 154.735ZM62.8574 157.072L63.0911 155.436H64.7391L64.9604 157.072H62.8574ZM63.2339 162.68H64.6141C65.2773 162.68 65.7747 162.074 65.6455 161.423C65.5476 160.931 65.1158 160.577 64.6141 160.577H63.2339C62.7411 160.577 62.3144 160.919 62.2074 161.4C62.0616 162.057 62.5611 162.68 63.2339 162.68Z" fill="#09193F"/>
<path d="M63.1703 154.381L63.311 155.828C63.3409 156.136 63.5996 156.371 63.9089 156.371C64.2183 156.371 64.477 156.136 64.5069 155.828L64.6475 154.381C64.6901 153.945 64.3473 153.567 63.9089 153.567C63.4706 153.567 63.1278 153.945 63.1703 154.381Z" fill="#2E4A7A"/>
<path d="M24.0691 180.205C26.7377 180.205 30.0262 182.052 33.2069 184.941C36.0786 187.549 38.3501 190.572 38.8605 192.67C39.3383 194.634 39.1625 199.048 38.5083 206.103L38.4241 206.999C38.3452 207.827 38.2604 208.685 38.1679 209.596L37.9968 211.252C37.7975 213.151 37.4045 216.838 37.3265 217.597L37.2255 218.603C37.085 220.041 37.0218 220.886 37.035 221.122C37.0985 222.266 37.4553 223.683 37.8097 224.582L37.849 224.68L37.9481 224.92L38.1362 227.294L38.171 227.763C38.2209 228.453 38.2603 229.087 38.2896 229.696L38.2989 229.898C38.3487 231.009 38.3608 231.983 38.3276 232.819L38.3208 232.974L35.0532 232.818C35.087 232.109 35.0806 231.242 35.0391 230.235L35.0309 230.045C34.9994 229.341 34.9532 228.602 34.8915 227.771L34.725 225.675L34.6808 225.558C34.2557 224.41 33.8765 222.855 33.7784 221.458L33.7687 221.304L33.7648 221.208C33.7504 220.681 33.828 219.687 34.0105 217.871L34.3968 214.189C34.5616 212.634 34.7408 210.943 34.8187 210.189L34.9436 208.966C34.9837 208.569 35.0223 208.182 35.0596 207.803L35.1675 206.689C35.8398 199.637 36.0503 194.958 35.6818 193.443C35.3629 192.132 33.4369 189.569 31.0074 187.362C28.4172 185.01 25.7907 183.521 24.1433 183.477L24.0691 183.476V180.205Z" fill="#142C6F"/>
<path opacity="0.1" d="M24.1641 181.491C26.0218 181.375 29.003 183.093 32.048 185.802C34.92 188.357 37.1857 191.222 37.6117 192.974C38.0498 194.774 37.8558 199.318 37.1863 206.438L37.1447 206.877C37.0661 207.702 36.9816 208.557 36.8893 209.466L36.7186 211.119L36.0234 217.706C35.8228 219.678 35.7344 220.775 35.7507 221.171L35.7518 221.194C35.8239 222.492 36.2144 224.042 36.6174 225.062L36.6818 225.22L36.8547 227.365L36.9043 228.032C36.9556 228.752 36.9946 229.412 37.0213 230.047L37.029 230.237C37.0652 231.175 37.0717 232.016 37.0436 232.755L37.0371 232.912L36.3368 232.88C36.3689 232.176 36.367 231.367 36.3357 230.46L36.3285 230.264C36.2996 229.516 36.2534 228.737 36.1893 227.864L35.991 225.383L35.9679 225.325C35.5529 224.278 35.157 222.727 35.061 221.376L35.0519 221.232C35.033 220.894 35.0834 220.139 35.2087 218.822L35.3507 217.394C35.4398 216.527 35.9348 211.888 36.0903 210.386L36.2223 209.095C36.3027 208.299 36.3771 207.543 36.4469 206.811L36.5471 205.741C37.1585 199.09 37.3289 194.777 36.9306 193.139C36.0695 189.599 27.7084 182.133 24.3093 182.186L24.2078 182.19L24.1641 181.491Z" fill="white"/>
<path d="M101.412 179.509V182.78C99.7453 182.78 97.0489 184.28 94.3908 186.671L94.1692 186.873C91.8215 189.032 89.9834 191.481 89.6716 192.75C89.3002 194.263 89.5127 198.942 90.1912 205.991L90.3002 207.105C90.3661 207.768 90.436 208.456 90.511 209.179L91.297 216.565C91.5392 218.901 91.6344 220.058 91.6035 220.608C91.52 222.097 90.3412 225.73 89.5016 227.826L89.473 227.897L89.4654 228.02L89.4503 228.303C89.3827 229.704 89.3934 231.571 89.4842 233.559L89.4933 233.752L86.2258 233.909L86.2067 233.492C86.1082 231.203 86.1114 229.07 86.2185 227.536L86.2484 227.136L86.3492 226.894C86.5268 226.467 86.9629 225.279 87.3334 224.178L87.4297 223.889C87.9509 222.31 88.2901 221.037 88.3346 220.466L88.3374 220.425C88.3506 220.19 88.2868 219.345 88.145 217.907L88.0165 216.649C87.8788 215.344 87.4281 211.157 87.2898 209.83L87.1628 208.599C87.1118 208.099 87.0632 207.615 87.0167 207.143L86.935 206.304C86.2052 198.722 85.9916 194.019 86.4947 191.97C87.0105 189.87 89.3037 186.847 92.2029 184.239C95.3667 181.393 98.636 179.559 101.301 179.51L101.412 179.509Z" fill="#142C6F"/>
<path opacity="0.1" d="M93.3601 185.105C96.3935 182.432 99.3644 180.723 101.242 180.791L101.316 180.794L101.273 181.494C97.9069 181.286 89.3018 188.868 88.4236 192.444L88.3989 192.551C88.0091 194.355 88.2273 199.001 88.912 206.114L88.9657 206.668C89.0386 207.413 89.1165 208.186 89.2008 209.003L90.0187 216.697C90.2494 218.922 90.3455 220.09 90.3204 220.536C90.2461 221.861 89.1112 225.411 88.3783 227.231L88.3218 227.369L88.3175 227.429C88.2147 228.894 88.212 231.081 88.3098 233.431L88.3265 233.815L87.6263 233.847L87.6094 233.46C87.5106 231.087 87.5134 228.876 87.6182 227.381L87.6311 227.205L87.6527 227.154C88.3371 225.506 89.5083 221.89 89.6159 220.565L89.6205 220.497C89.6412 220.129 89.5563 219.064 89.3583 217.128L88.568 209.697L88.3815 207.878C88.3227 207.295 88.2672 206.731 88.2142 206.181L88.1115 205.095C87.4849 198.346 87.314 194.023 87.7428 192.276C88.173 190.525 90.4605 187.66 93.3601 185.105Z" fill="white"/>
<path d="M82.4974 129.616C83.1804 129.64 84.019 129.88 84.5839 130.249C85.3554 130.751 85.6167 131.482 85.1167 132.259C84.607 133.052 83.8791 133.052 83.1845 132.463C82.7705 132.111 82.371 131.571 82.0131 130.956L81.9465 130.84L82.5567 130.495C82.8939 131.092 83.2762 131.621 83.6379 131.928C84.0405 132.269 84.2768 132.27 84.5271 131.88C84.793 131.466 84.6788 131.147 84.2011 130.836C83.7729 130.557 83.109 130.358 82.563 130.322L82.4731 130.317L82.4974 129.616Z" fill="#1E1C1C"/>
<path d="M48.1298 132.616C48.0156 131.93 47.1012 131.13 46.1867 130.901C45.0443 130.901 45.5009 131.93 46.1867 132.616C46.8725 133.302 48.2441 133.302 48.1298 132.616Z" fill="#020D2B"/>
<path d="M46.6314 131.466L46.6556 132.166C46.1077 132.185 45.4099 132.385 44.9689 132.672C44.5048 132.975 44.3947 133.283 44.6524 133.684C44.8945 134.06 45.1203 134.06 45.511 133.729C45.8433 133.447 46.1938 132.972 46.5083 132.431L46.5669 132.329L47.1772 132.674C46.8105 133.323 46.3956 133.898 45.9644 134.263C45.2816 134.843 44.5642 134.843 44.0627 134.063C43.5711 133.298 43.8282 132.579 44.5861 132.085C45.1137 131.741 45.8841 131.511 46.5347 131.47L46.6314 131.466Z" fill="#1E1C1C"/>
<path d="M80.966 130.785C81.0828 130.084 82.0175 129.266 82.9521 129.032C84.12 129.032 83.6531 130.084 82.9521 130.785C82.2511 131.486 80.8491 131.486 80.966 130.785Z" fill="#020D2B"/>
<path d="M98.0118 119.985C96.8255 118.304 94.3867 116.978 93.3156 116.525L85.9005 120.603C86.5597 120.85 88.4958 121.987 90.9675 124.558C94.057 127.771 95.0456 128.142 96.5287 128.018C97.7153 127.919 97.8471 126.823 97.7646 126.288C98.0118 126.535 98.7039 126.831 99.4949 126.041C100.483 125.052 99.4949 122.086 98.0118 119.985Z" fill="#F5D4A1"/>
<path d="M27.5731 120.317C28.9365 118.753 31.5171 117.676 32.6371 117.333L39.6381 122.197C38.9521 122.376 36.8944 123.316 34.1512 125.639C30.722 128.542 29.6931 128.811 28.2208 128.533C27.0429 128.31 27.0251 127.197 27.1635 126.668C26.8901 126.89 26.1662 127.116 25.4566 126.24C24.5693 125.145 25.8687 122.271 27.5731 120.317Z" fill="#F5D4A1"/>
<path d="M21.8843 92.5493C22.5764 84.3434 23.3261 68.1208 23.6146 61.0354H103.202C103.491 67.5853 104.166 82.8108 104.562 91.3134C105.056 101.942 98.012 129.995 60.3188 127.153C22.6258 124.31 21.0192 102.807 21.8843 92.5493Z" fill="#76CCDB"/>
<path d="M96.7142 94.1946C104.58 94.1946 110.957 87.8179 110.957 79.9518C110.957 72.0859 104.58 65.7092 96.7142 65.7092C88.8484 65.7092 82.4716 72.0859 82.4716 79.9518C82.4716 87.8179 88.8484 94.1946 96.7142 94.1946Z" fill="#EBBAAA"/>
<path d="M30.3671 94.9155C22.5011 94.9155 16.1245 88.5388 16.1245 80.6727C16.1245 72.8069 22.5011 66.4302 30.3671 66.4302C38.2331 66.4302 44.6099 72.8069 44.6099 80.6727C44.6099 88.5388 38.2331 94.9155 30.3671 94.9155Z" fill="#EBBAAA"/>
<path d="M25.7047 55.3969C25.7047 35.024 42.2204 18.5085 62.5934 18.5085C82.9661 18.5085 99.4818 35.024 99.4818 55.3969V72.8199L97.6907 93.9591C96.4233 108.919 85.7021 121.422 71.1273 125.023C65.5401 126.403 59.6758 126.377 54.1039 124.936C40.2279 121.349 29.9864 109.598 28.3293 95.3622L25.7047 72.8199V55.3969Z" fill="#F4D4C9"/>
<path d="M56.3503 67.238L55.9236 65.0698C55.8439 64.6642 55.5128 64.3555 55.1023 64.3043L44.6414 63.0019C44.596 62.9963 44.5502 62.9972 44.5054 63.0049L38.7796 63.9772C38.5493 64.0162 38.381 64.2158 38.381 64.4492V67.1609C38.381 67.4357 38.6116 67.6541 38.886 67.639L46.8644 67.2018C46.8946 67.2001 46.925 67.2015 46.9549 67.2057L55.2778 68.3713C55.9297 68.4626 56.4774 67.8841 56.3503 67.238Z" fill="#393939"/>
<path d="M69.8538 67.1046L70.1996 65.0944C70.2697 64.6869 70.5936 64.3703 71.0025 64.3095L80.9825 62.8246C81.0276 62.818 81.0734 62.8178 81.1185 62.8246L86.6171 63.6239C86.8482 63.6576 87.0213 63.8529 87.0269 64.0864L87.0879 66.6525C87.0945 66.927 86.8692 67.1509 86.5944 67.1425L78.9494 66.906C78.9193 66.9051 78.8889 66.9072 78.8592 66.9121L70.9529 68.2119C70.3031 68.3187 69.7421 67.7535 69.8538 67.1046Z" fill="#393939"/>
<path d="M78.5129 72.4851C80.0615 72.4851 81.3169 73.7405 81.3169 75.2891C81.3169 76.8135 80.1005 78.0538 78.5853 78.0921L78.5129 78.0931H74.1308C72.5822 78.0931 71.3268 76.8377 71.3268 75.2891C71.3268 73.7647 72.5433 72.5244 74.0584 72.486L74.1308 72.4851H78.5129Z" fill="black"/>
<path d="M51.291 72.4851C52.8396 72.4851 54.0949 73.7405 54.0949 75.2891C54.0949 76.8135 52.8785 78.0538 51.3633 78.0921L51.291 78.0931H46.5008C44.9523 78.0931 43.6969 76.8377 43.6969 75.2891C43.6969 73.7647 44.9133 72.5244 46.4285 72.486L46.5008 72.4851H51.291Z" fill="black"/>
<path d="M61.2546 76.998L64.8088 79.0124C63.3368 81.6096 62.199 84.6257 62.044 86.8416L62.0342 87.0005C61.9174 89.1932 62.6719 90.0784 65.1618 90.0989L65.2515 90.0993V94.1846C60.1247 94.1846 57.6482 91.1371 57.9686 86.5566C58.1703 83.6723 59.4579 80.2141 61.1543 77.1763L61.2546 76.998Z" fill="#EBBAAA"/>
<path d="M87.999 42.7589C83.9012 37.979 86.5816 32.0182 86.0851 27.8504C85.7334 24.8982 85.6969 24.1451 94.089 30.3312C102.481 36.517 103.74 50.0884 101.456 61.6235L99.7764 74.681H97.9071L98.4913 67.578C98.4913 67.578 98.1408 65.5919 95.8041 63.2552C93.4675 60.9186 92.6499 48.1838 87.999 42.7589Z" fill="#6E6C6C"/>
<path d="M31.0638 50.809C31.4106 44.5232 30.7024 44.8469 30.9334 40.6563C31.097 37.6881 32.12 38.3377 26.8209 43.7804C23.8964 46.7844 24.2254 59.7561 24.8479 68.1967L25.5879 75.9766H27.542C27.542 75.9766 27.3107 73.049 27.542 71.647C27.7731 70.245 29.4438 69.0192 29.8759 66.3893C30.4942 62.6243 30.8598 54.5098 31.0638 50.809Z" fill="#6E6C6C"/>
<path d="M30.1448 26.57C36.3362 20.9621 42.4335 19.3264 50.4727 19.3264C50.7625 23.8525 46.0747 24.4 47.5522 33.9305C49.399 45.8436 53.2127 46.6049 48.867 49.0387C45.3905 50.9859 34.7011 57.9979 31.7803 61.2692C28.8594 64.5405 28.8594 65.3287 27.3406 65.592C25.8218 65.8553 24.7703 64.8426 23.3683 62.2723C21.9663 59.702 21.7921 59.5167 20.6805 54.0256C19.569 48.5345 21.1377 34.7282 30.1448 26.57Z" fill="#272727"/>
<path d="M48.1363 60.2177C44.3977 60.4514 34.4728 63.4446 32.8313 61.7361C23.8354 41.9919 38.117 21.1508 46.3836 18.5085C71.9701 10.3302 92.29 22.1145 98.0237 30.776C103.515 39.0711 104.216 56.9464 102.58 58.9326C100.567 61.3772 96.0918 63.0175 91.7147 61.7361C87.3377 60.4544 78.7431 61.6272 75.2414 60.2177C72.44 59.0898 62.6237 60.3343 56.8987 60.2177C53.9559 60.1577 53.8372 48.3132 51.5244 48.3008C48.4868 48.2845 49.9533 60.1042 48.1363 60.2177Z" fill="#272727"/>
<path d="M68.9522 100.517C69.8719 100.141 70.9224 100.581 71.2986 101.501C71.6748 102.42 71.2343 103.471 70.3146 103.847C64.4857 106.232 59.0834 106.298 54.5061 103.755C53.6375 103.272 53.3246 102.177 53.8071 101.308C54.2897 100.44 55.385 100.127 56.2536 100.609C59.7822 102.57 64.0619 102.517 68.9522 100.517Z" fill="#C99584"/>
<path fill-rule="evenodd" clip-rule="evenodd" d="M66.5091 70.7682C69.7445 69.5801 73.8752 68.6983 78.7897 68.4892L79.0538 68.4785C83.7932 68.2973 87.7457 68.6971 90.8361 69.4088C92.0542 69.6892 92.9009 70.7552 92.9658 72.0217C93.121 75.0468 93.2289 77.7551 93.2412 79.5193L93.2424 79.8454C93.2424 81.4606 92.8826 83.2593 92.3145 85.0639C91.9441 86.2412 90.8409 87.0177 89.5887 87.0305L70.7031 87.2206C69.62 87.2313 68.6241 86.6678 68.1159 85.7277C66.9344 83.5412 65.9889 81.2585 65.5854 79.1574C65.2387 77.3523 64.9623 75.4839 64.7514 73.7C64.5997 72.4155 65.3069 71.2098 66.5091 70.7682ZM91.5657 72.0933C91.5321 71.4378 91.1139 70.9113 90.5216 70.775C87.4934 70.0776 83.5769 69.6887 78.8493 69.8898C74.0863 70.0925 70.0971 70.944 66.9925 72.0841C66.4107 72.2978 66.0668 72.884 66.1437 73.5353C66.351 75.2881 66.6226 77.1245 66.9622 78.8929C67.3332 80.8244 68.2301 82.9897 69.3493 85.061C69.6055 85.5349 70.1168 85.8242 70.6891 85.8186L89.5745 85.6285C90.2332 85.6218 90.7932 85.2275 90.9772 84.6429C91.5062 82.9625 91.8405 81.2917 91.8405 79.8453C91.8405 78.2689 91.7466 75.7351 91.6039 72.8527L91.5657 72.0933Z" fill="black"/>
<path d="M58.8581 72.3047C60.7381 71.3925 63.5265 71.1598 65.8781 72.2491L65.9953 72.3047L64.9755 74.407C63.3462 73.6166 61.2776 73.762 59.9565 74.3699L59.8781 74.407L58.8581 72.3047Z" fill="black"/>
<path fill-rule="evenodd" clip-rule="evenodd" d="M31.2571 72.5118C31.2927 71.3131 32.0404 70.2792 33.1702 69.9332C36.5904 68.8861 40.9472 68.311 46.0706 68.6662C51.0667 69.0124 55.2466 70.0105 58.5043 71.2893C59.7048 71.7602 60.3887 72.9927 60.2 74.2805C59.9395 76.0563 59.6114 77.9104 59.2138 79.6999C58.7479 81.7971 57.7228 84.0601 56.4606 86.2175C55.9259 87.131 54.9242 87.6586 53.8517 87.6201L35.1355 86.9504C33.9142 86.907 32.8482 86.1387 32.4714 84.992C31.8704 83.1633 31.4365 81.3043 31.3106 79.5995C31.1869 77.9252 31.1772 75.6539 31.2386 73.1886L31.2571 72.5118ZM57.9922 72.5945C54.8621 71.3658 50.8209 70.4009 45.9736 70.0649L45.7186 70.048C40.8863 69.7414 36.7874 70.2921 33.5807 71.2738C33.0397 71.4395 32.6767 71.9415 32.6585 72.5535C32.5834 75.0871 32.5787 77.4608 32.6888 79.2038L32.7088 79.4963C32.8249 81.0682 33.2348 82.8247 33.8033 84.5544C33.9932 85.1322 34.5402 85.5265 35.1855 85.5494L53.9019 86.2191C54.4683 86.2394 54.9815 85.9691 55.2506 85.5095C56.4455 83.4671 57.4174 81.3215 57.8451 79.3959C58.2345 77.6434 58.5569 75.8217 58.8128 74.0772C58.9085 73.4239 58.5752 72.8232 57.9922 72.5945Z" fill="black"/>
<path d="M17.432 68.4695C19.7227 67.1161 22.9851 67.1248 24.3301 67.2981C26.022 68.2092 24.8507 72.5042 23.9396 73.2851C23.0285 74.066 17.9526 76.7992 16.0004 76.1484C14.0481 75.4977 15.7401 73.6755 15.2195 73.8057C14.6989 73.9359 13.7878 73.2851 13.7878 72.5042C13.7878 71.7233 14.5687 70.1615 17.432 68.4695Z" fill="#EFD19F"/>
<path d="M108.329 66.5049C106.029 65.1393 102.752 65.148 101.401 65.3232C99.7014 66.2422 100.878 70.5753 101.793 71.3632C102.708 72.1509 107.807 74.9084 109.767 74.2518C111.729 73.5954 110.029 71.7569 110.552 71.8883C111.075 72.0196 111.99 71.3632 111.99 70.5753C111.99 69.7874 111.206 68.2118 108.329 66.5049Z" fill="#EFD19F"/>
<path d="M102.171 72.9524C100.739 73.7543 94.3774 53.6098 62.2305 54.1304C30.0834 54.651 25.1264 75.9741 23.7758 75.289C22.4253 74.6039 18.7084 53.3755 19.0207 40.4646C19.4112 24.3258 22.7949 1.54962 62.2305 0.768722C101.666 -0.012179 104.399 23.8053 104.529 40.4646C104.634 53.7919 103.602 72.1504 102.171 72.9524Z" fill="#76CCDB"/>
<path d="M56.8938 48.9245C54.8114 47.4667 54.985 43.0243 55.332 40.9853L61.4495 38.6426V46.3215C61.4495 48.0135 59.4968 50.7466 56.8938 48.9245Z" fill="white"/>
<path d="M62.751 49.4451C60.6686 47.9873 61.2339 40.6815 61.5809 38.6426H67.5187V46.3215C67.5187 49.4451 65.3538 51.2672 62.751 49.4451Z" fill="white"/>
<path d="M51.8184 37.341C52.0787 34.3475 57.0244 32.5254 61.1892 32.3953C67.046 32.3953 69.3885 33.9571 71.4709 35.7792C73.5534 37.6013 73.8137 41.1152 70.2996 41.7659C66.7855 42.4167 64.5729 40.2041 62.1001 40.0739C59.6272 39.9438 57.4149 41.7659 55.3324 41.7659C53.25 41.7659 51.558 40.3343 51.8184 37.341Z" fill="#F6D59F"/>
<path d="M55.9834 32.9159C55.8533 31.2239 57.4151 28.4907 61.5799 28.3606C66.5259 28.3606 67.6966 30.5732 67.6966 32.0048C67.6966 33.4365 66.2649 35.5189 62.1003 35.6491C57.9355 35.7792 56.1136 34.6079 55.9834 32.9159Z" fill="black"/>
<path d="M63.6637 20.6818C63.1431 13.914 69.9105 6.88588 78.2407 7.53661C86.5706 8.18737 89.5634 12.4823 90.3443 18.0788C91.1252 23.6753 89.5634 29.9224 79.9322 31.8747C70.301 33.8269 64.1844 27.4495 63.6637 20.6818Z" fill="white"/>
<path d="M66.5252 20.5515C66.5252 19.25 67.6966 16.647 70.4298 16.5168C73.8137 16.5168 74.5946 19.6405 74.5946 20.5515C74.5946 21.4625 73.9439 24.9765 70.4298 24.9765C66.9157 24.9765 66.5252 21.853 66.5252 20.5515Z" fill="black"/>
<path d="M30.7621 21.8949C30.2415 15.1271 37.0089 8.09899 45.3391 8.74975C53.669 9.40051 56.6618 13.6955 57.4427 19.2919C58.2236 24.8884 56.6618 31.1357 47.0306 33.088C37.3994 35.0402 31.2827 28.6628 30.7621 21.8949Z" fill="white"/>
<path d="M33.6239 21.7649C33.6239 20.4634 34.7952 17.8604 37.5284 17.7302C40.9121 17.7302 41.693 20.8539 41.693 21.7649C41.693 22.6759 41.0423 26.1901 37.5284 26.1901C34.0143 26.1901 33.6239 23.0664 33.6239 21.7649Z" fill="black"/>
<path d="M104.789 7.92688C99.5836 3.65795 93.9437 7.79673 91.7746 10.3997L97.5012 23.9354C98.3688 24.5428 101.041 25.2368 104.789 23.1545C109.475 20.5515 111.297 13.2631 104.789 7.92688Z" fill="#76CCDB"/>
<path d="M100.462 12.2721C98.4966 10.6477 96.3677 12.2226 95.5489 13.2131L97.7106 18.3638C98.0379 18.5949 99.0466 18.8591 100.462 18.0667C102.23 17.0762 102.918 14.3027 100.462 12.2721Z" fill="black"/>
<path d="M17.8918 10.0309C23.2369 5.75916 29.0274 9.90063 31.2545 12.5053L25.375 26.0497C24.4841 26.6575 21.7403 27.3522 17.8918 25.2684C13.0812 22.6636 11.2105 15.3705 17.8918 10.0309Z" fill="#76CCDB"/>
<path d="M22.2408 14.3547C24.2845 12.7302 26.4985 14.3051 27.3502 15.2957L25.1019 20.4463C24.7614 20.6775 23.7123 20.9416 22.2408 20.1492C20.4014 19.1587 19.6861 16.3852 22.2408 14.3547Z" fill="black"/>
</svg>
