<svg width="190" height="350" viewBox="0 0 190 350" fill="none" xmlns="http://www.w3.org/2000/svg">
<path d="M49.1369 330.834L48.7499 323.834H63.9999V330.834H49.1369Z" fill="#110B15"/>
<path d="M87.1687 334.834L86.7499 323.834H103.25V334.834H87.1687Z" fill="#110B15"/>
<path d="M21.6908 348.649C21.6407 342.911 22.4223 339.421 27.4097 337.076C32.3972 334.734 37.0949 330.226 45.7234 326.361C45.7234 326.361 46.8592 326.146 48.7079 327.146C50.2854 327.999 52.3119 330.094 55.3654 330.066C58.6809 330.036 61.6357 329.334 63.4714 328.371C64.2644 326.199 66.0239 326.184 66.0239 326.184C66.0239 326.184 68.5012 330.899 68.5427 335.636C68.5839 340.371 68.5797 348.241 68.5797 348.241L21.6908 348.649Z" fill="#161616"/>
<path d="M43.9238 326.708C44.2653 326.556 44.6652 326.71 44.817 327.051C45.0108 327.487 45.1505 327.966 45.2459 328.486C45.3858 329.25 45.4166 329.876 45.4166 330.981C45.4166 331.456 44.943 331.778 44.5061 331.616L44.4665 331.6L41.1702 330.144L41.8735 332.694C42.013 333.199 41.5507 333.659 41.0529 333.529L41.0136 333.518L37.7019 332.45L37.7021 335.446C37.7021 335.945 37.184 336.267 36.7408 336.06L36.703 336.041L34.4537 334.822L34.4539 337.071C34.4539 337.431 34.1729 337.725 33.8184 337.747L33.7772 337.748C33.4173 337.748 33.123 337.467 33.1017 337.113L33.1005 337.071V333.686C33.1005 333.188 33.6186 332.865 34.0618 333.072L34.0996 333.091L36.3487 334.31L36.3487 331.521C36.3487 331.077 36.7686 330.757 37.1921 330.865L37.233 330.877L40.2352 331.845L39.4861 329.129C39.3378 328.591 39.8644 328.122 40.3754 328.315L40.4118 328.33L44.0457 329.935L44.0415 329.847C44.0222 329.468 43.9877 329.148 43.9287 328.809L43.9147 328.73C43.8374 328.309 43.7273 327.932 43.5803 327.601C43.4285 327.26 43.5823 326.86 43.9238 326.708Z" fill="white"/>
<path d="M23.5776 337.516C25.1078 336.961 26.7282 336.541 29.8352 335.839L28.5149 339.639L28.5527 343.969L19.7095 344.046C19.3486 344.051 18.7038 343.569 19.0116 341.616C19.3963 339.176 21.4034 338.304 23.5776 337.516Z" fill="#161616"/>
<path d="M68.7279 347.501L68.4712 342.944L28.8197 343.561L18.9331 342.836L18.6311 346.329C18.5269 347.536 19.4315 348.594 20.6392 348.676L28.8694 349.246L67.6637 348.644C68.2789 348.634 68.7624 348.114 68.7279 347.501Z" fill="#808080"/>
<path d="M129.603 348.649C129.653 342.911 128.871 339.421 123.884 337.076C118.897 334.734 114.199 330.226 105.57 326.361C105.57 326.361 104.435 326.146 102.586 327.146C101.008 327.999 98.9817 330.094 95.9284 330.066C92.6127 330.036 89.6579 329.334 87.8222 328.371C87.0292 326.199 85.2697 326.184 85.2697 326.184C85.2697 326.184 82.7924 330.899 82.7512 335.636C82.7097 340.371 82.7139 348.241 82.7139 348.241L129.603 348.649Z" fill="#161616"/>
<path d="M106.477 327.051C106.629 326.71 107.029 326.556 107.37 326.708C107.712 326.86 107.865 327.26 107.713 327.601C107.566 327.932 107.456 328.309 107.379 328.73C107.311 329.099 107.273 329.439 107.252 329.847L107.248 329.935L110.882 328.33C111.392 328.105 111.934 328.557 111.817 329.09L111.808 329.129L111.058 331.845L114.061 330.877C114.484 330.741 114.917 331.042 114.944 331.479L114.945 331.521L114.945 334.31L117.194 333.091C117.632 332.854 118.163 333.156 118.192 333.644L118.193 333.686V337.071C118.193 337.445 117.89 337.748 117.516 337.748C117.157 337.748 116.862 337.467 116.841 337.113L116.84 337.071L116.84 334.822L114.591 336.041C114.152 336.279 113.622 335.977 113.593 335.489L113.591 335.446L113.591 332.45L110.28 333.518C109.781 333.679 109.302 333.236 109.411 332.734L109.42 332.694L110.123 330.144L106.827 331.6C106.393 331.792 105.906 331.489 105.878 331.024L105.877 330.981L105.878 330.725C105.883 329.775 105.919 329.189 106.048 328.486C106.143 327.966 106.283 327.487 106.477 327.051Z" fill="white"/>
<path d="M127.716 337.516C126.186 336.961 124.565 336.541 121.458 335.839L122.779 339.639L122.741 343.969L131.584 344.046C131.945 344.051 132.59 343.569 132.282 341.616C131.897 339.176 129.89 338.304 127.716 337.516Z" fill="#161616"/>
<path d="M82.5657 347.501L82.8227 342.944L122.474 343.561L132.361 342.836L132.663 346.329C132.767 347.536 131.862 348.594 130.654 348.676L122.424 349.246L83.63 348.644C83.0147 348.634 82.5312 348.114 82.5657 347.501Z" fill="#808080"/>
<path d="M37.0852 233.015L68.5435 235.681V323.924H45.7565L37.0852 233.015Z" fill="#1E1425"/>
<path d="M75.4739 235.681H107.732V323.924H84.3657L75.4739 235.681Z" fill="#1E1425"/>
<path d="M43.7499 317.834H68.7499V324.834H44.8749L43.7499 317.834Z" fill="#110B15"/>
<path d="M109 318.189L81.4999 317.834L82.8349 324.834H108.239L109 318.189Z" fill="#110B15"/>
<path d="M114.356 120.057C106.52 112.479 93.9188 113.068 86.8233 121.343C79.8253 129.506 81.0215 141.851 89.4568 148.517L135.918 185.238C142.81 190.685 152.806 189.544 158.293 182.685C163.441 176.25 162.848 166.956 156.925 161.227L114.356 120.057Z" fill="black"/>
<path d="M71.71 247.154C88.4327 247.154 101.989 240.732 101.989 232.811C101.989 224.89 88.4327 218.468 71.71 218.468C54.9874 218.468 41.431 224.89 41.431 232.811C41.431 240.732 54.9874 247.154 71.71 247.154Z" fill="#1E1425"/>
<rect x="28.4425" y="110.583" width="48.859" height="90.6093" rx="24.4295" transform="rotate(17.962 28.4425 110.583)" fill="black"/>
<rect x="58.752" y="96.0835" width="23.5" height="40.25" rx="11.75" fill="#2D2928"/>
<path d="M46.9487 134.909C53.8802 129.844 52.2805 111.848 56.8127 111.848C71.0755 124.378 68.876 145.839 64.0107 176.231C56.546 139.174 52.3472 142.64 46.9487 134.909Z" fill="#5A5E65"/>
<path d="M96.6453 133.709C89.7138 128.644 91.3133 110.649 86.7813 110.649C72.5185 123.179 74.7178 144.639 79.5833 175.031C87.0478 137.975 91.2468 141.44 96.6453 133.709Z" fill="#5A5E65"/>
<path d="M34.9635 128.865C36.0805 121.33 42.4638 115.811 50.0858 115.753L72.7905 115.583L93.9018 117.678C101.09 118.392 106.954 123.888 108.006 131.054C110.485 147.938 114.545 178.816 114.586 200.24C114.646 231.104 120.003 234.071 111.726 238.093C103.45 242.115 37.1698 241.371 28.1083 235.077C19.047 228.784 24.6607 222.267 24.6358 209.465C24.6171 199.889 31.4958 152.26 34.9635 128.865Z" fill="#070317"/>
<path d="M61.4083 143.62C51.226 141.728 29.2705 121.16 40.7255 110.521C48.044 101.656 59.8175 113.477 61.4083 119.387C62.6813 124.115 66.1813 135.739 68.4088 138.891C70.9543 141.157 71.5908 145.511 61.4083 143.62Z" fill="#22202A"/>
<path d="M80.8418 143.62C91.024 141.728 112.98 121.16 101.525 110.521C94.206 101.656 82.4325 113.477 80.8418 119.387C79.5688 124.115 76.0688 135.739 73.8413 138.891C71.2958 141.157 70.6593 145.511 80.8418 143.62Z" fill="#22202A"/>
<path d="M54.671 135.083V162.583" stroke="#19181E" stroke-width="3.5" stroke-linecap="round"/>
<path d="M85.7388 135.083V157.083" stroke="#19181E" stroke-width="3.5" stroke-linecap="round"/>
<path d="M170.938 82.3649C170.832 81.4874 171.608 80.2537 172.991 79.9084C174.991 79.9514 189.149 96.0089 189.372 97.2642C189.595 98.5192 188.066 99.8617 186.7 99.4572C185.333 99.0527 171.044 83.2424 170.938 82.3649Z" fill="#4D3D2C"/>
<path d="M166.114 86.3874C166.008 85.5099 166.784 84.2762 168.167 83.9309C170.167 83.9737 184.325 100.031 184.548 101.287C184.771 102.542 183.242 103.884 181.876 103.48C180.509 103.075 166.22 87.2647 166.114 86.3874Z" fill="#4D3D2C"/>
<path d="M160.017 90.8465C159.907 89.9377 160.713 88.6602 162.147 88.3027C164.222 88.3472 178.916 104.977 179.147 106.277C179.379 107.576 177.792 108.967 176.374 108.548C174.956 108.129 160.127 91.7552 160.017 90.8465Z" fill="#4D3D2C"/>
<path d="M53.5005 165.935C60.1778 161.144 59.388 154.446 63.5003 144.435C68.0675 133.315 80.0003 122.309 89.0005 127.934C93.9998 131.059 83.2483 135.797 80.9998 141.435C78.8223 146.895 82.183 151.399 83.7498 153.06C89.9998 159.684 97.276 153.491 99.2505 155.06C103.125 158.988 101.876 173.701 101.876 179.185C101.876 187.435 104.003 188.303 108.251 188.81C113.653 189.455 120.293 183.504 124.751 188.81C129.208 194.117 108.758 198.839 99.2505 206.685C89.743 214.532 95.8765 229.975 76.3755 244.81C67.767 251.359 45.8685 256.081 28.856 240.36C11.8436 224.639 4.88503 209.685 14.4999 188.81C21.4489 173.723 42.0005 174.185 53.5005 165.935Z" fill="#4062DA"/>
<path d="M40.3825 196.937C42.914 195.491 47.654 201.844 52.9042 207.708C58.7845 213.336 65.1572 219.349 63.2557 220.559C61.3545 221.768 57.0475 218.55 55.1997 217.26C53.352 215.97 48.9967 215.001 45.7005 211.305C42.404 207.608 42.2342 203.853 41.6445 202.215C41.0545 200.577 37.8507 198.383 40.3825 196.937Z" fill="#6E8EFF"/>
<path d="M86.3193 185.943L77.3373 175.899C75.9305 174.326 73.4688 174.325 72.061 175.897C70.8598 177.238 70.8568 179.268 72.054 180.612L81.0143 190.677C82.4835 192.327 85.0865 192.251 86.4573 190.519C87.53 189.163 87.4718 187.232 86.3193 185.943Z" fill="#63503C" fill-opacity="0.21"/>
<path d="M77.2917 178.65L76.6667 177.9L74.042 180.275L74.7917 181.025L77.2917 178.65Z" fill="#AD947A" fill-opacity="0.21"/>
<path d="M78.7917 180.15L78.1667 179.4L75.542 181.775L76.2917 182.525L78.7917 180.15Z" fill="#AD947A" fill-opacity="0.21"/>
<path d="M80.0417 181.9L79.4167 181.15L76.792 183.525L77.5417 184.275L80.0417 181.9Z" fill="#AD947A" fill-opacity="0.21"/>
<path d="M81.3395 183.458L80.7145 182.708L78.0897 185.083L78.8395 185.833L81.3395 183.458Z" fill="#AD947A" fill-opacity="0.21"/>
<path d="M82.8395 184.708L82.2145 183.958L79.5897 186.333L80.3395 187.083L82.8395 184.708Z" fill="#AD947A" fill-opacity="0.21"/>
<path d="M84.3395 186.208L83.7145 185.458L81.0897 187.833L81.8395 188.583L84.3395 186.208Z" fill="#AD947A" fill-opacity="0.21"/>
<path d="M74.5192 195.567L66.1562 186.215C64.5865 184.459 61.8497 184.426 60.2375 186.142C58.8142 187.657 58.7827 190.008 60.165 191.56L68.5072 200.931C70.1392 202.764 73.0172 202.724 74.598 200.847C75.8897 199.313 75.8562 197.062 74.5192 195.567Z" fill="#63503C" fill-opacity="0.21"/>
<path d="M65.8395 189.458L65.2145 188.708L62.5897 191.083L63.3395 191.833L65.8395 189.458Z" fill="#AD947A" fill-opacity="0.21"/>
<path d="M67.3395 190.958L66.7145 190.208L64.0897 192.583L64.8395 193.333L67.3395 190.958Z" fill="#AD947A" fill-opacity="0.21"/>
<path d="M68.5895 192.708L67.9645 191.958L65.3397 194.333L66.0895 195.083L68.5895 192.708Z" fill="#AD947A" fill-opacity="0.21"/>
<path d="M69.8395 194.208L69.2145 193.458L66.5897 195.833L67.3395 196.583L69.8395 194.208Z" fill="#AD947A" fill-opacity="0.21"/>
<path d="M71.3395 195.708L70.7145 194.958L68.0897 197.333L68.8395 198.083L71.3395 195.708Z" fill="#AD947A" fill-opacity="0.21"/>
<path d="M72.8395 196.958L72.2145 196.208L69.5897 198.583L70.3395 199.333L72.8395 196.958Z" fill="#AD947A" fill-opacity="0.21"/>
<path d="M158.754 96.7297C158.307 98.9207 156.642 101.935 155.865 103.169L163.811 111.592C164.283 110.977 166.028 109.639 169.238 109.208C173.251 108.669 176.084 104.854 178.799 100.661C181.515 96.4685 194.484 92.246 186.654 84.201C178.825 76.156 176.25 85.4777 169.679 88.7125C163.108 91.9472 159.313 93.9912 158.754 96.7297Z" fill="#4062DA"/>
<path d="M57.0832 214.199L46.697 202.973L45.9282 203.832L55.6897 215.044L57.0832 214.199Z" fill="#292D34"/>
<path d="M178.067 90.1082C179.207 90.1327 180.152 89.2279 180.176 88.0874C180.201 86.9469 179.296 86.0024 178.156 85.9779C177.015 85.9535 176.071 86.8582 176.046 87.9987C176.022 89.1392 176.926 90.0837 178.067 90.1082Z" fill="#F1F1F1"/>
<path d="M181.498 93.6506C182.638 93.6751 183.583 92.7704 183.607 91.6299C183.632 90.4894 182.727 89.5449 181.587 89.5204C180.446 89.4959 179.502 90.4007 179.477 91.5412C179.453 92.6817 180.357 93.6261 181.498 93.6506Z" fill="#F1F1F1"/>
<path d="M172.271 93.1907C173.411 93.2152 174.356 92.3105 174.38 91.1699C174.405 90.0294 173.5 89.085 172.36 89.0605C171.219 89.036 170.275 89.9407 170.25 91.0812C170.226 92.2217 171.13 93.1662 172.271 93.1907Z" fill="#F1F1F1"/>
<path d="M177.317 98.6082C178.457 98.6327 179.402 97.7279 179.426 96.5874C179.451 95.4469 178.546 94.5024 177.406 94.4779C176.265 94.4535 175.321 95.3582 175.296 96.4987C175.272 97.6392 176.176 98.5837 177.317 98.6082Z" fill="#F1F1F1"/>
<path d="M166.831 96.3796C167.971 96.4041 168.916 95.4994 168.94 94.3589C168.965 93.2184 168.06 92.2739 166.919 92.2494C165.779 92.2249 164.834 93.1297 164.81 94.2702C164.785 95.4107 165.69 96.3551 166.831 96.3796Z" fill="#F1F1F1"/>
<path d="M174.317 103.858C175.457 103.883 176.402 102.978 176.426 101.837C176.451 100.697 175.546 99.7524 174.405 99.7279C173.265 99.7035 172.32 100.608 172.296 101.749C172.271 102.889 173.176 103.834 174.317 103.858Z" fill="#F1F1F1"/>
<path d="M127.944 125.688C132.531 123.558 137.968 125.509 140.164 130.044L140.229 130.183L157.957 168.362C160.109 172.996 158.097 178.496 153.463 180.647C148.876 182.777 143.439 180.827 141.243 176.291L141.178 176.153L123.45 137.974C121.298 133.34 123.31 127.84 127.944 125.688Z" fill="#F9D2C6"/>
<path d="M21.6719 173.582L64.0377 173.7C69.1463 173.714 73.2761 177.867 73.262 182.975C73.248 188.033 69.1776 192.131 64.1393 192.199L63.9864 192.199L21.6206 192.082C16.512 192.068 12.3821 187.915 12.3963 182.806C12.4103 177.749 16.4806 173.651 21.5189 173.583L21.6719 173.582Z" fill="#F9D2C6"/>
<rect x="8" y="197.294" width="27.4622" height="55.156" rx="13.7311" transform="rotate(-89.3957 8 197.294)" fill="#070317"/>
<rect x="119.393" y="139.859" width="26.9425" height="55.156" rx="13.4712" transform="rotate(-24.5251 119.393 139.859)" fill="#070317"/>
<path d="M81.1425 170.956L155.748 102.792L164.064 111.473L91.5125 182.931L81.1425 170.956Z" fill="#63503C"/>
<path d="M165.718 94.415L165.889 94.5969L48.2285 205.596L48.0569 205.414L165.718 94.415Z" fill="black"/>
<path d="M173.299 90.7017L173.471 90.884L49.4433 207.247L49.2722 207.065L173.299 90.7017Z" fill="black"/>
<path d="M179.532 87.5386L179.703 87.7207L51.5854 208.247L51.4141 208.065L179.532 87.5386Z" fill="black"/>
<path d="M180.524 89.2783L180.695 89.4603L53.0857 209.623L52.9143 209.441L180.524 89.2783Z" fill="black"/>
<path d="M173.188 101.702L173.359 101.884L55.1935 213.122L55.0221 212.94L173.188 101.702Z" fill="black"/>
<path d="M177.583 94.7056L177.754 94.8874L53.5855 211.998L53.414 211.816L177.583 94.7056Z" fill="black"/>
<path d="M149.567 172.258L131.839 134.078" stroke="#F9D2C6" stroke-width="18.5" stroke-linecap="round"/>
<rect x="119.393" y="139.859" width="26.9425" height="55.156" rx="13.4712" transform="rotate(-24.5251 119.393 139.859)" fill="#070317"/>
<rect x="61.9483" y="103.333" width="18.0142" height="28.75" rx="9.00708" fill="#F9D2C6"/>
<path d="M108.067 88.2167C116.25 88.2167 122.884 81.583 122.884 73.4C122.884 65.217 116.25 58.5835 108.067 58.5835C99.884 58.5835 93.2505 65.217 93.2505 73.4C93.2505 81.583 99.884 88.2167 108.067 88.2167Z" fill="#F9D2C6"/>
<path d="M38.3168 88.9667C30.1338 88.9667 23.5001 82.333 23.5001 74.15C23.5001 65.967 30.1338 59.3335 38.3168 59.3335C46.4998 59.3335 53.1333 65.967 53.1333 74.15C53.1333 82.333 46.4998 88.9667 38.3168 88.9667Z" fill="#F9D2C6"/>
<path d="M33.7505 45.9585C33.7505 24.7645 50.9315 7.5835 72.1255 7.5835C93.3195 7.5835 110.501 24.7645 110.501 45.9585V64.0835L110.696 67.6375C110.98 72.8103 110.342 77.9923 108.812 82.9418L105.758 92.8183C102.74 102.582 95.4808 110.574 86.0876 114.6C77.2531 118.386 67.1368 118.339 58.3715 114.394C49.6108 110.452 42.902 103.02 39.8748 93.9023L35.9773 82.1645C34.5023 77.7228 33.7505 73.0728 33.7505 68.3925V64.0835V45.9585Z" fill="#FEE6DD"/>
<path d="M61.5001 5.33361C67.6898 3.61006 68.1721 0.475622 76.5006 0.708582C88.0553 1.03179 93.342 6.38231 96.0012 10.7328C98.668 9.97403 102.675 11.5827 106.751 14.0836C112.126 17.3816 114.125 23.2086 115.125 24.8335C117.256 28.2963 117.74 33.9615 117.145 40.3764L117.125 40.5835C116.625 45.7835 115.251 54.667 114.126 59.8335L114 59.7795C113.291 59.4786 111.971 58.9894 111.501 59.0835C110.876 59.2085 111.376 66.8335 109.626 66.8335C107.876 66.8335 109.626 52.2085 108.376 50.0835C107.126 47.9585 108.001 42.4588 101.251 39.0835L100.298 38.6086C96.6279 36.7604 92.8132 34.3851 91.9188 24.2408C89.1906 25.0676 85.2523 23.2687 83.2504 24.4585C79.5004 26.6873 80.3754 32.9585 70.5004 35.2085C62.5004 37.0313 53.5003 35.7085 48.1253 38.8335C44.2934 41.0615 43.8841 47.1952 39.6447 49.9906L39.5003 50.0835C35.2129 52.7785 35.007 59.7953 34.7652 61.722L34.7503 61.8335C34.5003 63.5835 35.1253 65.9585 34.0003 65.9585C32.9015 65.9585 32.9952 61.9039 33.0002 60.667L33.0003 60.5835C33.0003 60.0835 31.6253 61.5835 30.1253 61.8335C28.6253 62.0835 27.6251 54.7085 29.2503 46.4585C30.2408 41.4303 20.5002 27.3335 37.5001 11.5836C45.4036 4.26121 54.4049 7.30929 61.5001 5.33361Z" fill="#45332B"/>
<mask id="mask0_0_4719" style="mask-type:alpha" maskUnits="userSpaceOnUse" x="33" y="7" width="78" height="111">
<path fill-rule="evenodd" clip-rule="evenodd" d="M33.7501 45.9585C33.7501 24.7645 50.9311 7.5835 72.1251 7.5835C93.3191 7.5835 110.5 24.7645 110.5 45.9585V64.0835L110.695 67.6375C110.979 72.8103 110.341 77.9923 108.811 82.9418L105.758 92.8183C102.739 102.582 95.4806 110.574 86.0871 114.6C77.2526 118.386 67.1363 118.339 58.3713 114.394C49.6103 110.452 42.9016 103.02 39.8743 93.9023L35.9768 82.1645C34.5018 77.7228 33.7501 73.0728 33.7501 68.3925V64.0835V45.9585Z" fill="white"/>
</mask>
<g mask="url(#mask0_0_4719)">
<path d="M57.4999 116.583C55.9879 115.741 43.6251 109.208 45.4999 102.333C47.3746 95.4582 57.1249 107.708 61.9999 111.583C66.8749 115.458 67.7506 113.208 72.1254 113.208C76.4999 113.208 78.3756 114.979 80.8751 112.333C83.3749 109.688 95.7304 96.3284 97.6249 101.583C101.5 112.333 87.4996 116.109 81.6246 117.833C73.8746 120.108 62.6619 119.458 57.4999 116.583Z" fill="#CAC4C1" fill-opacity="0.64"/>
<path d="M103 105.583C111.837 105.583 119 98.4201 119 89.5835C119 80.7469 111.837 73.5835 103 73.5835C94.1636 73.5835 87.0001 80.7469 87.0001 89.5835C87.0001 98.4201 94.1636 105.583 103 105.583Z" fill="#FEDFD5"/>
<path d="M43.2501 106.083C52.0867 106.083 59.2501 98.9201 59.2501 90.0835C59.2501 81.2469 52.0867 74.0835 43.2501 74.0835C34.4136 74.0835 27.2501 81.2469 27.2501 90.0835C27.2501 98.9201 34.4136 106.083 43.2501 106.083Z" fill="#FEDFD5"/>
<path d="M52.3082 66.5115L52.2991 66.5032L52.3746 66.5616C52.4093 66.5877 52.4488 66.6165 52.493 66.6476C52.7223 66.8091 52.9948 66.9754 53.3028 67.1319C54.22 67.5979 55.2136 67.8611 56.2358 67.8312C57.2439 67.8018 58.0925 67.5558 58.7995 67.1699C59.0489 67.0339 59.2564 66.8929 59.4198 66.7604L59.4928 66.699L59.5211 66.674L59.4895 66.7073C60.5257 65.5969 62.2659 65.5368 63.3763 66.573C64.4867 67.6092 64.5469 69.3493 63.5107 70.4597C63.3685 70.6121 63.1602 70.8083 62.8845 71.0319C62.4699 71.3682 61.987 71.6962 61.4344 71.9977C59.9938 72.784 58.3061 73.2731 56.3964 73.3289C54.3722 73.388 52.4955 72.891 50.8112 72.0351C50.2583 71.7542 49.7624 71.4517 49.3262 71.1444L49.1798 71.0396C48.9705 70.887 48.8073 70.7561 48.692 70.6556C47.5477 69.657 47.4295 67.9198 48.4281 66.7754C49.4267 65.6311 51.1638 65.5129 52.3082 66.5115Z" fill="#4E372B"/>
<path d="M84.8082 66.5115L84.7991 66.5032L84.8746 66.5616C84.9093 66.5877 84.9488 66.6165 84.993 66.6476C85.2223 66.8091 85.4948 66.9754 85.8028 67.1319C86.72 67.5979 87.7136 67.8611 88.7358 67.8312C89.7439 67.8018 90.5925 67.5558 91.2995 67.1699C91.5489 67.0339 91.7564 66.8929 91.9198 66.7604L91.9928 66.699L92.0211 66.674L91.9895 66.7073C93.0257 65.5969 94.7659 65.5368 95.8763 66.573C96.9867 67.6092 97.0469 69.3493 96.0107 70.4597C95.8685 70.6121 95.6602 70.8083 95.3845 71.0319C94.9699 71.3682 94.487 71.6962 93.9344 71.9977C92.4938 72.784 90.8061 73.2731 88.8964 73.3289C86.8722 73.388 84.9955 72.891 83.3112 72.0351C82.7583 71.7542 82.2624 71.4517 81.8262 71.1444L81.6798 71.0396C81.4705 70.887 81.3073 70.7561 81.192 70.6556C80.0477 69.657 79.9295 67.9198 80.9281 66.7754C81.9267 65.6311 83.6638 65.5129 84.8082 66.5115Z" fill="#4E372B"/>
<path d="M70.0264 67.7734L73.7238 69.869L73.5226 70.2274C71.7975 73.331 70.5617 76.3517 70.2942 78.7481L70.2769 78.9141C70.0251 81.5392 70.9441 82.6506 74.1704 82.6948L74.3751 82.6962V86.9462C68.2806 86.9462 65.4866 83.5059 66.0704 78.2765C66.4226 75.122 67.8779 71.5991 69.9127 67.9749L70.0264 67.7734Z" fill="#EBBAAA"/>
<path d="M49.0673 52.4026L65.8181 55.0196C66.4266 55.1146 66.8751 55.6386 66.8751 56.2546V59.0843C66.8751 59.8648 66.1681 60.4543 65.4003 60.3141L50.8266 57.6511C50.6126 57.6121 50.3918 57.6296 50.1868 57.7018L44.6651 59.6461C43.8521 59.9323 42.9998 59.3291 42.9998 58.4671V56.3666C42.9998 55.9241 43.2336 55.5148 43.6146 55.2898L48.2393 52.5611C48.4886 52.4141 48.7813 52.3581 49.0673 52.4026Z" fill="#1B1A1A" fill-opacity="0.92"/>
<path d="M97.5221 52.4016L80.9351 54.9526C80.3253 55.0463 79.8751 55.5711 79.8751 56.1881V59.0876C79.8751 59.8668 80.5803 60.4563 81.3471 60.3178L95.7513 57.7178C95.9656 57.6791 96.1861 57.6971 96.3911 57.7696L101.958 59.7426C102.771 60.0308 103.625 59.4276 103.625 58.5643V56.4066C103.625 55.9656 103.393 55.5571 103.014 55.3318L98.3503 52.5623C98.1011 52.4143 97.8083 52.3576 97.5221 52.4016Z" fill="#1B1A1A" fill-opacity="0.92"/>
<path d="M65.9838 -0.421892C69.6368 -0.767448 74.962 0.476731 81.4564 2.90385C86.2646 4.70078 91.5083 7.09223 95.5608 9.22986L95.8292 9.37198L94.4209 12.0209C90.4442 9.90665 85.1923 7.50268 80.4062 5.71402L80.0016 5.56386C74.0924 3.38576 69.2691 2.28073 66.2663 2.56478C62.3392 2.93625 59.0106 4.61851 54.6307 7.96058L54.3248 8.19621C53.6591 8.71578 51.107 10.727 50.3451 11.2921C48.8407 12.408 47.6234 13.1636 46.4356 13.6614L46.3128 13.7119L45.1873 10.9311C46.069 10.5742 47.0477 9.98413 48.2881 9.0809L48.558 8.88253C49.3423 8.30078 52.253 6.00367 52.6248 5.71799L52.9979 5.43333C57.6977 1.87226 61.4331 0.00857309 65.9838 -0.421892Z" fill="#382922"/>
<path d="M36.6074 40.514C38.2362 36.4418 47.1046 33.5095 53.1597 34.3114L53.3423 34.3368L52.9079 37.3052C48.0618 36.596 40.4052 39.0971 39.3928 41.6281C38.8953 42.8719 38.0658 44.1969 36.9353 45.6314C36.0569 46.7459 35.0141 47.9058 33.7797 49.1668L33.4516 49.4993C32.2019 50.7505 28.9027 53.8896 28.464 54.3527C27.8404 55.0109 27.7488 55.6786 28.1087 56.5011C28.4874 57.3667 29.3471 58.2829 30.4337 58.979L30.5396 59.0456L28.9605 61.5964C27.341 60.5939 26.0175 59.206 25.3602 57.7035C24.5335 55.814 24.8022 53.8558 26.2861 52.2894L26.3968 52.1757C27.1889 51.3761 30.4499 48.2717 31.457 47.2504C32.7015 45.9882 33.7345 44.8461 34.5791 43.7745C35.5467 42.5467 36.2325 41.4512 36.6074 40.514Z" fill="#382922"/>
<path d="M78.5582 10.4789C83.9956 9.93923 90.4115 10.0762 95.7051 10.6675L96.0487 10.7067L95.7015 13.6865C90.5448 13.0857 84.1791 12.9358 78.8545 13.4643L78.4588 13.505C72.0359 14.1892 67.6001 15.82 66.0069 18.2654C63.512 22.0947 59.1515 24.9198 53.3233 27.0712C51.0684 27.9036 48.7158 28.5931 46.0766 29.2391L45.541 29.3684C44.2164 29.6817 40.9986 30.3958 40.4986 30.5243L38.7274 30.9835C37.7203 31.2493 37.2633 31.3861 36.5043 31.6341C32.2946 33.0096 30.1177 34.7687 29.9985 37.3897L29.9017 39.5889C29.7721 42.3734 29.645 43.7808 29.3497 45.1655L29.3168 45.3165C28.8336 47.4906 27.9451 49.0087 26.412 49.8515L26.3211 49.9003L24.9291 47.2428L25.0071 47.1999C26.213 46.5019 26.6537 44.626 26.9085 39.3563L27.0016 37.2535C27.1066 34.9446 28.1744 33.0508 30.0143 31.564C31.4022 30.4426 33.1653 29.5857 35.3709 28.8491L35.9217 28.6694C36.698 28.4208 37.2553 28.2648 38.6229 27.91L39.8198 27.6017C40.5456 27.4227 43.7082 26.7204 44.9069 26.4356L45.0276 26.4067C47.7031 25.7617 50.0556 25.0796 52.2844 24.2569C57.4966 22.3328 61.3227 19.8724 63.4137 16.7483L63.4933 16.6278C65.7748 13.126 71.0765 11.2215 78.5582 10.4789Z" fill="#382922"/>
<path d="M69.6285 6.32509C76.2915 0.402433 84.0807 -2.54687 89.4781 -0.177274C91.6462 0.774579 93.5439 2.62295 95.1642 5.07564C96.3376 6.85183 97.3097 8.88639 97.8711 10.5635L97.9277 10.7357L95.0725 11.6567C93.8724 7.93607 91.1668 3.84051 88.2721 2.56966C84.2673 0.811466 77.6367 3.28933 71.7983 8.41128L71.6216 8.5673L69.6285 6.32509Z" fill="#382922"/>
<path d="M90.7324 23.0142L93.5178 24.1284C93.0875 25.2041 92.6693 26.9053 92.4826 28.426C92.3832 29.2357 92.3526 29.9594 92.3952 30.5324C92.43 31.0009 92.5112 31.3134 92.5748 31.4192L92.5829 31.4315L92.5913 31.4349L92.6258 31.4542C92.703 31.4964 92.8177 31.5401 92.9716 31.5819L93.0312 31.5974C93.3768 31.6845 93.7839 31.7416 94.5454 31.8144L95.7353 31.9256C96.8647 32.0365 97.4353 32.1206 98.2165 32.2974L98.286 32.3132C100.306 32.7772 101.964 33.6396 103.285 35.103L103.379 35.2085L101.121 37.184C100.242 36.1788 99.1108 35.5807 97.6146 35.2371L97.4418 35.1984C96.744 35.0463 96.1773 34.9771 94.7957 34.8502L94.2254 34.7975C93.3323 34.7118 92.826 34.6395 92.2983 34.5065C91.3747 34.2738 90.6608 33.8837 90.1655 33.2083C88.8172 31.3698 89.3725 26.5663 90.6455 23.2364L90.7324 23.0142Z" fill="#382922"/>
<path d="M61.8274 89.7202L63.2793 91.1721C62.6184 91.8329 61.8899 92.8205 61.4479 93.5551L61.3868 93.6583L59.6134 92.6235C60.1065 91.7784 60.9206 90.655 61.7187 89.8307L61.8274 89.7202Z" fill="#CAC3C1" fill-opacity="0.48"/>
<path d="M65.3197 90.0952L66.7715 91.5471C66.5789 91.7397 66.3931 91.9552 66.2127 92.1923C66.0244 92.44 65.848 92.7025 65.6708 92.9931L65.5481 93.1987L65.1369 93.9216L63.3633 92.8872L63.7376 92.2279C63.7671 92.1768 63.7938 92.1309 63.8155 92.0943C64.0604 91.6807 64.3058 91.3078 64.5785 90.9493C64.7735 90.6929 64.9767 90.4522 65.1903 90.2279L65.3197 90.0952Z" fill="#CAC3C1" fill-opacity="0.48"/>
<path d="M68.0264 90.3716L69.9742 91.0213C69.6714 91.9291 69.54 92.7643 69.5277 93.7839L69.5267 93.9464H67.4734C67.4734 92.6998 67.62 91.6471 67.9744 90.5314L68.0264 90.3716Z" fill="#CAC3C1" fill-opacity="0.48"/>
<path d="M70.7234 90.6963H72.7767L72.7769 93.8213H70.7237L70.7234 90.6963Z" fill="#CAC3C1" fill-opacity="0.48"/>
<path d="M75.4437 90.292C76.056 91.7207 76.3797 92.761 76.4006 93.8351L76.4017 93.9464H74.3485C74.3485 93.2228 74.1022 92.3919 73.6101 91.2269L73.5565 91.1008L75.4437 90.292Z" fill="#CAC3C1" fill-opacity="0.48"/>
<path d="M83.8869 92.8872L82.1134 93.9213L81.7641 93.2739C81.5538 92.8891 81.2969 92.4266 81.1379 92.1635L81.1136 92.1237C80.8145 91.6372 80.5319 91.2479 80.2754 90.9781L80.2209 90.9221L81.6727 89.4702C82.05 89.8475 82.4137 90.3324 82.7834 90.9207L82.9063 91.1201C83.2471 91.6873 83.8911 92.8858 83.8908 92.8934L83.8869 92.8872Z" fill="#CAC3C1" fill-opacity="0.48"/>
<path d="M78.0578 89.9836C78.5246 90.4505 78.9116 90.9328 79.2554 91.4506C79.3594 91.6073 79.456 91.7616 79.5549 91.9276L79.6801 92.1417L79.8868 92.5019L78.1134 93.5367L77.8563 93.0892C77.749 92.9053 77.6507 92.7458 77.5449 92.5864C77.3035 92.2228 77.0379 91.8849 76.7254 91.5577L76.6059 91.4355L78.0578 89.9836Z" fill="#CAC3C1" fill-opacity="0.48"/>
<path fill-rule="evenodd" clip-rule="evenodd" d="M63.0216 93.1963C64.6916 94.312 67.4428 95.4143 71.9553 95.4143C76.1886 95.4143 78.9678 94.5023 80.7481 93.2758C80.9128 93.9618 81.0001 94.6778 81.0001 95.4143C81.0001 100.454 77.0001 104.539 71.8751 104.539C66.7501 104.539 62.7501 100.454 62.7501 95.4143C62.7501 94.6493 62.8443 93.9063 63.0216 93.1963Z" fill="white"/>
</g>
</svg>
