<svg width="112" height="346" viewBox="0 0 112 346" fill="none" xmlns="http://www.w3.org/2000/svg">
<path d="M57.6967 227.806C71.3018 227.806 82.3309 221.022 82.3309 212.653C82.3309 204.284 71.3018 197.5 57.6967 197.5C44.0916 197.5 33.0625 204.284 33.0625 212.653C33.0625 221.022 44.0916 227.806 57.6967 227.806Z" fill="#3D3D3D"/>
<path d="M74.1619 267.702C77.7628 267.702 80.6887 270.591 80.7468 274.177L80.7477 274.286V315.253C80.7477 318.89 77.7992 321.837 74.1619 321.837C70.5611 321.837 67.6352 318.948 67.5771 315.362L67.5762 315.253V274.286C67.5762 270.649 70.5247 267.702 74.1619 267.702Z" fill="#6E5243"/>
<path d="M40.26 267.741C43.8395 267.35 47.0621 269.904 47.5096 273.462L47.5223 273.57L51.603 310.898C51.9982 314.512 49.3874 317.763 45.7717 318.158C42.1922 318.549 38.9697 315.995 38.5222 312.436L38.5094 312.328L34.4287 275.001C34.0336 271.386 36.6443 268.136 40.26 267.741Z" fill="#6E5243"/>
<path d="M23.1038 208.224H56.0326L54.8131 295.956L52.8617 302.835L34.202 301.859L26.0537 293.113L23.1038 208.224Z" fill="#3D3D3D"/>
<path d="M40.874 294.122C41.3297 294.122 41.7021 294.479 41.7264 294.929L41.7277 294.976V302.835C41.7277 303.63 40.7412 303.986 40.2311 303.396L40.2027 303.362L34.0253 295.503C33.7339 295.132 33.7983 294.596 34.169 294.304C34.527 294.023 35.0397 294.074 35.3368 294.411L35.3678 294.448L40.0202 300.367L40.0203 294.976C40.0203 294.52 40.3774 294.148 40.8271 294.123L40.874 294.122Z" fill="#272727"/>
<path d="M55.719 209.692H91.1987L91.3934 296.007L84.8149 301.128L65.7894 304.4L64.018 296.007L55.719 209.692Z" fill="#3D3D3D"/>
<path opacity="0.2" fill-rule="evenodd" clip-rule="evenodd" d="M27.6228 222.769L34.5986 203.233L38.694 204.754L31.7182 222.769H27.6228Z" fill="white"/>
<path opacity="0.2" fill-rule="evenodd" clip-rule="evenodd" d="M88.4022 222.769L81.4264 203.233L77.3311 204.754L84.3068 222.769H88.4022Z" fill="white"/>
<path d="M81.6638 295.451C81.9551 295.08 82.4918 295.015 82.8626 295.307C83.2206 295.588 83.293 296.098 83.0354 296.466L83.0066 296.505L79.6487 300.778L83.7539 298.345C84.1454 298.113 84.6472 298.23 84.8977 298.603L84.9236 298.644C85.1557 299.036 85.0389 299.537 84.6656 299.788L84.6246 299.814L76.5934 304.573C75.7931 305.048 74.9302 304.086 75.4603 303.347L75.4866 303.312L81.6638 295.451Z" fill="#272727"/>
<path d="M32.2508 299.909H53.3496L54.5692 301.854L53.3496 305.761L48.4713 307.341H34.0802L33.2264 305.761L33.7143 303.561L31.7629 303.074L32.2508 299.909Z" fill="black"/>
<path d="M65.0576 299.909L86.7662 300.269L84.9368 304.171L85.3027 306.244L80.0585 306.975H74.4484L63.96 305.756L65.0576 299.909Z" fill="black"/>
<path d="M55.4698 310.316C54.4293 308.626 52.0886 309.033 51.0483 309.445L51.3084 310.44C51.7418 310.523 52.8428 310.689 53.259 311.186C53.7792 311.806 53.389 313.049 53.7792 313.298C54.1693 313.547 55.2096 313.298 55.7298 313.298C56.2499 313.298 56.7702 312.427 55.4698 310.316Z" fill="black"/>
<path d="M9.37709 340.955C9.1001 340.272 9.14778 338.792 10.8556 338.109C12.5635 337.426 32.717 340.955 32.717 340.955C37.9052 340.53 51.8397 333.732 56.9697 336.856C58.593 337.843 58.043 340.974 57.4437 343.903C56.4848 344.88 46.7862 345.734 43.6416 345.002C43.6416 343.293 43.3967 342.196 43.3967 342.196C43.3967 342.196 41.4917 343.425 39.435 343.903C35.2406 344.88 34.3228 345.963 21.331 345.963C10.9111 344.985 10.1617 342.888 9.37709 340.955Z" fill="#383129"/>
<path fill-rule="evenodd" clip-rule="evenodd" d="M56.5064 339.009C56.1581 339.255 55.7544 339.451 55.2472 339.619L55.1753 339.403C55.6623 339.241 56.0461 339.056 56.3748 338.823L56.5064 339.009ZM11.2291 340.597C10.7931 340.268 10.441 339.948 10.1992 339.663L10.373 339.515C10.6028 339.787 10.9428 340.096 11.3663 340.416L11.2291 340.597ZM13.5839 342.017C13.1584 341.809 12.7533 341.589 12.3743 341.363L12.4911 341.167C12.8647 341.391 13.2642 341.607 13.684 341.812L13.5839 342.017ZM14.8403 342.574C15.2615 342.742 15.6935 342.897 16.134 343.037L16.2031 342.82C15.7678 342.682 15.341 342.529 14.9249 342.362L14.8403 342.574ZM18.809 343.679C18.356 343.605 17.9065 343.514 17.4617 343.408L17.5148 343.186C17.9543 343.292 18.3983 343.381 18.8457 343.454L18.809 343.679ZM20.177 343.85C20.6339 343.889 21.0919 343.91 21.5504 343.914L21.552 343.686C21.0996 343.683 20.6475 343.661 20.1965 343.623L20.177 343.85ZM24.2863 343.873C23.8339 343.887 23.3779 343.898 22.9184 343.905L22.915 343.677C23.3733 343.67 23.828 343.66 24.2791 343.646L24.2863 343.873ZM25.6524 343.819C26.1121 343.796 26.5675 343.77 27.0184 343.74L27.0032 343.513C26.5537 343.543 26.0997 343.569 25.6414 343.591L25.6524 343.819ZM29.7446 343.507C29.2963 343.554 28.8422 343.597 28.3826 343.637L28.3633 343.41C28.8214 343.371 29.274 343.328 29.7209 343.281L29.7446 343.507ZM31.1055 343.351C31.5649 343.293 32.0169 343.232 32.4612 343.166L32.428 342.941C31.9853 343.006 31.5349 343.068 31.0771 343.125L31.1055 343.351ZM35.1584 342.703C34.7206 342.789 34.2716 342.872 33.8122 342.951L33.7737 342.727C34.2312 342.648 34.6783 342.566 35.1142 342.479L35.1584 342.703ZM36.4986 342.418C36.9595 342.313 37.4035 342.204 37.829 342.091L37.7709 341.871C37.3479 341.983 36.9064 342.091 36.448 342.196L36.4986 342.418ZM40.4586 341.336L39.1474 341.72L39.0837 341.501L40.3944 341.118L40.4586 341.336ZM41.7686 340.948L42.6733 340.678C42.8137 340.635 42.9486 340.595 43.0774 340.556L43.0114 340.338L41.7036 340.73L41.7686 340.948ZM44.3574 340.301L44.3746 340.074C44.6859 340.097 45.0246 340.12 45.3776 340.14L45.735 340.16L45.7231 340.387C45.3606 340.368 45.0082 340.347 44.6787 340.324L44.3574 340.301ZM47.0901 340.444C47.5569 340.459 48.0152 340.468 48.4587 340.47L48.4602 340.243C48.0186 340.24 47.5621 340.231 47.0972 340.217L47.0901 340.444ZM51.1992 340.386C50.7832 340.421 50.3247 340.444 49.829 340.458L49.8228 340.23C50.3146 340.217 50.769 340.193 51.1806 340.16L51.1992 340.386ZM52.5266 339.986L52.5638 340.211L52.9763 340.141C53.3263 340.08 53.6337 340.022 53.912 339.964L53.8656 339.741L53.653 339.785C53.3253 339.849 52.9562 339.915 52.5266 339.986Z" fill="#67513B"/>
<path d="M39.6626 308.967C40.7726 308.967 47.2498 312.366 50.6108 309.731C50.9801 309.44 51.7318 309.679 51.7323 310.148C51.7384 314.678 51.8055 322.554 52.4841 325.678C53.2031 328.989 53.81 328.516 54.5288 331.589C55.0267 333.717 56.6387 338.682 54.5288 338.682H44.9065C42.63 338.682 39.5552 341.325 31.974 342.069C19.3894 343.3 16.3141 341.613 13.8014 340.816C8.08405 339.004 10.9855 334.856 13.8013 333.53C17.9264 331.589 23.8383 330.13 26.8454 328.523C29.187 327.27 29.9912 326.88 31.1935 325.563C33.1756 323.391 34.9169 311.964 35.1859 308.98C35.2045 308.772 35.4964 308.665 35.6735 308.775C36.8463 309.496 38.562 308.967 39.6626 308.967Z" fill="#6C3F2E"/>
<path d="M14.4952 337.129C14.6228 336.708 15.0679 336.47 15.4891 336.598C18.9444 337.645 21.5041 337.92 25.3374 337.117C25.7683 337.027 26.1907 337.303 26.281 337.733C26.3713 338.164 26.0952 338.586 25.6644 338.677C23.3532 339.161 21.2509 339.259 19.2622 339.045C17.8 338.888 16.6768 338.623 15.0268 338.123C14.6055 337.995 14.3675 337.55 14.4952 337.129Z" fill="white"/>
<path d="M29.8706 332.759C32.1003 330.708 40.232 326.131 39.6627 308.967C40.6288 308.967 42.9646 310.221 46.4943 310.447C50.2014 310.335 50.1404 310.001 51.1219 309.448C51.1485 309.431 51.1795 309.409 51.2048 309.392C52.7442 308.355 52.052 324.905 53.1569 327.838C54.0487 330.206 55.721 333.759 55.721 338.085C54.9407 339.45 47.248 338.767 44.7952 338.767C43.6478 332.644 34.6526 337.312 32.7171 336.743C31.018 336.243 29.8706 335.263 29.8706 332.759Z" fill="#3A1719"/>
<path d="M32.6037 325.383C35.1541 323.378 36.1334 313.634 36.2471 308.967C35.7917 308.855 35.6778 308.536 35.3363 308.65C34.9948 308.765 34.9948 310.13 34.8809 311.269C34.7562 312.515 33.8559 316.39 33.4006 319.009C32.9452 321.625 32.4898 323.22 30.7819 325.383C29.4154 327.114 24.0639 328.889 22.356 330.367C22.5457 330.33 23.0391 330.072 23.4946 330.165C24.0639 330.277 23.95 330.391 24.6332 330.391C25.3164 330.391 29.4154 327.887 32.6037 325.383Z" fill="#1D1D20"/>
<path d="M35.1374 309.699C35.2326 309.414 35.5327 309.254 35.8201 309.328L35.8575 309.339L40.6397 310.932C41.1567 311.104 41.155 311.825 40.6578 312.005L40.6164 312.019L37.2174 312.991L39.9232 314.382C40.3936 314.623 40.3056 315.312 39.8071 315.438L39.7669 315.447L36.8162 315.995L39.8723 317.204C40.3561 317.395 40.3467 318.074 39.8773 318.261L39.836 318.276L35.8554 319.545L39.3385 321.204C39.8411 321.443 39.7334 322.179 39.2011 322.277L39.1614 322.283L34.8777 322.796L37.8409 325.018C38.2682 325.338 38.0572 326.009 37.5379 326.041L37.4994 326.042L32.9808 326.042L36.0744 329.049C36.4762 329.44 36.1311 330.106 35.592 330.02L35.5558 330.013L29.7182 328.736L32.041 331.971C32.379 332.442 31.881 333.049 31.3611 332.829L31.3279 332.814L25.521 329.968C25.2387 329.83 25.122 329.489 25.2604 329.207C25.3928 328.937 25.7106 328.818 25.985 328.93L26.0222 328.946L29.795 330.795L27.928 328.194C27.631 327.781 27.9849 327.222 28.4761 327.3L28.5123 327.307L33.8499 328.475L31.1816 325.881C30.8246 325.534 31.0549 324.935 31.5397 324.905L31.5785 324.904L35.791 324.904L33.0588 322.856C32.6588 322.556 32.814 321.931 33.293 321.841L33.3325 321.835L37.0745 321.387L34.0665 319.954C33.614 319.739 33.6445 319.093 34.0973 318.913L34.1383 318.898L37.9699 317.676L34.5574 316.327C34.0389 316.122 34.0976 315.38 34.6225 315.247L34.6628 315.238L37.9206 314.632L35.4173 313.346C34.9711 313.116 35.0216 312.471 35.4806 312.305L35.5209 312.292L38.5343 311.43L35.4977 310.419C35.2118 310.324 35.0517 310.024 35.1263 309.737L35.1374 309.699Z" fill="black"/>
<path d="M63.0404 310.316C64.0807 308.626 66.4213 309.033 67.4619 309.445L67.2016 310.44C66.7682 310.523 65.6671 310.689 65.251 311.186C64.7307 311.806 65.121 313.049 64.7307 313.298C64.3407 313.547 63.3004 313.298 62.7801 313.298C62.2601 313.298 61.7398 312.427 63.0404 310.316Z" fill="black"/>
<path d="M109.133 340.955C109.41 340.272 109.362 338.792 107.654 338.109C105.947 337.426 85.7929 340.955 85.7929 340.955C80.6047 340.53 66.6702 333.732 61.5402 336.856C59.9169 337.843 60.4669 340.974 61.0662 343.903C62.0251 344.88 71.7237 345.734 74.8683 345.002C74.8683 343.293 75.1132 342.196 75.1132 342.196C75.1132 342.196 77.0184 343.425 79.0749 343.903C83.2693 344.88 84.1871 345.963 97.1789 345.963C107.599 344.985 108.348 342.888 109.133 340.955Z" fill="#383129"/>
<path fill-rule="evenodd" clip-rule="evenodd" d="M62.1355 338.823C62.4642 339.056 62.8479 339.241 63.3349 339.403L63.2631 339.619C62.7559 339.451 62.3522 339.255 62.0039 339.009L62.1355 338.823ZM107.144 340.416C107.567 340.096 107.907 339.786 108.137 339.515L108.311 339.662C108.069 339.948 107.717 340.268 107.281 340.597L107.144 340.416ZM104.826 341.812C105.246 341.607 105.645 341.39 106.019 341.167L106.136 341.363C105.757 341.589 105.352 341.809 104.926 342.017L104.826 341.812ZM103.585 342.362C103.169 342.529 102.742 342.682 102.307 342.82L102.376 343.037C102.817 342.897 103.249 342.742 103.67 342.574L103.585 342.362ZM99.6646 343.454C100.112 343.381 100.556 343.291 100.995 343.186L101.049 343.407C100.604 343.514 100.154 343.605 99.7013 343.679L99.6646 343.454ZM98.3138 343.622C97.8628 343.661 97.4107 343.682 96.9583 343.686L96.9599 343.913C97.4183 343.91 97.8764 343.888 98.3332 343.849L98.3138 343.622ZM94.2308 343.646C94.6819 343.66 95.1366 343.67 95.5949 343.677L95.5915 343.905C95.132 343.898 94.676 343.887 94.2236 343.873L94.2308 343.646ZM92.8687 343.591C92.4103 343.569 91.9563 343.542 91.5068 343.513L91.4917 343.74C91.9426 343.77 92.3979 343.796 92.8576 343.818L92.8687 343.591ZM88.7891 343.281C89.236 343.328 89.6886 343.371 90.1467 343.41L90.1274 343.636C89.6678 343.597 89.2137 343.554 88.7654 343.507L88.7891 343.281ZM87.4329 343.125C86.9752 343.068 86.5248 343.006 86.0821 342.941L86.0488 343.166C86.4932 343.232 86.9452 343.293 87.4046 343.351L87.4329 343.125ZM83.3958 342.479C83.8317 342.565 84.2788 342.648 84.7363 342.726L84.6978 342.951C84.2384 342.872 83.7894 342.789 83.3516 342.702L83.3958 342.479ZM82.0621 342.196C81.6038 342.091 81.1623 341.983 80.7392 341.871L80.6812 342.091C81.1067 342.203 81.5506 342.312 82.0115 342.417L82.0621 342.196ZM78.1158 341.117L79.4264 341.501L79.3627 341.72L78.0515 341.336L78.1158 341.117ZM76.8064 340.73L75.4986 340.338L75.4326 340.555L76.7414 340.948L76.8064 340.73ZM74.1355 340.073L74.1526 340.3C73.84 340.324 73.5001 340.347 73.1457 340.367L72.787 340.387L72.7751 340.159C73.1364 340.141 73.4875 340.119 73.8156 340.097L74.1355 340.073ZM71.4125 340.216C70.9476 340.231 70.4911 340.24 70.0496 340.243L70.051 340.47C70.4945 340.467 70.9528 340.458 71.4196 340.444L71.4125 340.216ZM67.3294 340.159C67.7411 340.193 68.1955 340.216 68.6873 340.23L68.6811 340.457C68.1853 340.444 67.7268 340.42 67.3108 340.386L67.3294 340.159ZM65.9462 340.211L65.9834 339.986L65.7058 339.94C65.3022 339.871 64.9548 339.806 64.6445 339.741L64.5981 339.964L64.8125 340.008C65.1429 340.073 65.5144 340.139 65.9462 340.211Z" fill="#67513B"/>
<path d="M78.8474 308.967C77.7373 308.967 71.2601 312.366 67.8992 309.731C67.5299 309.44 66.7781 309.679 66.7777 310.148C66.7716 314.678 66.7045 322.554 66.0257 325.678C65.3068 328.989 64.7 328.516 63.9809 331.589C63.4833 333.717 61.8713 338.682 63.9809 338.682H73.6034C75.8799 338.682 78.9547 341.325 86.5359 342.069C99.1206 343.3 102.196 341.613 104.708 340.816C110.426 339.004 107.525 334.856 104.708 333.53C100.584 331.589 94.6715 330.13 91.6645 328.523C89.3229 327.27 88.5187 326.88 87.3165 325.563C85.3344 323.391 83.5931 311.964 83.324 308.98C83.3055 308.772 83.0135 308.665 82.8362 308.775C81.6637 309.496 79.948 308.967 78.8474 308.967Z" fill="#6C3F2E"/>
<path d="M103.021 336.598C103.442 336.47 103.887 336.708 104.015 337.129C104.143 337.55 103.905 337.995 103.483 338.123L103.111 338.234C101.658 338.663 100.598 338.9 99.2479 339.045C97.2592 339.259 95.157 339.161 92.8459 338.677C92.415 338.586 92.139 338.164 92.2293 337.733C92.3196 337.303 92.742 337.027 93.1728 337.117C97.0061 337.92 99.5656 337.645 103.021 336.598Z" fill="white"/>
<path d="M88.6397 332.759C86.4098 330.708 78.2781 326.131 78.8474 308.967C77.8812 308.967 75.5454 310.221 72.0157 310.447C68.3089 310.335 68.3696 310.001 67.3881 309.448C67.3615 309.431 67.3306 309.409 67.3052 309.392C65.7658 308.355 66.4581 324.905 65.3531 327.838C64.4614 330.206 62.7891 333.759 62.7891 338.085C63.5694 339.45 71.262 338.767 73.7148 338.767C74.8622 332.644 83.8574 337.312 85.7929 336.743C87.492 336.243 88.6397 335.263 88.6397 332.759Z" fill="#3A1719"/>
<path d="M85.9063 325.383C83.3559 323.378 82.3766 313.634 82.2629 308.967C82.7183 308.855 82.8322 308.536 83.1737 308.65C83.5155 308.765 83.5155 310.13 83.6291 311.269C83.7538 312.515 84.6541 316.39 85.1095 319.009C85.5648 321.625 86.0202 323.22 87.7281 325.383C89.0946 327.114 94.4461 328.889 96.154 330.367C95.9643 330.33 95.4708 330.072 95.0154 330.165C94.4461 330.277 94.56 330.391 93.8768 330.391C93.1936 330.391 89.0946 327.887 85.9063 325.383Z" fill="#1D1D20"/>
<path d="M82.6526 309.339C82.9509 309.24 83.2733 309.401 83.3727 309.699C83.4679 309.985 83.3237 310.293 83.049 310.406L83.0124 310.419L79.9755 311.43L82.9891 312.292C83.4714 312.43 83.5477 313.073 83.1299 313.325L83.0928 313.346L80.5892 314.632L83.8473 315.238C84.3954 315.34 84.4801 316.079 83.9905 316.31L83.9527 316.327L80.5402 317.676L84.372 318.898C84.8496 319.05 84.9067 319.694 84.4825 319.934L84.4438 319.954L81.4356 321.387L85.1775 321.835C85.6739 321.895 85.8526 322.514 85.4825 322.831L85.4513 322.856L82.7188 324.904L86.9315 324.904C87.4295 324.904 87.6817 325.493 87.3554 325.853L87.3284 325.881L84.6599 328.475L89.998 327.307C90.4956 327.198 90.8684 327.744 90.6029 328.164L90.5823 328.194L88.7151 330.795L92.4879 328.946C92.758 328.814 93.0817 328.915 93.2305 329.171L93.2497 329.207C93.3821 329.477 93.2811 329.8 93.0249 329.949L92.9891 329.968L87.1821 332.814C86.6617 333.069 86.1458 332.477 86.4486 332.001L86.469 331.971L88.7919 328.736L82.9543 330.013C82.4069 330.133 82.0411 329.478 82.41 329.076L82.4356 329.049L85.529 326.042L81.0107 326.042C80.4766 326.042 80.2426 325.378 80.639 325.042L80.6692 325.018L83.6321 322.796L79.3489 322.283C78.796 322.217 78.6631 321.485 79.1362 321.222L79.1719 321.204L82.6547 319.545L78.6744 318.276C78.1787 318.118 78.1421 317.44 78.5977 317.222L78.638 317.204L81.6941 315.995L78.7434 315.447C78.2234 315.351 78.1101 314.666 78.5511 314.402L78.5871 314.382L81.2924 312.991L77.8937 312.019C77.3697 311.869 77.3406 311.148 77.8296 310.947L77.8704 310.932L82.6526 309.339Z" fill="black"/>
<path fill-rule="evenodd" clip-rule="evenodd" d="M67.6659 110.763C67.6698 110.764 67.6554 110.792 67.6109 110.843C67.6397 110.788 67.662 110.763 67.6659 110.763ZM66.4164 111.696C66.3597 111.664 66.3009 111.633 66.2393 111.6C64.3715 110.614 61.3017 109.79 57.5227 109.79C53.7438 109.79 50.674 110.614 48.8062 111.6C48.7447 111.633 48.6858 111.664 48.6292 111.696C48.6858 111.727 48.7447 111.759 48.8062 111.791C50.674 112.777 53.7438 113.601 57.5227 113.601C61.3017 113.601 64.3715 112.777 66.2393 111.791C66.3009 111.759 66.3597 111.727 66.4164 111.696ZM47.3796 110.763C47.3835 110.763 47.4055 110.788 47.4346 110.843C47.3901 110.792 47.3757 110.764 47.3796 110.763ZM47.3796 112.628C47.3757 112.627 47.3901 112.599 47.4346 112.548C47.4055 112.603 47.3835 112.629 47.3796 112.628ZM67.6109 112.548C67.6554 112.599 67.6698 112.627 67.6659 112.628C67.662 112.629 67.6397 112.603 67.6109 112.548ZM57.5221 120.675C76.6865 120.921 74.5301 116.655 74.5301 111.696C74.5301 106.736 66.9153 102.716 57.5221 102.716C48.129 102.716 40.5144 106.736 40.5144 111.696C40.5144 116.655 38.358 120.43 57.5221 120.675Z" fill="black"/>
<path opacity="0.5" d="M87.5723 82.45C92.9676 82.45 97.341 78.0817 97.341 72.6929C97.341 67.3043 92.9676 62.9358 87.5723 62.9358C82.1772 62.9358 77.8035 67.3043 77.8035 72.6929C77.8035 78.0817 82.1772 82.45 87.5723 82.45Z" fill="#C99584"/>
<path d="M24.7688 85.1726C19.3736 85.1726 15 76.0539 15 67.814C15 59.5744 19.3736 55.334 24.7688 55.334C30.1638 55.334 34.5376 62.0137 34.5376 70.2533C34.5376 78.4932 30.1638 85.1726 24.7688 85.1726Z" fill="#7B5B4A"/>
<path d="M89.6282 85.1726C95.0232 85.1726 99.3969 76.0539 99.3969 67.814C99.3969 59.5744 95.0232 55.334 89.6282 55.334C84.2331 55.334 79.8594 62.0137 79.8594 70.2533C79.8594 78.4932 84.2331 85.1726 89.6282 85.1726Z" fill="#7B5B4A"/>
<path d="M21.7243 48.3806C20.7725 28.4171 36.721 11.7111 56.7311 11.7111C76.7413 11.7111 92.6898 28.4171 91.7378 48.3806L90.1177 82.364C89.269 100.164 74.5729 114.16 56.7311 114.16C38.8894 114.16 24.1932 100.164 23.3445 82.364L21.7243 48.3806Z" fill="#8D6956"/>
<path d="M20.3084 44.9502C21.3062 35.9459 20.8243 37.0877 25.1593 27.4665C29.4939 17.8451 33.3233 24.7596 29.4939 28.904C25.6648 33.0483 25.1593 40.1256 25.1593 40.1256L22.9162 67.0276C22.8777 67.4749 22.5375 67.8147 22.1316 67.8147C21.7075 67.8147 21.3606 67.4474 21.3424 66.9825C21.3424 66.9825 19.3106 53.9545 20.3084 44.9502Z" fill="#281515"/>
<path d="M92.8896 43.5586C91.8917 34.5543 92.3735 35.6961 88.0386 26.0749C83.7037 16.4535 79.8746 23.3681 83.7037 27.5124C87.5331 31.6567 88.0386 38.734 88.0386 38.734L90.2816 65.6357C90.3201 66.0831 90.6603 66.4231 91.0662 66.4231C91.4904 66.4231 91.8372 66.0558 91.8556 65.5909C91.8556 65.5909 93.8872 52.563 92.8896 43.5586Z" fill="#281515"/>
<path d="M33.8224 52.74C32.8647 53.4333 31.5222 53.2451 30.7941 52.3037C30.052 51.3442 30.2292 49.9655 31.1899 49.2243C31.3548 49.097 31.6137 48.9227 31.9675 48.7191C32.5096 48.4071 33.1477 48.102 33.882 47.8217C36.1811 46.9444 38.9568 46.4759 42.1977 46.6104C44.9606 46.7251 47.1741 47.0748 48.9029 47.5991C50.3443 48.0362 51.273 48.5328 51.7835 48.9742C52.7013 49.7677 52.8013 51.1541 52.0068 52.0709C51.2429 52.9523 49.9302 53.0786 49.0144 52.3815L48.9866 52.3597L48.9372 52.3292C48.9206 52.3194 48.9014 52.3084 48.8796 52.2964L48.8448 52.2775C48.5651 52.1279 48.1642 51.9637 47.6256 51.8003C46.2698 51.3891 44.4218 51.0972 42.0152 50.9973C39.3802 50.888 37.1994 51.2561 35.4509 51.9233C34.9366 52.1196 34.5072 52.3249 34.1622 52.5235L34.0591 52.5842C34.027 52.6035 33.9973 52.6219 33.9699 52.6393L33.8738 52.7014L33.8224 52.74Z" fill="#3D2020"/>
<path d="M64.9718 52.74C64.0141 53.4333 62.6716 53.2451 61.9435 52.3037C61.2014 51.3442 61.3786 49.9655 62.3393 49.2243C62.5042 49.097 62.7631 48.9227 63.1169 48.7191C63.659 48.4071 64.2971 48.102 65.0314 47.8217C67.3305 46.9444 70.1062 46.4759 73.3471 46.6104C76.11 46.7251 78.3236 47.0748 80.0523 47.5991C81.4937 48.0362 82.4224 48.5328 82.9329 48.9742C83.8507 49.7677 83.9507 51.1541 83.1562 52.0709C82.3923 52.9523 81.0796 53.0786 80.1638 52.3815L80.136 52.3597L80.0866 52.3292C80.07 52.3194 80.0508 52.3084 80.029 52.2964L79.9943 52.2775C79.7145 52.1279 79.3136 51.9637 78.775 51.8003C77.4192 51.3891 75.5712 51.0972 73.1646 50.9973C70.5296 50.888 68.3489 51.2561 66.6003 51.9233C66.086 52.1196 65.6566 52.3249 65.3116 52.5235L65.2085 52.5842C65.1764 52.6035 65.1467 52.6219 65.1193 52.6393L65.0232 52.7014L64.9718 52.74Z" fill="#3D2020"/>
<path d="M37.4495 58.2141C38.7354 57.7977 40.2807 57.5901 42.0771 57.6828C43.485 57.7555 44.6408 57.9249 45.5734 58.1703C46.4858 58.4104 47.1118 58.7012 47.5009 58.994C48.4705 59.7235 48.6644 61.1 47.9341 62.0684C47.2313 63.0003 45.9287 63.2148 44.9675 62.5797L44.9086 62.5396C44.963 62.5785 44.9927 62.5961 44.9927 62.5961C44.8945 62.5505 44.7395 62.4944 44.5209 62.4343L44.4534 62.4161C43.8267 62.2512 42.9683 62.1254 41.8503 62.0677C40.5939 62.0028 39.5846 62.1384 38.8053 62.3908C38.6297 62.4476 38.4851 62.5046 38.3707 62.5576L38.2841 62.6L38.2613 62.612L38.2538 62.6172C37.2657 63.2262 35.9712 62.9607 35.3034 62.0121L35.2655 61.9567C34.5973 60.9444 34.8772 59.5828 35.8907 58.9154C36.2205 58.6982 36.7395 58.444 37.4495 58.2141Z" fill="#252525"/>
<path d="M66.973 58.2141C68.2589 57.7977 69.8042 57.5901 71.6006 57.6828C73.0084 57.7555 74.1643 57.9249 75.0969 58.1703C76.0093 58.4104 76.6352 58.7012 77.0243 58.994C77.9939 59.7235 78.1879 61.1 77.4575 62.0684C76.7547 63.0003 75.4521 63.2148 74.4909 62.5797L74.432 62.5396C74.4864 62.5785 74.5161 62.5961 74.5161 62.5961C74.4179 62.5505 74.2629 62.4944 74.0443 62.4343L73.9768 62.4161C73.3501 62.2512 72.4917 62.1254 71.3737 62.0677C70.1173 62.0028 69.1081 62.1384 68.3289 62.3908C68.1534 62.4476 68.0087 62.5046 67.8945 62.5576L67.8258 62.5907L67.787 62.611L67.7776 62.6171C66.7896 63.2262 65.4951 62.9608 64.8271 62.0123L64.7893 61.9568C64.121 60.9446 64.4008 59.583 65.4143 58.9155C65.744 58.6983 66.2631 58.4441 66.973 58.2141Z" fill="#252525"/>
<path d="M55.7918 59.2107L59.6242 60.8056C58.3379 63.8891 57.3417 68.4661 57.3417 71.9606C57.3417 73.8549 57.6257 75.3489 58.1489 76.2896C58.5848 77.0733 59.1415 77.4284 60.0675 77.4481L60.1502 77.4489V81.5957C57.6381 81.5957 55.6876 80.4032 54.5196 78.3034C53.5987 76.6477 53.1899 74.4976 53.1899 71.9606C53.1899 67.9634 54.2649 62.9558 55.7151 59.3967L55.7918 59.2107Z" fill="#7B5B4A"/>
<path fill-rule="evenodd" clip-rule="evenodd" d="M57.3553 2.20598L57.3551 2.20581C57.3395 2.20581 57.3238 2.20581 57.3082 2.20586C57.2926 2.20581 57.277 2.20581 57.2613 2.20581L57.2611 2.20598C47.2659 2.24503 21.664 11.9206 20.7646 41.2189C23.4222 37.61 24.5481 37.8837 28.1936 35.5286C31.1264 33.634 32.4689 30.5554 40.3071 28.5472C48.1451 26.5387 52.1237 30.2449 57.2611 30.2449C61.2687 30.2449 65.959 27.2082 71.5702 29.0253C77.1816 30.8423 81.2627 34.1226 83.8617 35.5286C89.1564 38.3928 87.5101 36.9497 92.6849 41.2189C91.7854 11.9206 67.35 2.24503 57.3553 2.20598Z" fill="#342929"/>
<path d="M29.4984 11.7181L27.6768 19.8595L55.3434 14.0768L87.4349 22.4803L87.1906 15.6901L84.8852 14.7715L84.7389 12.17L81.8811 12.3554L81.6547 8.33482L77.9804 8.57316L76.9908 5.55159L73.7246 5.76346L71.6124 2.81473L68.2973 3.97923L67.1702 2.15341L63.6999 2.37854L63.5802 0.25L59.005 2.68308L57.6603 0.634014L55.7388 2.89495L53.5777 0.898851L49.8189 3.27897L47.2495 1.30935L44.7155 3.61003L42.8782 3.72921L40.9433 5.75363L40.0204 3.91459L36.7764 8.16024L34.4775 7.35989L31.7772 12.1637L29.4984 11.7181Z" fill="#342929"/>
<path fill-rule="evenodd" clip-rule="evenodd" d="M45.0637 87.6151V90.6083C45.0637 95.2159 50.5845 98.9497 57.3922 98.9497C64.2022 98.9497 69.7206 95.2159 69.7206 90.6083V87.6151H45.0637Z" fill="#393939"/>
<mask id="mask0_0_4189" style="mask-type:alpha" maskUnits="userSpaceOnUse" x="45" y="87" width="25" height="12">
<path fill-rule="evenodd" clip-rule="evenodd" d="M45.0837 87.6122C45.0703 87.7666 45.0637 87.9222 45.0637 88.0781V90.9935C45.0637 95.3883 50.5845 98.9497 57.3922 98.9497C64.2022 98.9497 69.7206 95.3883 69.7206 90.9935V88.0781C69.7206 87.9222 69.714 87.7666 69.7006 87.6122H45.0837Z" fill="white"/>
</mask>
<g mask="url(#mask0_0_4189)">
<path d="M57.3925 101.624C61.4986 101.624 64.8273 100.398 64.8273 98.8862C64.8273 97.374 61.4986 96.1481 57.3925 96.1481C53.2862 96.1481 49.9575 97.374 49.9575 98.8862C49.9575 100.398 53.2862 101.624 57.3925 101.624Z" fill="#FF6C6C"/>
</g>
<rect x="45.0637" y="87.6151" width="24.6576" height="3.43852" fill="white"/>
<path opacity="0.2" d="M52.1708 27.1475C50.5335 26.1965 50.2842 22.3366 50.2839 20.1953C50.2837 18.0539 51.1614 16.8856 51.1614 16.8856C51.1614 16.8856 52.751 24.0987 56.3977 27.4144C58.2247 29.0755 54.2173 28.3364 52.1708 27.1475Z" fill="#8D5454"/>
<path opacity="0.2" d="M42.3857 25.7179C40.2419 23.464 40.6918 22.2242 41.031 18.7304C41.37 15.2366 45.2059 12.9825 45.2059 12.9825C45.2059 12.9825 46.2402 23.424 50.6225 27.4085C52.818 29.4048 44.5292 27.972 42.3857 25.7179Z" fill="#8D5454"/>
<path d="M96.1076 82.7709C98.0054 81.3619 100.464 80.6125 103.175 81.0877C105.692 81.5291 107.571 82.8544 108.876 84.5435C109.544 85.4095 109.977 86.2556 110.301 87.1316C110.628 88.0146 110.809 88.8372 110.936 89.7401C111.202 91.6235 111.244 94.304 111.125 97.8348L111.118 98.0435C110.875 104.971 110.029 114.373 108.829 122.98L108.698 123.913C107.267 133.908 105.482 142.1 103.321 147.527C102.571 149.41 101.749 151.042 100.782 152.456C99.3019 154.619 97.4838 156.32 94.9981 157.33C91.5327 158.738 87.7814 158.256 84.7376 156.22C82.7308 154.878 81.2253 153.045 79.931 150.748C77.4814 146.402 79.0159 140.891 83.3583 138.439C84.7044 137.679 86.1624 137.302 87.6064 137.274L87.7182 137.272L87.7608 137.12C88.8703 133.105 89.9476 127.533 90.8666 121.059L90.9476 120.483L91.0438 119.785C92.1088 111.97 92.8604 103.512 93.0746 97.409L93.0899 96.9461C93.1041 96.4905 93.1147 96.0567 93.1217 95.647L93.1263 95.3398L93.0733 95.2438C91.9038 93.0892 91.6109 90.4708 92.4703 87.9802L92.5202 87.8394C92.8623 86.8977 93.243 86.0695 93.8098 85.2115C94.3929 84.3287 95.1023 83.5173 96.1076 82.7709Z" fill="#6E5243"/>
<path d="M20.0936 129.531C20.5454 124.269 24.3257 119.895 29.4626 118.689L57.1885 115.952L85.4344 118.689C90.5712 119.895 94.3514 124.269 94.8033 129.531L98.9254 177.531L95.2656 201.07L93.5446 203.785C93.0971 204.49 92.3198 204.918 91.4846 204.918H22.071L19.6312 201.07L15.9714 177.531L20.0936 129.531Z" fill="black"/>
<path d="M22.0708 204.918H92.8257L93.5115 208.625C93.7894 210.127 92.638 211.512 91.1127 211.512H23.7841C22.2586 211.512 21.1072 210.127 21.385 208.625L22.0708 204.918Z" fill="black"/>
<rect x="48.5559" y="71.9672" width="7.95439" height="2.17576" rx="0.422035" fill="#636363"/>
<path d="M47.8496 75.3291C47.8496 73.7923 51.8858 72.5464 53.4212 72.5464H104.693C106.228 72.5464 107.473 73.7923 107.473 75.3291V101.423C107.473 102.96 106.228 104.206 104.693 104.206H50.6298C49.0944 104.206 47.8496 102.96 47.8496 101.423V75.3291Z" fill="#121413"/>
<path d="M47.8496 78.1511H62.8135C64.3492 78.1511 65.5937 79.3968 65.5937 80.9338V99.3369C65.5937 100.874 64.3492 102.12 62.8135 102.12H47.8496V78.1511Z" fill="#434448"/>
<g opacity="0.2">
<path fill-rule="evenodd" clip-rule="evenodd" d="M69.9229 88.3759C69.9229 80.2299 76.5205 73.6262 84.6591 73.6262C92.7977 73.6262 99.3954 80.2299 99.3954 88.3759C99.3954 96.522 92.7977 103.126 84.6591 103.126C76.5205 103.126 69.9229 96.522 69.9229 88.3759ZM97.3359 88.376C97.3359 81.3683 91.6603 75.6875 84.6591 75.6875C77.6578 75.6875 71.9822 81.3683 71.9822 88.376C71.9822 95.3836 77.6578 101.064 84.6591 101.064C91.6603 101.064 97.3359 95.3836 97.3359 88.376Z" fill="#636363"/>
<path fill-rule="evenodd" clip-rule="evenodd" d="M69.9229 88.3759C69.9229 80.2299 76.5205 73.6262 84.6591 73.6262C92.7977 73.6262 99.3954 80.2299 99.3954 88.3759C99.3954 96.522 92.7977 103.126 84.6591 103.126C76.5205 103.126 69.9229 96.522 69.9229 88.3759ZM97.3359 88.376C97.3359 81.3683 91.6603 75.6875 84.6591 75.6875C77.6578 75.6875 71.9822 81.3683 71.9822 88.376C71.9822 95.3836 77.6578 101.064 84.6591 101.064C91.6603 101.064 97.3359 95.3836 97.3359 88.376Z" fill="#636363"/>
</g>
<path d="M84.6596 97.1394C89.495 97.1394 93.4149 93.2159 93.4149 88.3761C93.4149 83.5362 89.495 79.6128 84.6596 79.6128C79.8242 79.6128 75.9043 83.5362 75.9043 88.3761C75.9043 93.2159 79.8242 97.1394 84.6596 97.1394Z" fill="#434448"/>
<rect x="78.4329" y="83.9635" width="12.4548" height="8.82516" rx="2.42671" fill="#121413"/>
<rect x="81.5364" y="83.9635" width="6.67751" height="0.699201" fill="#121413"/>
<rect x="81.5364" y="92.0024" width="6.67751" height="0.802263" fill="#121413"/>
<path d="M84.6602 91.4C86.3287 91.4 87.6814 90.0462 87.6814 88.376C87.6814 86.7059 86.3287 85.3521 84.6602 85.3521C82.9916 85.3521 81.6389 86.7059 81.6389 88.376C81.6389 90.0462 82.9916 91.4 84.6602 91.4Z" fill="#2E2E2E"/>
<mask id="mask1_0_4189" style="mask-type:alpha" maskUnits="userSpaceOnUse" x="81" y="85" width="7" height="7">
<path fill-rule="evenodd" clip-rule="evenodd" d="M84.6602 91.4C86.3287 91.4 87.6814 90.0462 87.6814 88.376C87.6814 86.7059 86.3287 85.3521 84.6602 85.3521C82.9916 85.3521 81.6389 86.7059 81.6389 88.376C81.6389 90.0462 82.9916 91.4 84.6602 91.4Z" fill="white"/>
</mask>
<g mask="url(#mask1_0_4189)">
<path d="M84.6597 89.6102C85.3407 89.6102 85.8928 89.0576 85.8928 88.3759C85.8928 87.6942 85.3407 87.1416 84.6597 87.1416C83.9786 87.1416 83.4265 87.6942 83.4265 88.3759C83.4265 89.0576 83.9786 89.6102 84.6597 89.6102Z" fill="#121413"/>
</g>
<path d="M93.8831 65.8119L107.313 65.7088L105.62 64.597C105.419 64.4651 105.184 64.3948 104.943 64.3948H94.2951C94.0675 64.3948 93.8831 64.5792 93.8831 64.807V65.8119Z" fill="#434448"/>
<path d="M93.8831 65.5155H106.855C107.196 65.5155 107.473 65.7924 107.473 66.1338V70.4135H93.8831V65.5155Z" fill="#636363"/>
<rect opacity="0.65" x="96.5806" y="66.1667" width="9.38513" height="3.43431" rx="0.422035" fill="white"/>
<path d="M66.3764 71.5669C66.5328 71.3712 66.7695 71.2572 67.0198 71.2572H92.4579C92.7083 71.2572 92.9452 71.3712 93.1013 71.5669L93.8838 72.5464H65.5942L66.3764 71.5669Z" fill="#222423"/>
<rect x="93.8838" y="70.4135" width="8.8602" height="2.13278" fill="#222423"/>
<rect x="96.9836" y="66.682" width="8.61512" height="0.57303" fill="white"/>
<rect x="96.9836" y="67.5946" width="8.61512" height="0.57303" fill="white"/>
<rect x="96.9836" y="68.5072" width="8.61512" height="0.57303" fill="white"/>
<path d="M57.6941 71.646C57.7878 71.4113 58.0149 71.2572 58.2677 71.2572H62.8882C63.141 71.2572 63.3682 71.4113 63.4621 71.646L63.8215 72.5464H57.3345L57.6941 71.646Z" fill="#636363"/>
<path d="M46.7139 79.1038C49.1567 78.8213 51.4135 78.871 53.5167 79.3821C55.0364 79.7514 56.4714 80.3599 57.7863 81.2976C59.5336 82.5435 60.9042 84.2727 61.6677 86.3742C63.3714 91.064 60.9543 96.2483 56.2688 97.9537C53.5936 98.9273 50.7575 98.5564 48.4991 97.1861L48.3763 97.1101L48.3088 97.1204C46.3772 97.4192 43.7478 98.2398 41.0104 99.4761L40.8355 99.5555C33.5194 102.901 27.6039 108.081 25.4039 113.41C24.2208 116.276 23.9275 118.649 24.2737 120.488C24.4596 121.476 24.8199 122.236 25.2638 122.76L25.3227 122.828L25.363 122.777C28.0495 119.419 32.8228 118.381 36.7079 120.492L36.8385 120.564C41.181 123.016 42.7155 128.527 40.266 132.874C37.47 137.835 32.7445 140.913 27.3323 141.382C22.5045 141.8 17.6736 140.096 13.8563 136.826C5.98602 130.083 3.79411 118.436 8.71752 106.509C12.9101 96.3533 22.2217 88.2 33.3322 83.1188C37.9857 80.9907 42.69 79.5693 46.7139 79.1038Z" fill="#6E5243"/>
<path d="M92.1567 109.487L111.739 118.278L107.457 143.281C106.482 148.976 102.579 153.733 97.1878 155.798L93.1333 157.351L84.9016 125.116L92.1567 109.487Z" fill="black"/>
<path d="M18.4712 109.916C23.0424 111.494 27.8737 109.916 28.5386 108.258L43.1195 122.091L49.7858 136.043L24.559 146.015V163.338L0.529127 130.867C0.359771 130.638 0.258554 130.368 0.252703 130.083C0.123981 123.819 4.62154 111.718 7.41711 103.286C7.94051 101.708 8.58072 102.26 10.4085 101.708C11.6124 106.025 13.8999 108.337 18.4712 109.916Z" fill="black"/>
</svg>
